<svg width="32" height="30" viewBox="0 0 32 30" fill="none" xmlns="http://www.w3.org/2000/svg">
<path d="M17.3333 3.75H14.6667V16.25H17.3333V3.75ZM23.7733 6.4625L21.88 8.2375C23.9867 9.825 25.3333 12.2625 25.3333 15C25.3333 19.8375 21.16 23.75 16 23.75C10.84 23.75 6.66667 19.8375 6.66667 15C6.66667 12.2625 8.01333 9.825 10.1067 8.225L8.22667 6.4625C5.64 8.525 4 11.575 4 15C4 21.2125 9.37333 26.25 16 26.25C22.6267 26.25 28 21.2125 28 15C28 11.575 26.36 8.525 23.7733 6.4625Z" fill="#FF4D85"/>
</svg>
