<svg width="83" height="82" viewBox="0 0 83 82" fill="none" xmlns="http://www.w3.org/2000/svg">
<path d="M20.0516 63.2461C20.4408 62.863 21.0654 62.863 21.4546 63.2461L38.7663 80.2873C39.404 80.915 38.9595 82 38.0648 82H3.44135C2.54664 82 2.10222 80.915 2.73984 80.2873L20.0516 63.2461Z" fill="#1C0009"/>
<path d="M20.9484 30.7539C20.5592 31.137 19.9346 31.137 19.5454 30.7539L2.23367 13.7126C1.59606 13.085 2.04048 12 2.93519 12L37.5587 12C38.4534 12 38.8978 13.085 38.2602 13.7126L20.9484 30.7539Z" fill="#FF4D85"/>
<rect x="13" y="23" width="15" height="59" fill="url(#paint0_linear)"/>
<path d="M81.7613 75.4262C82.5871 76.2719 83 77.1561 83 78.0788C83 79.2321 82.2922 80.1932 80.8765 80.962C79.5788 81.654 78.0451 82 76.2756 82C73.5622 82 71.4387 81.2311 69.905 79.6934L37.8755 50.6173L1.57676 7.84248C1.57676 6.45851 0.279056 1.06194 1.57675 0.216184L37.8755 0C51.4423 0 61.7649 1.96062 68.8433 5.88186C76.0396 9.8031 79.6378 15.5696 79.6378 23.1814C79.6378 29.6399 76.7474 34.8298 70.9668 38.7511C65.3041 42.6723 37.8755 50.6173 37.8755 50.6173L81.7613 75.4262ZM37.8755 50.6173C37.8755 50.6173 65.4811 28.602 65.4811 23.2968C65.4811 18.0685 63.1216 14.1857 58.4027 11.6484C53.6838 9.11111 46.4285 7.84248 36.6367 7.84248H1.57676L37.8755 50.6173Z" fill="url(#paint1_linear)"/>
<defs>
<linearGradient id="paint0_linear" x1="20.5" y1="23" x2="20.5" y2="82" gradientUnits="userSpaceOnUse">
<stop stop-color="#FF4D85"/>
<stop offset="0.206592" stop-color="#C13A65"/>
<stop offset="0.420137" stop-color="#802743"/>
<stop offset="0.612849" stop-color="#4D1728"/>
<stop offset="0.821186" stop-color="#300F19"/>
<stop offset="1" stop-opacity="0.07"/>
</linearGradient>
<linearGradient id="paint1_linear" x1="42" y1="0" x2="42" y2="82" gradientUnits="userSpaceOnUse">
<stop stop-color="#FF4D85"/>
<stop offset="0.203035" stop-color="#7C2541"/>
<stop offset="0.413024" stop-color="#621E33"/>
<stop offset="0.623266" stop-color="#571A2D"/>
<stop offset="0.836811" stop-color="#481625"/>
<stop offset="1"/>
</linearGradient>
</defs>
</svg>
