<svg width="25" height="25" viewBox="0 0 25 25" fill="none" xmlns="http://www.w3.org/2000/svg">
<path d="M20.2395 13.5208C20.2812 13.1875 20.3125 12.8541 20.3125 12.5C20.3125 12.1458 20.2812 11.8125 20.2395 11.4791L22.4375 9.7604C22.6354 9.60415 22.6875 9.3229 22.5625 9.09373L20.4791 5.48956C20.3854 5.3229 20.2083 5.22915 20.0208 5.22915C19.9583 5.22915 19.8958 5.23956 19.8437 5.2604L17.25 6.30206C16.7083 5.8854 16.125 5.54165 15.4895 5.28123L15.0937 2.52081C15.0625 2.27081 14.8437 2.08331 14.5833 2.08331H10.4166C10.1562 2.08331 9.93745 2.27081 9.9062 2.52081L9.51037 5.28123C8.87495 5.54165 8.29162 5.89581 7.74995 6.30206L5.1562 5.2604C5.0937 5.23956 5.0312 5.22915 4.9687 5.22915C4.79162 5.22915 4.61454 5.3229 4.52079 5.48956L2.43745 9.09373C2.30204 9.3229 2.36454 9.60415 2.56245 9.7604L4.76037 11.4791C4.7187 11.8125 4.68745 12.1562 4.68745 12.5C4.68745 12.8437 4.7187 13.1875 4.76037 13.5208L2.56245 15.2396C2.36454 15.3958 2.31245 15.6771 2.43745 15.9062L4.52079 19.5104C4.61454 19.6771 4.79162 19.7708 4.97912 19.7708C5.04162 19.7708 5.10412 19.7604 5.1562 19.7396L7.74995 18.6979C8.29162 19.1146 8.87495 19.4583 9.51037 19.7187L9.9062 22.4791C9.93745 22.7291 10.1562 22.9166 10.4166 22.9166H14.5833C14.8437 22.9166 15.0625 22.7291 15.0937 22.4791L15.4895 19.7187C16.125 19.4583 16.7083 19.1041 17.25 18.6979L19.8437 19.7396C19.9062 19.7604 19.9687 19.7708 20.0312 19.7708C20.2083 19.7708 20.3854 19.6771 20.4791 19.5104L22.5625 15.9062C22.6875 15.6771 22.6354 15.3958 22.4375 15.2396L20.2395 13.5208ZM18.177 11.7396C18.2187 12.0625 18.2291 12.2812 18.2291 12.5C18.2291 12.7187 18.2083 12.9479 18.177 13.2604L18.0312 14.4375L18.9583 15.1666L20.0833 16.0416L19.3541 17.3021L18.0312 16.7708L16.9479 16.3333L16.0104 17.0416C15.5625 17.375 15.1354 17.625 14.7083 17.8021L13.6041 18.25L13.4375 19.4271L13.2291 20.8333H11.7708L11.5729 19.4271L11.4062 18.25L10.302 17.8021C9.85412 17.6146 9.43745 17.375 9.02079 17.0625L8.07287 16.3333L6.9687 16.7812L5.64579 17.3125L4.91662 16.0521L6.04162 15.1771L6.9687 14.4479L6.82287 13.2708C6.79162 12.9479 6.77079 12.7083 6.77079 12.5C6.77079 12.2916 6.79162 12.0521 6.82287 11.7396L6.9687 10.5625L6.04162 9.83331L4.91662 8.95831L5.64579 7.6979L6.9687 8.22915L8.05204 8.66665L8.98954 7.95831C9.43745 7.62498 9.86454 7.37498 10.2916 7.1979L11.3958 6.74998L11.5625 5.5729L11.7708 4.16665H13.2187L13.4166 5.5729L13.5833 6.74998L14.6875 7.1979C15.1354 7.3854 15.552 7.62498 15.9687 7.93748L16.9166 8.66665L18.0208 8.21873L19.3437 7.68748L20.0729 8.9479L18.9583 9.83331L18.0312 10.5625L18.177 11.7396ZM12.5 8.33331C10.1979 8.33331 8.33329 10.1979 8.33329 12.5C8.33329 14.8021 10.1979 16.6666 12.5 16.6666C14.802 16.6666 16.6666 14.8021 16.6666 12.5C16.6666 10.1979 14.802 8.33331 12.5 8.33331ZM12.5 14.5833C11.3541 14.5833 10.4166 13.6458 10.4166 12.5C10.4166 11.3541 11.3541 10.4166 12.5 10.4166C13.6458 10.4166 14.5833 11.3541 14.5833 12.5C14.5833 13.6458 13.6458 14.5833 12.5 14.5833Z" fill="#FF4D85"/>
</svg>
