<svg width="130" height="90" viewBox="0 0 130 90" fill="none" xmlns="http://www.w3.org/2000/svg">
<path d="M5.63391 45.3776C7.04191 42.6555 7.83826 40.2845 7.4126 40.0819C6.98693 39.8793 5.50045 41.9218 4.09244 44.644C2.68443 47.3661 1.88808 49.7371 2.31375 49.9397C2.73941 50.1423 4.2259 48.0998 5.63391 45.3776Z" fill="#E0E0E0"/>
<path d="M77.0589 79.4056C78.4669 76.6834 79.3739 74.365 79.0847 74.2274C78.7955 74.0897 77.4196 76.1849 76.0116 78.9071C74.6036 81.6292 73.6966 83.9476 73.9858 84.0852C74.2751 84.2229 75.6509 82.1277 77.0589 79.4056Z" fill="#E0E0E0"/>
<path d="M38.6771 65.6441L36.0233 63.5421L28.719 72.0277L31.3728 74.1298L38.6771 65.6441Z" fill="#F55F44"/>
<path opacity="0.05" d="M32.5745 74.8067L36.344 75.6569L38.9696 64.9444L35.2001 64.0942L32.5745 74.8067Z" fill="black"/>
<path d="M32.9938 74.9012L36.344 75.6569L38.9697 64.9444L35.6195 64.1888L32.9938 74.9012Z" fill="#F55F44"/>
<path d="M7.54005 39.8355L2.18626 50.1862L73.8643 84.3021L79.2181 73.9514L7.54005 39.8355Z" fill="url(#paint0_linear)"/>
<path d="M73.9918 84.0557C72.5888 83.4102 1.28611 49.4507 2.31375 49.9398C6.27126 44.1455 7.4126 40.0819 7.4126 40.0819L79.0906 74.1979C79.0906 74.1979 76.5735 78.4356 73.9918 84.0557Z" fill="#F5F5F5"/>
<path opacity="0.05" d="M44.6646 57.8124L38.7557 54.9999L33.6568 64.8578L39.5658 67.6702L44.6646 57.8124Z" fill="black"/>
<path d="M44.4077 57.6901L39.0126 55.1222L33.9138 64.9801L39.3089 67.5479L44.4077 57.6901Z" fill="#F55F44"/>
<path opacity="0.05" d="M43.3801 57.201L39.7833 55.4891L34.6845 65.347L38.2812 67.0589L43.3801 57.201Z" fill="black"/>
<path d="M43.1232 57.0787L40.0403 55.6114L34.9414 65.4693L38.0243 66.9366L43.1232 57.0787Z" fill="#F55F44"/>
<path d="M42.708 88.8732C42.9721 88.8732 43.1862 88.6678 43.1862 88.4145C43.1862 88.1612 42.9721 87.9558 42.708 87.9558C42.4439 87.9558 42.2299 88.1612 42.2299 88.4145C42.2299 88.6678 42.4439 88.8732 42.708 88.8732Z" fill="#DBDBDB"/>
<g opacity="0.5">
<path opacity="0.5" d="M5.29455 75.5699H4.80423V78.2352H5.29455V75.5699Z" fill="#47E6B1"/>
<path opacity="0.5" d="M6.43864 77.1377V76.6674H3.66015V77.1377H6.43864Z" fill="#47E6B1"/>
</g>
<g opacity="0.5">
<path opacity="0.5" d="M128.856 42.3317H128.366V44.997H128.856V42.3317Z" fill="#47E6B1"/>
<path opacity="0.5" d="M130 43.8994V43.4291H127.222V43.8994H130Z" fill="#47E6B1"/>
</g>
<g opacity="0.5">
<path opacity="0.5" d="M8.23649 9.25024H7.74617V11.9156H8.23649V9.25024Z" fill="#47E6B1"/>
<path opacity="0.5" d="M9.38058 10.8181V10.3477H6.60209V10.8181H9.38058Z" fill="#47E6B1"/>
</g>
<g opacity="0.5">
<path opacity="0.5" d="M114.146 5.17389H113.656V7.83922H114.146V5.17389Z" fill="#47E6B1"/>
<path opacity="0.5" d="M115.29 6.74171V6.27136H112.512V6.74171H115.29Z" fill="#47E6B1"/>
</g>
<path opacity="0.5" d="M2.00849 39.7379C1.87337 39.6815 1.7646 39.5793 1.7029 39.4509C1.64119 39.3225 1.63085 39.1769 1.67385 39.0417C1.68081 39.0209 1.68519 38.9995 1.68691 38.9778C1.69084 38.9158 1.67387 38.8543 1.6385 38.8023C1.60313 38.7503 1.55125 38.7107 1.49054 38.6892C1.42983 38.6677 1.36353 38.6655 1.30144 38.683C1.23936 38.7005 1.1848 38.7367 1.14585 38.7863C1.13245 38.8039 1.12127 38.8229 1.11252 38.843C1.05367 38.9726 0.947194 39.077 0.813353 39.1362C0.679511 39.1954 0.527652 39.2053 0.386682 39.164C0.36507 39.1574 0.342711 39.1532 0.320072 39.1515C0.255485 39.1477 0.19135 39.164 0.137166 39.1979C0.0829818 39.2319 0.0416307 39.2816 0.0192364 39.3399C-0.00315784 39.3981 -0.00540313 39.4617 0.012832 39.5213C0.0310672 39.5808 0.0688124 39.6331 0.120479 39.6705C0.138811 39.6834 0.158659 39.6941 0.179612 39.7025C0.314735 39.7589 0.423502 39.8611 0.485209 39.9895C0.546915 40.1179 0.557252 40.2635 0.514255 40.3987C0.507297 40.4195 0.502913 40.4409 0.501195 40.4626C0.497263 40.5246 0.514241 40.5861 0.549609 40.6381C0.584977 40.6901 0.636857 40.7297 0.697565 40.7512C0.758273 40.7727 0.82458 40.7749 0.886663 40.7574C0.948747 40.7399 1.00331 40.7037 1.04226 40.6541C1.05565 40.6365 1.06684 40.6175 1.07558 40.5974C1.13443 40.4678 1.24091 40.3634 1.37475 40.3042C1.5086 40.245 1.66045 40.2351 1.80142 40.2764C1.82304 40.283 1.8454 40.2873 1.86803 40.2889C1.93262 40.2927 1.99676 40.2764 2.05094 40.2425C2.10513 40.2085 2.14648 40.1588 2.16888 40.1005C2.19127 40.0423 2.19352 39.9787 2.17528 39.9191C2.15704 39.8596 2.1193 39.8073 2.06763 39.7699C2.0493 39.757 2.02945 39.7463 2.00849 39.7379Z" fill="#4D8AF0"/>
<path opacity="0.5" d="M30.1205 8.85147C29.9854 8.79502 29.8766 8.69287 29.8149 8.56448C29.7532 8.43609 29.7428 8.29042 29.7858 8.15519C29.7928 8.13446 29.7972 8.11301 29.7989 8.09129C29.8028 8.02934 29.7859 7.96781 29.7505 7.91583C29.7151 7.86385 29.6632 7.82419 29.6025 7.8027C29.5418 7.78122 29.4755 7.77907 29.4134 7.79656C29.3513 7.81405 29.2968 7.85026 29.2578 7.89983C29.2444 7.91741 29.2333 7.93645 29.2245 7.95655C29.1657 8.08617 29.0592 8.19051 28.9253 8.2497C28.7915 8.3089 28.6396 8.31881 28.4987 8.27757C28.4771 8.27089 28.4547 8.26669 28.4321 8.26504C28.3675 8.26127 28.3033 8.27755 28.2492 8.31148C28.195 8.34541 28.1536 8.39518 28.1312 8.45341C28.1088 8.51165 28.1066 8.57525 28.1248 8.6348C28.1431 8.69436 28.1808 8.7467 28.2325 8.78406C28.2508 8.79691 28.2706 8.80764 28.2916 8.81603C28.4267 8.87248 28.5355 8.97463 28.5972 9.10302C28.6589 9.23141 28.6692 9.37708 28.6262 9.51231C28.6193 9.53304 28.6149 9.55449 28.6132 9.57621C28.6093 9.63816 28.6262 9.69969 28.6616 9.75166C28.697 9.80364 28.7488 9.84331 28.8096 9.86479C28.8703 9.88628 28.9366 9.88843 28.9986 9.87094C29.0607 9.85344 29.1153 9.81723 29.1542 9.76767C29.1676 9.75008 29.1788 9.73104 29.1876 9.71094C29.2464 9.58133 29.3529 9.47699 29.4867 9.4178C29.6206 9.3586 29.7724 9.34868 29.9134 9.38993C29.935 9.39661 29.9574 9.40081 29.98 9.40246C30.0446 9.40623 30.1087 9.38995 30.1629 9.35602C30.2171 9.32209 30.2585 9.27232 30.2809 9.21409C30.3033 9.15585 30.3055 9.09225 30.2873 9.03269C30.269 8.97314 30.2313 8.9208 30.1796 8.88343C30.1613 8.87058 30.1414 8.85986 30.1205 8.85147Z" fill="#4D8AF0"/>
<path opacity="0.5" d="M64.4431 88.9681C64.308 88.9117 64.1992 88.8095 64.1375 88.6811C64.0758 88.5527 64.0655 88.4071 64.1085 88.2718C64.1154 88.2511 64.1198 88.2296 64.1215 88.2079C64.1254 88.146 64.1085 88.0845 64.0731 88.0325C64.0377 87.9805 63.9858 87.9408 63.9251 87.9193C63.8644 87.8979 63.7981 87.8957 63.736 87.9132C63.674 87.9307 63.6194 87.9669 63.5804 88.0165C63.567 88.034 63.5559 88.0531 63.5471 88.0732C63.4883 88.2028 63.3818 88.3071 63.2479 88.3663C63.1141 88.4255 62.9622 88.4355 62.8213 88.3942C62.7997 88.3875 62.7773 88.3833 62.7547 88.3817C62.6901 88.3779 62.6259 88.3942 62.5718 88.4281C62.5176 88.4621 62.4762 88.5118 62.4538 88.5701C62.4314 88.6283 62.4292 88.6919 62.4474 88.7515C62.4657 88.811 62.5034 88.8633 62.5551 88.9007C62.5734 88.9136 62.5932 88.9243 62.6142 88.9327C62.7493 88.9891 62.8581 89.0913 62.9198 89.2197C62.9815 89.3481 62.9918 89.4937 62.9488 89.629C62.9419 89.6497 62.9375 89.6711 62.9358 89.6929C62.9319 89.7548 62.9488 89.8164 62.9842 89.8683C63.0196 89.9203 63.0715 89.96 63.1322 89.9815C63.1929 90.0029 63.2592 90.0051 63.3213 89.9876C63.3833 89.9701 63.4379 89.9339 63.4769 89.8843C63.4902 89.8667 63.5014 89.8477 63.5102 89.8276C63.569 89.698 63.6755 89.5936 63.8094 89.5345C63.9432 89.4753 64.0951 89.4653 64.236 89.5066C64.2576 89.5133 64.28 89.5175 64.3026 89.5191C64.3672 89.5229 64.4314 89.5066 64.4855 89.4727C64.5397 89.4388 64.5811 89.389 64.6035 89.3307C64.6259 89.2725 64.6281 89.2089 64.6099 89.1493C64.5916 89.0898 64.5539 89.0374 64.5022 89.0001C64.4839 88.9872 64.4641 88.9765 64.4431 88.9681Z" fill="#4D8AF0"/>
<path opacity="0.5" d="M124.116 70.5528C124.658 70.5528 125.097 70.1317 125.097 69.6121C125.097 69.0926 124.658 68.6714 124.116 68.6714C123.575 68.6714 123.135 69.0926 123.135 69.6121C123.135 70.1317 123.575 70.5528 124.116 70.5528Z" fill="#F55F44"/>
<path opacity="0.5" d="M102.542 76.5106C103.084 76.5106 103.523 76.0895 103.523 75.5699C103.523 75.0504 103.084 74.6292 102.542 74.6292C102 74.6292 101.561 75.0504 101.561 75.5699C101.561 76.0895 102 76.5106 102.542 76.5106Z" fill="#4D8AF0"/>
<path opacity="0.5" d="M16.8989 85.7609C17.4405 85.7609 17.8795 85.3397 17.8795 84.8202C17.8795 84.3006 17.4405 83.8795 16.8989 83.8795C16.3573 83.8795 15.9182 84.3006 15.9182 84.8202C15.9182 85.3397 16.3573 85.7609 16.8989 85.7609Z" fill="#47E6B1"/>
<path opacity="0.5" d="M67.2387 1.88141C67.7803 1.88141 68.2193 1.46024 68.2193 0.940704C68.2193 0.421168 67.7803 0 67.2387 0C66.6971 0 66.258 0.421168 66.258 0.940704C66.258 1.46024 66.6971 1.88141 67.2387 1.88141Z" fill="#F55F44"/>
<path d="M33.4881 56.0503L29.5655 61.6945C29.5655 61.6945 30.8731 67.4955 59.8021 67.3387C88.7311 67.1819 91.0193 61.6945 91.0193 61.6945L85.6257 54.1689L69.1182 43.3508L33.4881 56.0503Z" fill="#FF4D85"/>
<path opacity="0.15" d="M33.4881 56.0503L29.5655 61.6945C29.5655 61.6945 30.8731 67.4955 59.8021 67.3387C88.7311 67.1819 91.0193 61.6945 91.0193 61.6945L85.6257 54.1689L69.1182 43.3508L33.4881 56.0503Z" fill="black"/>
<path d="M116.925 35.1196L65.4408 56.9126L2.67946 35.1196L60.2107 10.0342L88.4517 22.5252L89.4634 22.9736L116.925 35.1196Z" fill="#FFB6C1"/>
<path opacity="0.15" d="M116.925 35.1196L65.4408 56.9126L2.67946 35.1196L60.2107 10.0342L88.4517 22.5252L89.4634 22.9736L116.925 35.1196Z" fill="#FFB6C1"/>
<path d="M90.529 40.3436L89.5483 40.4001L88.4516 22.5251L89.4633 22.9735L90.529 40.3436Z" fill="#FF4D85"/>
<path d="M34.1419 35.0413L29.5655 61.6946C29.5655 61.6946 62.4171 51.5036 91.0193 61.6946L86.7698 33.4734C86.7698 33.4734 48.3612 28.9267 34.1419 35.0413Z" fill="#FFB6C1"/>
<path d="M90.4473 45.7809C93.065 45.7809 95.1871 44.3771 95.1871 42.6453C95.1871 40.9135 93.065 39.5096 90.4473 39.5096C87.8296 39.5096 85.7075 40.9135 85.7075 42.6453C85.7075 44.3771 87.8296 45.7809 90.4473 45.7809Z" fill="#F5F5F5"/>
<defs>
<linearGradient id="paint0_linear" x1="38.0253" y1="67.2442" x2="43.0307" y2="56.7276" gradientUnits="userSpaceOnUse">
<stop stop-color="#808080" stop-opacity="0.25"/>
<stop offset="0.53514" stop-color="#808080" stop-opacity="0.12"/>
<stop offset="1" stop-color="#808080" stop-opacity="0.1"/>
</linearGradient>
</defs>
</svg>
