<svg width="130" height="80" viewBox="0 0 130 80" fill="none" xmlns="http://www.w3.org/2000/svg">
<g clip-path="url(#clip0)">
<path d="M2.24215 30.7223H45C45.5566 30.7223 46.0905 30.9583 46.4841 31.3783C46.8778 31.7983 47.0989 32.368 47.0989 32.962V36.5197H0.143219V32.962C0.143219 32.368 0.364356 31.7983 0.757981 31.3783C1.15161 30.9583 1.68548 30.7223 2.24215 30.7223Z" fill="#3F3D56"/>
<path d="M44.1885 30.3082C43.9772 30.3092 43.7675 30.3472 43.5679 30.4209C43.4994 30.1269 43.3324 29.8698 43.0984 29.6981C42.8644 29.5265 42.5796 29.4522 42.2978 29.4893C42.016 29.5264 41.7567 29.6723 41.5688 29.8994C41.3809 30.1266 41.2775 30.4193 41.278 30.7223C41.278 30.7284 41.2794 30.7342 41.2795 30.7404C41.134 30.7551 40.9905 30.7868 40.8514 30.835C40.812 30.6678 40.7405 30.5112 40.6414 30.375C40.5424 30.2387 40.4179 30.1259 40.2759 30.0437C40.6489 29.8236 40.9439 29.479 41.1157 29.0628C42.0651 29.0464 42.8302 28.3139 42.8302 27.4095C42.8302 26.4947 42.0484 25.7531 41.084 25.7531C40.8727 25.7541 40.663 25.7922 40.4634 25.8658C40.4275 25.703 40.3612 25.5495 40.2682 25.4148C40.1753 25.2801 40.0578 25.1668 39.9227 25.0819C39.7876 24.997 39.6378 24.9422 39.4823 24.9207C39.3269 24.8993 39.1689 24.9117 39.0181 24.9572C38.8672 25.0027 38.7266 25.0804 38.6046 25.1855C38.4826 25.2906 38.3819 25.421 38.3085 25.5688C38.2351 25.7166 38.1905 25.8788 38.1774 26.0455C38.1643 26.2122 38.183 26.38 38.2324 26.5388C38.186 26.5732 38.1427 26.6119 38.0994 26.6504C37.8798 26.4488 37.5948 26.3476 37.3058 26.3685C37.1566 25.9112 36.8613 25.5245 36.4717 25.2762C36.0821 25.0279 35.623 24.9337 35.1749 25.0103C34.7269 25.0869 34.3183 25.3293 34.0209 25.695C33.7234 26.0607 33.5561 26.5265 33.5481 27.0107C33.3924 27.0238 33.2387 27.0565 33.0902 27.1081C33.0735 27.038 33.0511 26.9697 33.0232 26.9037C33.1764 26.7595 33.2995 26.5826 33.3845 26.3844C33.4695 26.1861 33.5146 25.9711 33.5167 25.7531C33.5167 24.8383 32.7349 24.0967 31.7704 24.0967C31.5592 24.0977 31.3495 24.1358 31.1498 24.2094C31.114 24.0466 31.0476 23.8931 30.9547 23.7584C30.8618 23.6237 30.7442 23.5104 30.6092 23.4255C30.4741 23.3406 30.3243 23.2858 30.1688 23.2644C30.0133 23.2429 29.8554 23.2553 29.7045 23.3008C29.5537 23.3463 29.413 23.424 29.2911 23.5291C29.1691 23.6342 29.0684 23.7646 28.995 23.9124C28.9215 24.0602 28.8769 24.2224 28.8638 24.3891C28.8508 24.5558 28.8695 24.7236 28.9189 24.8824C28.6745 25.0634 28.4726 25.3022 28.3287 25.5801C28.1849 25.8579 28.103 26.1675 28.0895 26.4846C28.0731 26.5002 28.0543 26.5128 28.0387 26.5293C28.0677 26.411 28.0829 26.2894 28.0838 26.1672C28.0838 25.2524 27.302 24.5108 26.3375 24.5108C26.1263 24.5118 25.9166 24.5499 25.7169 24.6235C25.6811 24.4607 25.6147 24.3072 25.5218 24.1725C25.4289 24.0378 25.3113 23.9245 25.1763 23.8396C25.0412 23.7547 24.8914 23.6999 24.7359 23.6785C24.5804 23.657 24.4225 23.6694 24.2717 23.7149C24.1208 23.7604 23.9801 23.8381 23.8582 23.9432C23.7362 24.0483 23.6355 24.1787 23.5621 24.3265C23.4886 24.4743 23.444 24.6365 23.431 24.8032C23.4179 24.9699 23.4366 25.1377 23.486 25.2965C23.2284 25.4864 23.0178 25.7403 22.8724 26.0362C22.7269 26.3321 22.6509 26.6612 22.6509 26.9954C22.6509 27.3295 22.7269 27.6587 22.8724 27.9546C23.0178 28.2505 23.2284 28.5043 23.486 28.6943C23.4074 28.9349 23.4074 29.1968 23.486 29.4375C23.2915 29.5822 23.1233 29.7635 22.9895 29.9724C22.9177 29.6942 22.7568 29.4517 22.5349 29.287C22.3129 29.1222 22.0439 29.0456 21.7745 29.0705C21.5052 29.0953 21.2525 29.22 21.0603 29.423C20.8681 29.6259 20.7486 29.8943 20.7226 30.1815C20.567 30.0842 20.3989 30.0117 20.2237 29.9664C20.538 29.7449 20.7856 29.4311 20.9364 29.0628C21.8858 29.0464 22.6509 28.3139 22.6509 27.4095C22.6509 26.4947 21.8691 25.7531 20.9046 25.7531C20.6934 25.7541 20.4837 25.7922 20.284 25.8658C20.2482 25.703 20.1818 25.5495 20.0889 25.4148C19.996 25.2801 19.8784 25.1668 19.7434 25.0819C19.6083 24.997 19.4585 24.9422 19.303 24.9207C19.1475 24.8993 18.9896 24.9117 18.8388 24.9572C18.6879 25.0027 18.5472 25.0804 18.4253 25.1855C18.3033 25.2906 18.2026 25.421 18.1292 25.5688C18.0557 25.7166 18.0111 25.8788 17.9981 26.0455C17.985 26.2122 18.0037 26.38 18.0531 26.5388C18.0282 26.5572 18.0058 26.579 17.9817 26.5986C17.9212 26.5926 17.8623 26.5813 17.8001 26.5813C17.5889 26.5823 17.3792 26.6204 17.1795 26.694C17.1722 26.6628 17.1601 26.6338 17.1506 26.6035C17.1882 26.4192 17.1852 26.228 17.1419 26.0451C17.0986 25.8622 17.0161 25.6925 16.9009 25.5494C16.7858 25.4062 16.6411 25.2935 16.4782 25.2201C16.3154 25.1467 16.1388 25.1145 15.9623 25.1262C15.8612 24.826 15.6965 24.5547 15.4809 24.3336C15.2652 24.1126 15.0046 23.9478 14.7194 23.8521C14.4342 23.7564 14.1321 23.7324 13.8367 23.7819C13.5414 23.8315 13.2607 23.9533 13.0168 24.1378C12.7729 24.3223 12.5723 24.5646 12.4307 24.8455C12.2891 25.1265 12.2103 25.4387 12.2005 25.7576C12.1907 26.0765 12.2502 26.3934 12.3742 26.6837C12.4983 26.974 12.6836 27.2297 12.9157 27.4309C12.7822 27.4472 12.6506 27.4778 12.5228 27.5222C12.4769 27.3203 12.3839 27.1341 12.2524 26.9809C12.1209 26.8277 11.9552 26.7125 11.7708 26.646C11.5863 26.5795 11.3891 26.5639 11.1975 26.6007C11.0059 26.6374 10.8261 26.7253 10.6749 26.8562C10.5019 26.637 10.2856 26.4615 10.0413 26.3423C9.79715 26.2232 9.53121 26.1634 9.26271 26.1672C9.05146 26.1682 8.84179 26.2063 8.64213 26.2799C8.60631 26.1171 8.53993 25.9636 8.447 25.8289C8.35408 25.6942 8.23653 25.5809 8.10146 25.496C7.96639 25.4111 7.81659 25.3563 7.66111 25.3348C7.50563 25.3134 7.34769 25.3258 7.19683 25.3713C7.04597 25.4168 6.90532 25.4945 6.78336 25.5996C6.66141 25.7047 6.56067 25.8351 6.48725 25.9829C6.41382 26.1307 6.36922 26.2929 6.35615 26.4596C6.34307 26.6263 6.36179 26.7941 6.41117 26.9529C6.15361 27.1429 5.94308 27.3967 5.79764 27.6926C5.65219 27.9885 5.57618 28.3176 5.57611 28.6518C5.57611 28.6582 5.57784 28.6641 5.57789 28.6705C5.30271 28.626 5.02143 28.6584 4.76149 28.7645C4.72567 28.6017 4.65929 28.4482 4.56636 28.3135C4.47344 28.1788 4.35589 28.0655 4.22082 27.9806C4.08574 27.8957 3.93595 27.8409 3.78047 27.8195C3.62499 27.798 3.46706 27.8104 3.3162 27.8559C3.16534 27.9014 3.02469 27.9791 2.90273 28.0842C2.78078 28.1893 2.68005 28.3197 2.60662 28.4675C2.53319 28.6153 2.4886 28.7775 2.47552 28.9442C2.46244 29.1109 2.48115 29.2787 2.53053 29.4375C2.15627 29.7078 1.88267 30.1096 1.75728 30.5729C1.6319 31.0363 1.66267 31.5318 1.84426 31.9735C2.02584 32.4151 2.34675 32.7748 2.75116 32.9901C3.15558 33.2054 3.61791 33.2626 4.05777 33.1518C4.12781 33.5839 4.32502 33.9808 4.62078 34.2852C4.91653 34.5895 5.29547 34.7854 5.70261 34.8445C6.10975 34.9035 6.52392 34.8226 6.88505 34.6134C7.24618 34.4043 7.53549 34.0779 7.711 33.6814C7.86995 34.0403 8.12252 34.3426 8.43843 34.5522C8.75434 34.7618 9.12018 34.8697 9.4921 34.8629C9.86403 34.8562 10.2262 34.7352 10.5353 34.5144C10.8444 34.2936 11.0873 33.9823 11.2348 33.6179C11.4635 33.6145 11.6897 33.5677 11.9031 33.4799C12.0313 33.8721 12.2676 34.2139 12.5809 34.4605C12.8942 34.7071 13.27 34.847 13.6591 34.8619C14.0481 34.8768 14.4324 34.7661 14.7615 34.5441C15.0905 34.3221 15.3492 33.9993 15.5035 33.6179C15.7864 33.6119 16.0645 33.5385 16.3174 33.403C16.4945 33.737 16.7554 34.0116 17.0708 34.1959C17.3862 34.3802 17.7436 34.4668 18.1027 34.4461C18.4618 34.4254 18.8083 34.2982 19.1032 34.0787C19.3982 33.8592 19.6299 33.5562 19.7722 33.2038C19.8763 33.2011 19.9801 33.1895 20.0825 33.1692C20.2277 33.5449 20.4734 33.8667 20.789 34.0944C21.1046 34.322 21.476 34.4454 21.8569 34.4491C22.2378 34.4528 22.6113 34.3366 22.9307 34.1152C23.2501 33.8937 23.5013 33.5767 23.6528 33.2038C23.8052 33.1992 23.9566 33.1754 24.1038 33.1328C24.4938 33.2488 24.9083 33.2283 25.2866 33.0741C25.6648 32.92 25.9867 32.6405 26.205 32.2766C26.083 32.7808 26.1437 33.3156 26.3749 33.7742C26.6062 34.2328 26.9909 34.5816 27.4524 34.7508C27.914 34.9201 28.4183 34.8975 28.8649 34.6875C29.3115 34.4775 29.6675 34.0956 29.8619 33.6179C30.1448 33.6119 30.4229 33.5385 30.6758 33.403C30.8529 33.737 31.1138 34.0116 31.4292 34.1959C31.7446 34.3802 32.102 34.4668 32.461 34.4461C32.8201 34.4254 33.1666 34.2982 33.4616 34.0787C33.7566 33.8592 33.9883 33.5562 34.1306 33.2038C34.4135 33.1978 34.6916 33.1244 34.9445 32.9889C35.081 33.2484 35.2688 33.473 35.4948 33.6472C35.7209 33.8214 35.9798 33.941 36.2536 33.9976C36.5273 34.0542 36.8093 34.0465 37.08 33.9751C37.3507 33.9036 37.6036 33.7701 37.821 33.5838C37.8884 33.98 38.063 34.3464 38.3232 34.6379C38.5835 34.9293 38.918 35.1331 39.2856 35.2241C39.6531 35.315 40.0376 35.2891 40.3915 35.1496C40.7454 35.0101 41.0533 34.7631 41.2772 34.4391C41.5101 34.6295 41.7806 34.7607 42.0683 34.8226C42.3559 34.8846 42.653 34.8756 42.9369 34.7964C43.2207 34.7172 43.4839 34.5698 43.7063 34.3656C43.9287 34.1614 44.1045 33.9056 44.2202 33.6179C45.1697 33.6014 45.9348 32.869 45.9348 31.9646C45.9347 31.0497 45.1529 30.3082 44.1885 30.3082ZM9.50403 29.4535C9.50199 29.4635 9.50057 29.4737 9.49865 29.4838C9.48449 29.4832 9.47106 29.48 9.45675 29.48C9.39876 29.4815 9.34096 29.4877 9.28385 29.4986C9.28699 29.4911 9.29142 29.4844 9.29448 29.4769C9.36467 29.4732 9.43463 29.4654 9.50403 29.4535ZM25.7169 28.7645C25.7113 28.7404 25.7016 28.7182 25.6947 28.6947C25.9909 28.4755 26.2245 28.1729 26.3693 27.8205C26.6245 27.8191 26.8765 27.7603 27.109 27.648C27.3415 27.5356 27.5491 27.3723 27.7185 27.1686C27.7036 27.2479 27.696 27.3286 27.6957 27.4095C27.6974 27.5358 27.7172 27.6612 27.7547 27.7811C27.4215 28.0289 27.1693 28.3818 27.0333 28.7902C26.6113 28.6149 26.1446 28.6058 25.7169 28.7645V28.7645ZM37.3396 28.9189C37.3388 28.8935 37.3418 28.8674 37.3402 28.8422C37.3897 28.842 37.4391 28.8384 37.4881 28.8315C37.5634 29.0994 37.6892 29.3481 37.8578 29.5622C37.8211 29.5732 37.7826 29.5798 37.7469 29.5927C37.6842 29.3264 37.5411 29.0896 37.3396 28.9189Z" fill="#F9A825"/>
<path d="M4.05219 32.7927C3.50175 32.7927 2.95706 32.9123 2.45138 33.1443C1.9457 33.3764 1.48963 33.7159 1.11099 34.1422C0.732348 34.5685 0.439086 35.0727 0.249095 35.624C0.0591053 36.1753 -0.0236286 36.7621 0.00594314 37.3486L2.63371 75.9075C2.68912 77.0126 3.13959 78.053 3.89235 78.8144C4.6451 79.5757 5.6428 80 6.67996 79.9999H40.562C41.5992 80 42.5969 79.5757 43.3496 78.8144C44.1024 78.053 44.5528 77.0126 44.6083 75.9075L47.236 37.3486C47.2656 36.7621 47.1829 36.1753 46.9929 35.624C46.8029 35.0727 46.5096 34.5685 46.131 34.1422C45.7523 33.7159 45.2963 33.3764 44.7906 33.1443C44.2849 32.9123 43.7402 32.7927 43.1898 32.7927H4.05219Z" fill="#3F3D56"/>
<path d="M8.29257 32.7928H5.96419V80H8.29257V32.7928Z" fill="#FF4D85"/>
<path d="M14.8896 32.7928H12.5612V80H14.8896V32.7928Z" fill="#FF4D85"/>
<path d="M21.4867 32.7928H19.1583V80H21.4867V32.7928Z" fill="#FF4D85"/>
<path d="M28.0838 32.7928H25.7554V80H28.0838V32.7928Z" fill="#FF4D85"/>
<path d="M34.6809 32.7928H32.3525V80H34.6809V32.7928Z" fill="#FF4D85"/>
<path d="M41.278 32.7928H38.9496V80H41.278V32.7928Z" fill="#FF4D85"/>
<path d="M79.265 13.4395L78.25 10.8014L64.7164 16.7304C64.41 16.8648 64.1479 17.0934 63.9634 17.387C63.779 17.6807 63.6805 18.0262 63.6804 18.3798V33.9828H66.3536V19.0997L79.265 13.4395Z" fill="#3F3D56"/>
<path d="M77.5259 7.93454H74.6114V17.7846H77.5259V7.93454Z" fill="#FF4D85"/>
<path d="M72.9112 10.0079H69.9967V19.858H72.9112V10.0079Z" fill="#FF4D85"/>
<path d="M68.4165 18.4326L66.352 19.0805L65.502 8.58252H68.4165V18.4326Z" fill="#FF4D85"/>
<path d="M70.1166 19.5988H60.8858V22.7089H70.1166V19.5988Z" fill="#FF4D85"/>
<path d="M70.1174 23.8767H60.8866V26.9868H70.1174V23.8767Z" fill="#FF4D85"/>
<path d="M70.1166 28.1547H60.8858V31.2647H70.1166V28.1547Z" fill="#FF4D85"/>
<path d="M74.6113 80H56.7569L52.3836 33.3381H78.4988L74.6113 80Z" fill="#3F3D56"/>
<path d="M80.4419 32.5606H50.5621V35.6706H80.4419V32.5606Z" fill="#3F3D56"/>
<path opacity="0.2" d="M101.62 11.9758C101.622 9.77055 102.261 7.61948 103.45 5.81595C104.639 4.01242 106.321 2.64422 108.266 1.89791C110.21 1.15161 112.323 1.06354 114.317 1.64571C116.31 2.22788 118.087 3.45195 119.404 5.151C118.686 3.89152 117.733 2.80354 116.603 1.95504C115.474 1.10654 114.192 0.515764 112.839 0.219633C111.486 -0.0764979 110.09 -0.0716185 108.739 0.233965C107.387 0.539549 106.11 1.13927 104.985 1.99564C103.861 2.85202 102.914 3.94665 102.204 5.21111C101.495 6.47558 101.037 7.8827 100.859 9.34455C100.682 10.8064 100.789 12.2915 101.174 13.7072C101.559 15.1228 102.214 16.4385 103.097 17.572C102.128 15.8885 101.617 13.9512 101.62 11.9758Z" fill="white"/>
<path d="M109.077 66.3619C108.96 66.362 108.847 66.4116 108.765 66.4999C108.682 66.5882 108.635 66.7079 108.635 66.8329V79.529C108.635 79.6539 108.682 79.7737 108.765 79.8619C108.847 79.9502 108.96 79.9999 109.077 80H129.558C129.675 79.9999 129.788 79.9502 129.87 79.8619C129.953 79.7737 130 79.6539 130 79.529V66.8329C130 66.7079 129.953 66.5882 129.87 66.4999C129.788 66.4116 129.675 66.362 129.558 66.3619H109.077Z" fill="#3F3D56"/>
<path d="M111.365 67.4815C111.147 67.4818 110.938 67.5744 110.784 67.739C110.63 67.9036 110.543 68.1267 110.543 68.3595V78.0024C110.543 78.2351 110.63 78.4583 110.784 78.6229C110.938 78.7875 111.147 78.8801 111.365 78.8803H127.269C127.488 78.8801 127.697 78.7875 127.851 78.6229C128.005 78.4583 128.092 78.2351 128.092 78.0024V68.3595C128.092 68.1267 128.005 67.9036 127.851 67.739C127.697 67.5744 127.488 67.4818 127.269 67.4815L111.365 67.4815Z" fill="#FF6584"/>
<path d="M109.307 70.5439H98.638V73.1809H109.307V70.5439Z" fill="#3F3D56"/>
<path d="M80.0732 66.3619C79.9562 66.3621 79.8441 66.4118 79.7613 66.5C79.6786 66.5883 79.632 66.708 79.6319 66.8329V79.529C79.632 79.6539 79.6786 79.7735 79.7613 79.8618C79.8441 79.9501 79.9562 79.9998 80.0732 80H100.555C100.672 79.9998 100.784 79.9501 100.867 79.8618C100.95 79.7735 100.996 79.6539 100.997 79.529V66.8329C100.996 66.708 100.95 66.5883 100.867 66.5C100.784 66.4118 100.672 66.3621 100.555 66.3619H80.0732Z" fill="#3F3D56"/>
<path d="M82.3624 67.4815C82.1442 67.4817 81.935 67.5742 81.7807 67.7389C81.6264 67.9035 81.5396 68.1267 81.5393 68.3595V78.0024C81.5396 78.2352 81.6264 78.4584 81.7807 78.623C81.935 78.7876 82.1442 78.8802 82.3624 78.8803H98.266C98.4842 78.8802 98.6934 78.7876 98.8477 78.623C99.002 78.4584 99.0889 78.2352 99.0891 78.0024V68.3595C99.0889 68.1267 99.002 67.9035 98.8477 67.7389C98.6934 67.5742 98.4842 67.4817 98.266 67.4815L82.3624 67.4815Z" fill="#FF4D85"/>
</g>
<defs>
<clipPath id="clip0">
<rect width="130" height="80" fill="white"/>
</clipPath>
</defs>
</svg>
