<svg width="130" height="90" viewBox="0 0 130 90" fill="none" xmlns="http://www.w3.org/2000/svg">
<g clip-path="url(#clip0)">
<path opacity="0.5" d="M32.2602 58.9421C24.4002 55.68 15.4133 52.9188 8.06981 57.6065C7.1391 58.2006 6.22201 58.9487 5.72054 60.0617C4.39601 62.9899 6.50136 66.7872 5.47526 69.8824C4.44916 72.9775 0.587315 74.5357 0.903457 77.842C0.986581 78.7062 1.37631 79.4886 1.83553 80.163C4.71216 84.3842 9.98574 84.8114 14.4431 83.7639C18.9004 82.7164 23.2596 80.5443 27.7974 80.8177C32.158 81.0878 36.1697 83.6002 40.1651 85.7149C46.9008 89.2897 54.7676 91.8545 61.4979 88.2618C64.5816 86.6152 67.1312 83.8114 70.0828 81.8538C74.0604 79.2399 78.6326 78.2322 83.1237 78.9796C86.1216 79.487 88.9832 80.7637 91.9171 81.6443C98.5806 83.6428 105.536 83.5773 112.402 83.4987C113.68 83.484 114.979 83.466 116.204 83.0273C118.018 82.3726 119.514 80.8651 120.954 79.3904C122.847 77.4541 124.841 75.3263 125.451 72.4308C126.172 68.9936 124.68 65.3403 122.467 63.0046C120.254 60.6689 117.425 59.3922 114.664 58.1614C113.983 57.8602 113.255 57.5541 112.558 57.7816C112.1 57.9322 111.714 58.2988 111.372 58.6933C109.413 60.9586 107.757 64.7903 105.085 64.1749C104.131 63.9556 103.35 63.1585 102.595 62.4219C98.5642 58.4936 93.1421 55.4607 88.2773 57.631C84.7194 59.2187 82.2079 63.2959 78.6023 64.7347C76.0377 65.7593 73.251 65.3157 70.5529 65.5154C66.6284 65.8035 62.8088 67.4697 58.8788 67.3682C48.8576 67.1096 40.5085 55.5998 30.5282 56.6964C29.746 56.7816 28.893 56.9976 28.4133 57.7407" fill="#FF4D85"/>
<path d="M19.6226 47.9937C19.6226 47.9937 11.2953 54.0317 26.6514 63.3319C26.6514 63.3319 30.0349 55.7864 26.2943 49.6337C25.5684 48.4349 24.5017 47.5975 23.2962 47.2802C22.0907 46.9628 20.8302 47.1876 19.7535 47.9118L19.6226 47.9937Z" fill="#FF4D85"/>
<path d="M19.7221 47.8677C19.7221 47.8677 26.8517 54.4148 26.6527 63.3271" stroke="#535461" stroke-miterlimit="10"/>
<path d="M124.979 42.9639C126.666 50.3736 119.469 71.4831 119.469 71.4831C119.469 71.4831 104.327 57.7129 102.639 50.3032C102.197 48.5266 102.055 46.6619 102.222 44.8187C102.389 42.9755 102.861 41.1909 103.61 39.5698C104.36 37.9488 105.371 36.524 106.585 35.3791C107.799 34.2342 109.192 33.3924 110.681 32.9032C112.17 32.4139 113.725 32.287 115.255 32.5299C116.785 32.7729 118.26 33.3808 119.592 34.318C120.924 35.2551 122.086 36.5026 123.011 37.987C123.936 39.4715 124.604 41.163 124.977 42.9622L124.979 42.9639Z" fill="#FF4D85"/>
<path opacity="0.1" d="M124.979 42.9639C126.666 50.3736 119.469 71.4831 119.469 71.4831C119.469 71.4831 104.327 57.7129 102.639 50.3032C102.197 48.5266 102.055 46.6619 102.222 44.8187C102.389 42.9755 102.861 41.1909 103.61 39.5698C104.36 37.9488 105.371 36.524 106.585 35.3791C107.799 34.2342 109.192 33.3924 110.681 32.9032C112.17 32.4139 113.725 32.287 115.255 32.5299C116.785 32.7729 118.26 33.3808 119.592 34.318C120.924 35.2551 122.086 36.5026 123.011 37.987C123.936 39.4715 124.604 41.163 124.977 42.9622L124.979 42.9639Z" fill="black"/>
<path d="M110.815 33.2594C110.815 33.2594 120.24 50.3507 119.536 71.5241" stroke="#535461" stroke-miterlimit="10"/>
<path d="M127.384 56.5066C127.384 56.5066 118.837 50.9219 119.919 71.5372C119.919 71.5372 127.048 71.2311 129.579 64.2453C130.074 62.8867 130.136 61.3572 129.755 59.9468C129.373 58.5364 128.574 57.3432 127.509 56.5934L127.384 56.5066Z" fill="#FF4D85"/>
<path d="M127.524 56.5426C127.524 56.5426 126.42 67.2438 119.919 71.5371" stroke="#535461" stroke-miterlimit="10"/>
<path d="M2.25654 54.2085C2.25654 54.2085 -6.07491 60.245 9.28253 69.5402C9.28253 69.5402 12.6661 61.9947 8.92551 55.842C8.19962 54.6432 7.1329 53.8059 5.92741 53.4885C4.72193 53.1712 3.46141 53.3959 2.38463 54.1201L2.25654 54.2085Z" fill="#FF4D85"/>
<path d="M2.35199 54.0825C2.35199 54.0825 9.48155 60.6296 9.2826 69.5419" stroke="#535461" stroke-miterlimit="10"/>
<path d="M106.212 62.0667H97.4564C97.6579 61.5801 97.7624 61.0438 97.7616 60.5003V12.6147C97.7616 11.6809 97.4528 10.7854 96.9031 10.1252C96.3534 9.46489 95.6079 9.09396 94.8305 9.09396H27.0602C26.2828 9.09396 25.5372 9.46489 24.9875 10.1252C24.4379 10.7854 24.129 11.6809 24.129 12.6147V60.502C24.1283 61.0455 24.2328 61.5817 24.4343 62.0684H15.3697C15.2675 62.0684 15.1664 62.0926 15.072 62.1397C14.9777 62.1868 14.892 62.2559 14.82 62.3429C14.7479 62.4299 14.6909 62.5331 14.6522 62.6467C14.6135 62.7602 14.5938 62.8819 14.5943 63.0046V63.7559C14.5943 65.1372 15.0512 66.4619 15.8643 67.4387C16.6775 68.4154 17.7804 68.9641 18.9304 68.9641H102.651C103.801 68.9641 104.904 68.4154 105.717 67.4387C106.53 66.4619 106.987 65.1372 106.987 63.7559V63.0046C106.988 62.8817 106.968 62.7599 106.93 62.6462C106.891 62.5324 106.834 62.429 106.762 62.3418C106.69 62.2546 106.604 62.1854 106.51 62.1382C106.415 62.091 106.314 62.0667 106.212 62.0667ZM52.2644 65.0457L51.5094 64.0227H70.1482L69.317 65.0473L52.2644 65.0457Z" fill="url(#paint0_linear)"/>
<path d="M93.7554 9.77158H28.1285C26.378 9.77158 24.9589 11.4761 24.9589 13.5787V59.6492C24.9589 61.7518 26.378 63.4564 28.1285 63.4564H93.7554C95.5059 63.4564 96.925 61.7518 96.925 59.6492V13.5787C96.925 11.4761 95.5059 9.77158 93.7554 9.77158Z" fill="#535461"/>
<path d="M95.2584 17.597H26.4742V61.4545H95.2584V17.597Z" fill="white"/>
<path d="M60.867 14.5035C61.2019 14.5035 61.4734 14.1774 61.4734 13.7752C61.4734 13.3729 61.2019 13.0468 60.867 13.0468C60.5321 13.0468 60.2606 13.3729 60.2606 13.7752C60.2606 14.1774 60.5321 14.5035 60.867 14.5035Z" fill="white"/>
<path d="M71.4864 61.5446L69.1235 64.4564H52.4633L50.328 61.5446H16.3985C16.1976 61.5446 16.0049 61.6404 15.8628 61.8111C15.7207 61.9818 15.6409 62.2132 15.6409 62.4546V63.1879C15.6409 64.5379 16.0874 65.8327 16.8821 66.7873C17.6769 67.742 18.7549 68.2783 19.8788 68.2783H101.702C102.259 68.2783 102.81 68.1466 103.324 67.8908C103.838 67.635 104.306 67.26 104.699 66.7873C105.093 66.3146 105.405 65.7535 105.618 65.1359C105.831 64.5183 105.94 63.8564 105.94 63.1879V62.4546C105.94 62.2132 105.861 61.9818 105.719 61.8111C105.576 61.6404 105.384 61.5446 105.183 61.5446H71.4864Z" fill="#535461"/>
<path d="M35.2622 20.3272V57.6327H86.6217" stroke="#535461" stroke-width="2" stroke-miterlimit="10"/>
<path opacity="0.5" d="M45.1089 46.3503H39.8067V56.1776H45.1089V46.3503Z" fill="#FF4D85"/>
<path opacity="0.7" d="M54.1994 37.6149H48.8972V56.1776H54.1994V37.6149Z" fill="#FF4D85"/>
<path opacity="0.5" d="M63.2898 42.8918H57.9876V56.176H63.2898V42.8918Z" fill="#FF4D85"/>
<path opacity="0.8" d="M72.3803 34.703H67.0781V56.1776H72.3803V34.703Z" fill="#FF4D85"/>
<path d="M81.4708 27.0593H76.1686V56.1759H81.4708V27.0593Z" fill="#FF4D85"/>
<path d="M42.3822 40.345L51.6239 30.3361L60.7144 39.7983L69.6536 28.3343L78.744 23.7841" stroke="#535461" stroke-width="2" stroke-miterlimit="10"/>
<path d="M42.3822 41.6184C42.9677 41.6184 43.4423 41.0482 43.4423 40.3449C43.4423 39.6417 42.9677 39.0715 42.3822 39.0715C41.7967 39.0715 41.322 39.6417 41.322 40.3449C41.322 41.0482 41.7967 41.6184 42.3822 41.6184Z" fill="#FF4D85"/>
<path d="M60.5631 40.89C61.1486 40.89 61.6232 40.3199 61.6232 39.6166C61.6232 38.9133 61.1486 38.3432 60.5631 38.3432C59.9776 38.3432 59.5029 38.9133 59.5029 39.6166C59.5029 40.3199 59.9776 40.89 60.5631 40.89Z" fill="#FF4D85"/>
<path d="M69.8049 29.6077C70.3904 29.6077 70.8651 29.0376 70.8651 28.3343C70.8651 27.631 70.3904 27.0609 69.8049 27.0609C69.2193 27.0609 68.7447 27.631 68.7447 28.3343C68.7447 29.0376 69.2193 29.6077 69.8049 29.6077Z" fill="#FF4D85"/>
<path d="M51.6239 31.4262C52.2094 31.4262 52.6841 30.856 52.6841 30.1527C52.6841 29.4495 52.2094 28.8793 51.6239 28.8793C51.0384 28.8793 50.5637 29.4495 50.5637 30.1527C50.5637 30.856 51.0384 31.4262 51.6239 31.4262Z" fill="#FF4D85"/>
<path d="M78.744 25.0575C79.3295 25.0575 79.8042 24.4874 79.8042 23.7841C79.8042 23.0808 79.3295 22.5107 78.744 22.5107C78.1585 22.5107 77.6839 23.0808 77.6839 23.7841C77.6839 24.4874 78.1585 25.0575 78.744 25.0575Z" fill="#FF4D85"/>
<path d="M118.187 63.1384C117.628 62.9175 116.8 62.6621 116.143 62.7522C115.517 62.4788 114.047 61.7701 113.043 60.7029C113.072 59.6536 113.049 58.6032 112.976 57.557C112.462 50.5401 113.618 45.9146 113.618 45.9146C113.618 45.9146 114.525 42.3857 114.426 39.4575C114.484 39.5901 114.517 39.6686 114.517 39.6686C114.596 37.1431 115.313 34.5292 115.85 32.9006C115.87 32.8935 115.89 32.8848 115.91 32.8744L116.509 31.1656C116.557 31.0659 116.595 30.9599 116.623 30.8497L116.719 30.5796L116.691 30.5649C116.7 30.5207 116.71 30.4732 116.719 30.4257C117.102 28.4796 117.401 23.8639 117.401 23.8639C118.428 19.0059 115.989 16.0073 115.989 16.0073L111.849 11.7288C111.87 11.7845 111.883 11.8435 111.89 11.9039L111.856 11.8679C111.797 11.6666 111.733 11.426 111.671 11.151C111.817 11.0251 111.953 10.8844 112.079 10.7304C112.55 10.1964 112.874 9.50261 113.007 8.74168C113.088 8.14663 113.108 7.54216 113.069 6.94122L113.001 4.87724C112.997 4.4733 112.963 4.07058 112.898 3.67421C112.586 2.03743 111.19 0.891684 109.787 0.816392C109.341 0.813271 108.895 0.841692 108.452 0.901505C108.089 0.937283 107.725 0.946575 107.362 0.92933C107.32 0.931964 107.279 0.918786 107.245 0.891685C107.213 0.853878 107.195 0.802811 107.194 0.749283C107.187 0.653488 107.196 0.556946 107.221 0.465507C107.246 0.374067 107.286 0.289634 107.339 0.21733C107.393 0.159546 107.457 0.115576 107.527 0.0880252L107.427 0.11585C107.476 0.0693971 107.531 0.0334109 107.591 0.00946045C107.227 0.0862219 106.878 0.238542 106.558 0.459575C106.47 0.529131 106.389 0.610995 106.317 0.703454C106.126 0.904276 106.002 1.1809 105.968 1.48256C105.797 1.30942 105.67 1.08278 105.6 0.827851C105.578 0.723609 105.578 0.614556 105.6 0.510315C105.575 0.546324 105.552 0.583423 105.529 0.621615C105.529 0.610157 105.529 0.598701 105.529 0.587244C105.266 0.97605 105.079 1.43162 104.984 1.91958C104.947 1.86674 104.92 1.80567 104.903 1.73992C104.886 1.67416 104.88 1.60504 104.886 1.53658C104.865 1.61351 104.846 1.69043 104.829 1.76736C104.822 1.71634 104.822 1.66452 104.829 1.6135C104.668 2.20359 104.596 2.82308 104.615 3.44342C104.615 4.06213 104.843 5.02619 105.395 5.24388C105.424 5.25534 105.453 5.26352 105.483 5.27171C105.172 5.85083 104.986 6.51341 104.942 7.20005C104.897 7.88669 104.995 8.57593 105.226 9.20598C105.458 9.83603 105.816 10.3872 106.269 10.8101C106.721 11.233 107.254 11.5143 107.82 11.629C107.829 11.7043 107.837 11.7834 107.845 11.8663H107.867C107.882 12.03 107.895 12.21 107.903 12.3933C107.763 12.5572 107.611 12.7042 107.448 12.832C106.984 13.161 106.467 13.3664 105.932 13.4343C105.293 13.4946 104.672 13.7178 104.11 14.089C103.449 14.5326 102.72 15.1791 102.492 15.9648C102.11 17.2742 100.009 19.312 98.5997 19.5657L98.0982 19.5313L98.0614 19.5182V19.5297L97.9388 19.5215H97.932H97.8993V19.5297L97.7725 19.5215C97.7725 19.5215 97.7603 19.5919 97.7426 19.7163C97.034 19.4233 95.5282 18.6115 93.5687 16.4755C91.3884 14.0972 88.4382 14.5653 87.3003 14.8649C87.2616 14.8751 87.2264 14.8993 87.1995 14.9342C87.1725 14.9691 87.155 15.0131 87.1494 15.0602C87.1438 15.1073 87.1503 15.1554 87.168 15.198C87.1857 15.2406 87.2138 15.2757 87.2485 15.2986C87.7078 15.6014 88.4191 16.0417 88.7475 16.0908C88.7475 16.0908 88.0661 16.9469 88.7911 17.4002C88.8781 17.4508 88.9749 17.4715 89.0711 17.4603C89.1672 17.449 89.259 17.4062 89.3362 17.3364C89.6877 17.0271 90.6648 17.7276 92.0806 18.0926C92.0806 18.0926 96.076 23.0586 98.0601 23.8213C98.1058 23.9298 98.1563 24.0352 98.2113 24.1372L98.334 24.1258V24.1372H98.3857L98.4007 24.3009C98.4007 24.3009 101.486 24.1061 102.489 22.7607C102.56 22.6843 102.625 22.6005 102.684 22.5103L101.611 38.7144H101.621L101.611 38.8683H102.4C102.468 40.8612 102.396 42.8574 102.186 44.836V55.3997C102.186 55.3997 102.145 56.3294 103.753 57.6912C105.439 59.1011 107.064 60.6138 108.621 62.2235L108.816 62.4264C108.52 65.6591 107.901 71.6841 107.385 71.9083L107.704 71.9754C107.159 72.8053 105.611 75.0853 105.139 75.1459C104.561 75.2228 104.176 76.3031 105.139 76.5338C107.063 76.9338 109.041 76.6996 110.862 75.8562C111.044 75.7701 111.197 75.6134 111.295 75.411C111.394 75.2087 111.434 74.9724 111.408 74.7399L111.221 73.0377C111.256 73.0613 111.285 73.0972 111.303 73.1408C111.431 73.604 111.303 72.5237 111.303 72.5237C111.831 70.4857 112.245 68.4079 112.544 66.304L114.452 68.2845C114.452 68.2845 114.49 68.2272 114.557 68.1208C115.024 69.3942 115.858 72 115.671 73.9084C115.415 76.5273 117.852 74.2162 117.597 72.6743C117.39 71.4271 118.316 66.1403 118.677 64.1631C118.716 63.9496 118.688 63.7264 118.597 63.5369C118.506 63.3475 118.36 63.2054 118.187 63.1384Z" fill="url(#paint1_linear)"/>
<path d="M98.2494 20.3648C98.2494 20.3648 96.4316 19.9884 93.7363 17.052C91.6037 14.7294 88.727 15.186 87.6178 15.479C87.58 15.4888 87.5456 15.5123 87.5193 15.5463C87.4929 15.5803 87.4758 15.6231 87.4703 15.6691C87.4648 15.7151 87.4712 15.762 87.4885 15.8035C87.5059 15.845 87.5334 15.8791 87.5674 15.9013C88.0157 16.1959 88.7107 16.6264 89.0364 16.6755C89.0364 16.6755 88.3646 17.5103 89.0786 17.9571C89.1641 18.0076 89.2596 18.0284 89.3544 18.0175C89.4492 18.0065 89.5396 17.964 89.6155 17.8949C89.9589 17.5937 90.9128 18.2779 92.2959 18.6331C92.2959 18.6331 97.6867 25.3341 98.9403 24.1982L98.2494 20.3648Z" fill="#FEC3BE"/>
<path d="M107.531 11.2545C107.531 11.2545 108.032 13.8144 107.531 15.6214L109.787 15.9979L111.793 14.7932V13.2121C111.793 13.2121 110.853 10.8027 111.104 8.01694L107.531 11.2545Z" fill="#FEC3BE"/>
<path d="M113.92 66.7414C113.92 66.7414 115.556 70.5813 115.299 73.1412C115.043 75.7011 117.431 73.4424 117.18 71.9365C116.977 70.7188 117.882 65.5531 118.235 63.6315C118.273 63.4239 118.245 63.2065 118.158 63.0217C118.07 62.8369 117.929 62.6978 117.76 62.6314C117.007 62.3335 115.745 61.9685 115.111 62.5267C114.175 63.3533 113.92 66.7414 113.92 66.7414Z" fill="#8B416F"/>
<path d="M107.719 70.9577C107.719 70.9577 105.588 74.2705 105.023 74.3458C104.459 74.4211 104.083 75.4752 105.023 75.7011C106.901 76.0935 108.832 75.8673 110.61 75.0463C110.788 74.9629 110.938 74.8102 111.035 74.6125C111.132 74.4148 111.171 74.1837 111.146 73.9562L110.786 70.7318L107.719 70.9577Z" fill="#8B416F"/>
<path d="M104.208 35.798L102.164 36.1254C102.445 38.993 102.437 41.8909 102.14 44.7561V55.0679C102.14 55.0679 102.1 55.9763 103.67 57.2972C105.316 58.6718 106.903 60.1468 108.423 61.7165L114.111 67.6351C114.111 67.6351 116.368 64.3222 116.054 62.3646C116.054 62.3646 112.293 60.9341 111.792 58.6C111.504 57.2644 110.046 56.1449 108.853 55.441C108.102 55.0033 107.499 54.2704 107.143 53.3641C106.788 52.4578 106.701 51.4325 106.897 50.4587C106.967 50.1203 107.074 49.7948 107.217 49.4913C108.22 47.3832 109.662 42.6398 109.662 42.6398L106.904 36.3251L104.208 35.798Z" fill="#4D4981"/>
<path opacity="0.05" d="M104.208 35.798L102.164 36.1254C102.445 38.993 102.437 41.8909 102.14 44.7561V55.0679C102.14 55.0679 102.1 55.9763 103.67 57.2972C105.316 58.6718 106.903 60.1468 108.423 61.7165L114.111 67.6351C114.111 67.6351 116.368 64.3222 116.054 62.3646C116.054 62.3646 112.293 60.9341 111.792 58.6C111.504 57.2644 110.046 56.1449 108.853 55.441C108.102 55.0033 107.499 54.2704 107.143 53.3641C106.788 52.4578 106.701 51.4325 106.897 50.4587C106.967 50.1203 107.074 49.7948 107.217 49.4913C108.22 47.3832 109.662 42.6398 109.662 42.6398L106.904 36.3251L104.208 35.798Z" fill="black"/>
<path d="M107.217 71.1885C107.217 71.1885 110.916 71.9414 111.041 72.3932C111.166 72.8449 111.041 71.7908 111.041 71.7908C111.041 71.7908 113.172 64.0358 112.676 57.1858C112.18 50.3359 113.303 45.8167 113.303 45.8167C113.303 45.8167 114.619 40.6969 113.867 37.7605C113.115 34.8241 105.217 36.1041 105.217 36.1041C105.217 36.1041 107.975 43.8591 107.912 47.5485C107.912 47.5485 108.226 58.6917 108.79 59.9716C108.784 59.9651 107.907 70.8824 107.217 71.1885Z" fill="#4D4981"/>
<path d="M107.652 13.2121C107.652 13.2121 108.028 15.9946 111.789 14.7932L109.287 37.6803C109.287 37.6803 102.016 37.9815 102.079 36.9274L103.578 23.0753L107.652 13.2121Z" fill="white"/>
<path opacity="0.1" d="M107.75 13.0615C107.26 13.6407 106.622 14.0045 105.939 14.0943C105.315 14.1518 104.708 14.3683 104.159 14.7294C103.515 15.1631 102.797 15.7933 102.579 16.561C102.14 18.0668 99.3819 20.5514 98.1282 20.0244L98.567 24.5419C98.567 24.5419 102.14 24.316 102.767 22.6596L101.703 38.7803H102.643C102.643 38.7803 103.144 34.4133 103.52 33.5098C103.896 32.6063 104.649 27.6371 104.711 26.4324C104.774 25.2277 105.714 18.3009 106.529 17.1027L107.756 13.5264L107.75 13.0615Z" fill="black"/>
<path opacity="0.1" d="M107.75 13.2874C107.19 13.8137 106.52 14.145 105.814 14.2449C105.19 14.3036 104.584 14.5212 104.035 14.8832C103.391 15.317 102.673 15.9472 102.455 16.7148C102.016 18.2206 99.2579 20.7053 98.0042 20.1782L98.443 24.6957C98.443 24.6957 102.016 24.4699 102.643 22.8134L101.577 38.9243H102.517C102.517 38.9243 103.019 34.5573 103.395 33.6538C103.771 32.7503 104.523 27.7811 104.586 26.5764C104.649 25.3717 105.589 18.4449 106.404 17.2468L107.75 13.7375V13.2874Z" fill="black"/>
<path d="M107.75 13.1368C107.19 13.6631 106.52 13.9943 105.814 14.0943C105.19 14.1517 104.583 14.3682 104.034 14.7294C103.39 15.1631 102.671 15.7933 102.453 16.5609C102.015 18.0668 99.2565 20.5514 98.0028 20.0244L98.4416 24.5419C98.4416 24.5419 102.015 24.316 102.641 22.6596L101.577 38.7802H102.517C102.517 38.7802 103.019 34.4133 103.395 33.5098C103.771 32.6063 104.523 27.637 104.586 26.4323C104.649 25.2277 105.589 18.3008 106.404 17.1027L107.751 13.6016L107.75 13.1368Z" fill="#FD6F8D"/>
<path opacity="0.1" d="M110.947 10.2381C110.865 9.52443 111.029 9.07922 111.104 8.24283L107.531 11.4804C107.531 11.4804 107.617 11.9174 107.682 12.5574C107.862 12.5924 108.044 12.6099 108.227 12.6098C109.467 12.6098 110.36 11.446 110.947 10.2381Z" fill="black"/>
<path d="M108.22 12.3855C110.09 12.3855 111.605 10.5652 111.605 8.31976C111.605 6.0743 110.09 4.254 108.22 4.254C106.351 4.254 104.835 6.0743 104.835 8.31976C104.835 10.5652 106.351 12.3855 108.22 12.3855Z" fill="#FEC3BE"/>
<path opacity="0.1" d="M104.526 4.33421C104.504 3.64856 104.597 2.96461 104.799 2.3226C104.743 2.42361 104.719 2.54556 104.732 2.6659C104.745 2.78625 104.794 2.89686 104.869 2.97732C104.979 2.27761 105.278 1.64103 105.72 1.16704C105.479 1.2145 105.355 1.57296 105.414 1.85776C105.496 2.13594 105.641 2.38097 105.833 2.56485C105.812 2.13438 106.049 1.73173 106.349 1.49603C106.662 1.28053 107.003 1.13208 107.358 1.05737C107.236 1.10924 107.132 1.20803 107.062 1.33831C106.992 1.46858 106.96 1.62303 106.971 1.77756C106.972 1.83005 106.99 1.87998 107.021 1.91668C107.055 1.94285 107.095 1.95545 107.136 1.95269C107.489 1.96904 107.842 1.95974 108.194 1.92487C108.627 1.86634 109.063 1.83846 109.498 1.84139C110.861 1.91014 112.231 3.02806 112.536 4.62392C112.599 5.01113 112.632 5.40454 112.635 5.79913L112.702 7.814C112.741 8.40183 112.721 8.99312 112.642 9.57518C112.548 10.1125 112.356 10.6182 112.08 11.0562C111.804 11.4942 111.451 11.8536 111.046 12.1089C110.555 11.2529 110.511 10.153 110.341 9.13325C110.314 8.89793 110.241 8.67358 110.128 8.47853C110.07 8.38209 109.988 8.30981 109.894 8.27168C109.8 8.23356 109.698 8.23149 109.603 8.26576C109.419 8.35414 109.34 8.69132 109.493 8.8419C109.357 9.03504 109.102 8.891 108.948 8.71914C108.518 8.22915 108.222 7.59389 108.099 6.89741C108.038 6.54714 107.976 6.11502 107.69 5.99554C107.592 5.96304 107.489 5.9547 107.388 5.97099C106.791 6.02009 105.857 6.31635 105.28 6.08884C104.749 5.88097 104.526 4.93818 104.526 4.33421Z" fill="black"/>
<path d="M104.589 4.25892C104.567 3.57327 104.66 2.88932 104.861 2.24732C104.805 2.34833 104.782 2.47027 104.795 2.59061C104.808 2.71096 104.856 2.82157 104.932 2.90203C105.041 2.20232 105.34 1.56574 105.782 1.09175C105.541 1.13922 105.417 1.49767 105.477 1.78247C105.559 2.06065 105.704 2.30568 105.895 2.48956C105.875 2.05909 106.112 1.65644 106.412 1.42074C106.724 1.20524 107.066 1.0568 107.42 0.982086C107.299 1.03396 107.195 1.13274 107.125 1.26302C107.055 1.3933 107.023 1.54775 107.033 1.70227C107.034 1.75477 107.052 1.80469 107.084 1.8414C107.118 1.86756 107.158 1.88016 107.198 1.8774C107.551 1.89375 107.905 1.88446 108.257 1.84958C108.69 1.79105 109.125 1.76317 109.561 1.7661C110.924 1.83485 112.293 2.95277 112.599 4.54863C112.662 4.93584 112.695 5.32925 112.698 5.72384L112.765 7.73871C112.804 8.32654 112.783 8.91783 112.705 9.49989C112.61 10.0372 112.418 10.5429 112.143 10.9809C111.867 11.4189 111.514 11.7783 111.109 12.0336C110.617 11.1776 110.574 10.0777 110.403 9.05796C110.376 8.82264 110.304 8.59829 110.191 8.40325C110.132 8.3068 110.051 8.23451 109.957 8.19639C109.863 8.15827 109.761 8.1562 109.666 8.19046C109.482 8.27885 109.403 8.61603 109.556 8.76661C109.419 8.95975 109.165 8.81571 109.011 8.64385C108.581 8.15386 108.285 7.5186 108.162 6.82212C108.1 6.47184 108.039 6.03974 107.753 5.92025C107.654 5.88776 107.552 5.8794 107.45 5.8957C106.853 5.9448 105.92 6.24106 105.342 6.01355C104.812 5.80404 104.589 4.86289 104.589 4.25892Z" fill="#784F69"/>
<path opacity="0.1" d="M97.8407 20.026C97.8407 20.026 97.3392 22.8086 98.2794 24.5435L98.8122 24.4912L98.522 20.0719L97.8407 20.026Z" fill="black"/>
<path d="M97.9769 20.026C97.9769 20.026 97.4755 22.8086 98.4157 24.5435L98.9485 24.4912L98.6583 20.0719L97.9769 20.026Z" fill="#FD6F8D"/>
<path opacity="0.1" d="M111.448 12.4281L115.491 16.6068C115.491 16.6068 117.873 19.5432 116.871 24.2865C116.871 24.2865 116.432 31.2134 115.93 31.5146C115.93 31.5146 114.175 35.7309 114.05 39.7214C114.05 39.7214 111.699 34.0368 110.634 37.5003C109.568 40.9637 107.091 41.4531 107.091 41.4531L108.47 20.9672C108.47 20.9672 111.95 13.7015 111.448 12.4281Z" fill="black"/>
<path d="M111.574 12.4281L115.617 16.6068C115.617 16.6068 117.999 19.5432 116.996 24.2865C116.996 24.2865 116.557 31.2134 116.056 31.5146C116.056 31.5146 114.3 35.7309 114.175 39.7214C114.175 39.7214 111.699 33.7357 110.632 37.1991C109.565 40.6625 107.216 41.4547 107.216 41.4547L108.595 20.977C108.595 20.977 112.075 13.7015 111.574 12.4281Z" fill="#FD6F8D"/>
<path d="M113.423 30.0775C113.423 30.0775 114.426 29.2493 116.056 31.5081L112.044 40.2419L110.696 37.7982C110.696 37.7982 113.548 31.0563 113.423 30.0775Z" fill="#FEC3BE"/>
<path opacity="0.1" d="M112.451 30.5669C112.451 30.5669 114.67 33.5589 115.535 33.0793L116.336 30.8386L113.329 29.2869L112.451 30.5669Z" fill="black"/>
<path d="M112.451 30.4163C112.451 30.4163 114.67 33.4084 115.535 32.9288L116.336 30.688L113.329 29.1364L112.451 30.4163Z" fill="#FD6F8D"/>
<path opacity="0.1" d="M110.832 37.2269C110.832 37.2269 111.889 39.8261 112.451 39.9767L111.634 41.1061L110.443 38.3956L110.832 37.2269Z" fill="black"/>
<path d="M110.77 37.3071C110.77 37.3071 111.826 39.9063 112.389 40.0569L111.571 41.1863L110.377 38.4709L110.77 37.3071Z" fill="#4D4981"/>
<path opacity="0.1" d="M112.765 21.2307C112.765 21.2307 112.89 26.6517 112.389 28.6846L112.765 21.2307Z" fill="black"/>
<path opacity="0.1" d="M102.61 22.2848C102.61 22.2848 103.362 21.9836 103.362 21.2307L102.61 22.2848Z" fill="black"/>
<path d="M11.268 23.1916C11.268 23.1916 7.69507 32.0695 10.0416 42.5759C12.3882 53.0824 11.6428 65.6546 9.30304 68.7644" stroke="#535461" stroke-width="2" stroke-miterlimit="10"/>
<path d="M11.268 24.3766C11.8122 24.3766 12.2533 23.8468 12.2533 23.1932C12.2533 22.5396 11.8122 22.0098 11.268 22.0098C10.7239 22.0098 10.2828 22.5396 10.2828 23.1932C10.2828 23.8468 10.7239 24.3766 11.268 24.3766Z" fill="#FF4D85"/>
<path d="M9.7827 28.9023C9.7827 28.9023 13.4865 29.7043 14.4717 28.0839" stroke="#535461" stroke-width="2" stroke-miterlimit="10"/>
<path d="M9.43113 31.4802C9.43113 31.4802 7.20315 28.5193 7.32579 26.7433" stroke="#535461" stroke-width="2" stroke-miterlimit="10"/>
<path d="M9.24171 36.9045C9.24171 36.9045 11.268 37.5461 13.1172 32.8126" stroke="#535461" stroke-width="2" stroke-miterlimit="10"/>
<path d="M9.7827 40.8491C9.7827 40.8491 4.74078 36.952 5.35535 34.4379" stroke="#535461" stroke-width="2" stroke-miterlimit="10"/>
<path d="M10.5703 45.3093C10.5703 45.3093 14.1024 41.5447 13.7331 37.8407" stroke="#535461" stroke-width="2" stroke-miterlimit="10"/>
<path d="M10.9546 47.9314C10.9546 47.9314 6.45776 46.4223 6.59402 44.0555" stroke="#535461" stroke-width="2" stroke-miterlimit="10"/>
<path d="M11.268 51.0561C11.268 51.0561 14.1011 47.9036 14.4703 45.9821" stroke="#535461" stroke-width="2" stroke-miterlimit="10"/>
<path d="M11.4656 56.4165C11.4656 56.4165 8.55902 52.341 8.43501 50.2704" stroke="#535461" stroke-width="2" stroke-miterlimit="10"/>
<path d="M11.4656 59.79C11.4656 59.79 14.7183 55.4492 14.9636 53.3787" stroke="#535461" stroke-width="2" stroke-miterlimit="10"/>
<path d="M7.32578 28.223C7.86991 28.223 8.31101 27.6932 8.31101 27.0396C8.31101 26.3861 7.86991 25.8562 7.32578 25.8562C6.78166 25.8562 6.34056 26.3861 6.34056 27.0396C6.34056 27.6932 6.78166 28.223 7.32578 28.223Z" fill="#FF4D85"/>
<path d="M6.21793 45.239C6.76205 45.239 7.20315 44.7092 7.20315 44.0556C7.20315 43.402 6.76205 42.8722 6.21793 42.8722C5.67381 42.8722 5.23271 43.402 5.23271 44.0556C5.23271 44.7092 5.67381 45.239 6.21793 45.239Z" fill="#FF4D85"/>
<path d="M5.35535 35.6212C5.89947 35.6212 6.34057 35.0914 6.34057 34.4378C6.34057 33.7843 5.89947 33.2545 5.35535 33.2545C4.81123 33.2545 4.37013 33.7843 4.37013 34.4378C4.37013 35.0914 4.81123 35.6212 5.35535 35.6212Z" fill="#FF4D85"/>
<path d="M14.4717 29.2591C15.0158 29.2591 15.4569 28.7293 15.4569 28.0757C15.4569 27.4222 15.0158 26.8923 14.4717 26.8923C13.9276 26.8923 13.4865 27.4222 13.4865 28.0757C13.4865 28.7293 13.9276 29.2591 14.4717 29.2591Z" fill="#FF4D85"/>
<path d="M14.4717 47.4584C15.0158 47.4584 15.4569 46.9286 15.4569 46.275C15.4569 45.6214 15.0158 45.0916 14.4717 45.0916C13.9276 45.0916 13.4865 45.6214 13.4865 46.275C13.4865 46.9286 13.9276 47.4584 14.4717 47.4584Z" fill="#FF4D85"/>
<path d="M12.8706 33.9943C13.4147 33.9943 13.8558 33.4645 13.8558 32.8109C13.8558 32.1573 13.4147 31.6275 12.8706 31.6275C12.3264 31.6275 11.8853 32.1573 11.8853 32.8109C11.8853 33.4645 12.3264 33.9943 12.8706 33.9943Z" fill="#FF4D85"/>
<path d="M14.841 55.3019C15.3851 55.3019 15.8262 54.772 15.8262 54.1185C15.8262 53.4649 15.3851 52.9351 14.841 52.9351C14.2969 52.9351 13.8558 53.4649 13.8558 54.1185C13.8558 54.772 14.2969 55.3019 14.841 55.3019Z" fill="#FF4D85"/>
<path d="M8.18836 52.1936C8.73248 52.1936 9.17358 51.6638 9.17358 51.0102C9.17358 50.3567 8.73248 49.8268 8.18836 49.8268C7.64424 49.8268 7.20314 50.3567 7.20314 51.0102C7.20314 51.6638 7.64424 52.1936 8.18836 52.1936Z" fill="#FF4D85"/>
<path d="M13.8558 39.0241C14.3999 39.0241 14.841 38.4943 14.841 37.8407C14.841 37.1871 14.3999 36.6573 13.8558 36.6573C13.3116 36.6573 12.8705 37.1871 12.8705 37.8407C12.8705 38.4943 13.3116 39.0241 13.8558 39.0241Z" fill="#FF4D85"/>
</g>
<defs>
<linearGradient id="paint0_linear" x1="60.7907" y1="68.9576" x2="60.7907" y2="9.09233" gradientUnits="userSpaceOnUse">
<stop stop-color="#808080" stop-opacity="0.25"/>
<stop offset="0.54" stop-color="#808080" stop-opacity="0.12"/>
<stop offset="1" stop-color="#808080" stop-opacity="0.1"/>
</linearGradient>
<linearGradient id="paint1_linear" x1="27795.8" y1="49386.4" x2="27795.8" y2="13430.4" gradientUnits="userSpaceOnUse">
<stop stop-color="#808080" stop-opacity="0.25"/>
<stop offset="0.54" stop-color="#808080" stop-opacity="0.12"/>
<stop offset="1" stop-color="#808080" stop-opacity="0.1"/>
</linearGradient>
<clipPath id="clip0">
<rect width="130" height="90" fill="white"/>
</clipPath>
</defs>
</svg>
