<svg width="234" height="179" viewBox="0 0 234 179" fill="none" xmlns="http://www.w3.org/2000/svg">
<g clip-path="url(#clip0)">
<path d="M44.393 38.4271C51.774 38.4271 57.7574 31.8338 57.7574 23.7005C57.7574 15.5673 51.774 8.974 44.393 8.974C37.0121 8.974 31.0287 15.5673 31.0287 23.7005C31.0287 31.8338 37.0121 38.4271 44.393 38.4271Z" fill="#FF6584"/>
<path d="M109.416 78.953C109.416 113.701 90.6694 125.834 67.5445 125.834C44.4196 125.834 25.6732 113.701 25.6732 78.953C25.6732 44.205 67.5445 0 67.5445 0C67.5445 0 109.416 44.205 109.416 78.953Z" fill="#F2F2F2"/>
<path d="M66.0192 120.518L66.4481 91.4375L84.2945 55.4601L66.5153 86.8755L66.7081 73.7995L79.0079 47.7703L66.759 70.3392L67.1057 46.8214L80.2767 26.0989L67.1604 43.1232L67.3769 0L66.0154 57.0874L66.1273 54.7323L52.7365 32.1462L65.9127 59.2531L64.665 85.5183L64.6278 84.8213L49.1903 61.0527L64.581 87.2841L64.4251 90.5688L64.3971 90.6183L64.4098 90.888L61.2443 157.525H65.4737L65.9812 123.106L81.3339 96.9385L66.0192 120.518Z" fill="#3F3D56"/>
<path d="M234 93.1848C234 121.628 218.655 131.559 199.726 131.559C180.798 131.559 165.453 121.628 165.453 93.1848C165.453 64.7419 199.726 28.558 199.726 28.558C199.726 28.558 234 64.7419 234 93.1848Z" fill="#F2F2F2"/>
<path d="M198.478 127.208L198.829 103.404L213.437 73.9548L198.884 99.6696L199.042 88.9664L209.11 67.6601L199.084 86.1339L199.367 66.8835L210.148 49.9211L199.412 63.8566L199.589 28.558L198.475 75.2866L198.567 73.3591L187.605 54.8711L198.391 77.0596L197.369 98.5589L197.339 97.9883L184.703 78.5325L197.301 100.004L197.173 102.693L197.15 102.733L197.161 102.954L194.569 157.5H198.031L198.447 129.326L211.014 107.907L198.478 127.208Z" fill="#3F3D56"/>
<path d="M115.809 163.03C179.768 163.03 231.618 160.142 231.618 156.58C231.618 153.017 179.768 150.129 115.809 150.129C51.8494 150.129 0 153.017 0 156.58C0 160.142 51.8494 163.03 115.809 163.03Z" fill="#3F3D56"/>
<path d="M186.359 168.342C197.314 168.342 206.194 167.848 206.194 167.237C206.194 166.627 197.314 166.132 186.359 166.132C175.404 166.132 166.523 166.627 166.523 167.237C166.523 167.848 175.404 168.342 186.359 168.342Z" fill="#3F3D56"/>
<path d="M114.583 179C125.537 179 134.418 178.505 134.418 177.895C134.418 177.285 125.537 176.79 114.583 176.79C103.628 176.79 94.7473 177.285 94.7473 177.895C94.7473 178.505 103.628 179 114.583 179Z" fill="#3F3D56"/>
<path d="M60.1281 171.483C85.1557 171.483 105.445 170.353 105.445 168.959C105.445 167.565 85.1557 166.435 60.1281 166.435C35.1004 166.435 14.8115 167.565 14.8115 168.959C14.8115 170.353 35.1004 171.483 60.1281 171.483Z" fill="#3F3D56"/>
<path d="M20.2729 148.478C29.3837 148.478 36.7695 140.339 36.7695 130.3C36.7695 120.26 29.3837 112.122 20.2729 112.122C11.162 112.122 3.77625 120.26 3.77625 130.3C3.77625 140.339 11.162 148.478 20.2729 148.478Z" fill="#2F2E41"/>
<path d="M17.6147 144.533L12.6034 144.468L12.4976 154.361L17.5089 154.426L17.6147 144.533Z" fill="#2F2E41"/>
<path d="M27.6373 144.663L22.626 144.598L22.5202 154.491L27.5315 154.556L27.6373 144.663Z" fill="#2F2E41"/>
<path d="M20.8485 154.585C20.8587 153.632 18.9973 152.835 16.6909 152.805C14.3845 152.775 12.5065 153.523 12.4964 154.476C12.4862 155.429 14.3476 156.226 16.654 156.256C18.9604 156.286 20.8383 155.538 20.8485 154.585Z" fill="#2F2E41"/>
<path d="M30.8735 154.485C30.8837 153.532 29.0223 152.735 26.7159 152.705C24.4095 152.675 22.5316 153.423 22.5214 154.376C22.5112 155.329 24.3726 156.126 26.679 156.156C28.9854 156.186 30.8633 155.438 30.8735 154.485Z" fill="#2F2E41"/>
<path d="M20.7397 131.916C23.8535 131.916 26.3777 129.135 26.3777 125.703C26.3777 122.272 23.8535 119.491 20.7397 119.491C17.6258 119.491 15.1016 122.272 15.1016 125.703C15.1016 129.135 17.6258 131.916 20.7397 131.916Z" fill="white"/>
<path d="M20.7397 127.774C21.7777 127.774 22.6191 126.847 22.6191 125.703C22.6191 124.56 21.7777 123.633 20.7397 123.633C19.7018 123.633 18.8604 124.56 18.8604 125.703C18.8604 126.847 19.7018 127.774 20.7397 127.774Z" fill="#3F3D56"/>
<path d="M4.45246 113.188C3.19081 106.598 7.51949 100.011 14.1208 98.4769C20.7222 96.9423 27.0964 101.041 28.3581 107.631C29.6197 114.221 25.2303 116.589 18.629 118.124C12.0276 119.658 5.71411 119.778 4.45246 113.188Z" fill="#FFB6C1"/>
<path d="M45.4372 140.441C45.4372 153.114 38.6006 157.539 30.1664 157.539C29.971 157.539 29.7759 157.537 29.5812 157.532C29.1904 157.523 28.8033 157.502 28.4209 157.473C20.8092 156.88 14.8955 152.227 14.8955 140.441C14.8955 128.244 29.0406 112.853 30.1031 111.714L30.105 111.711C30.1459 111.667 30.1664 111.646 30.1664 111.646C30.1664 111.646 45.4372 127.768 45.4372 140.441Z" fill="#FFB6C1"/>
<path d="M29.61 155.6L35.1952 147L29.596 156.544L29.5812 157.532C29.1904 157.523 28.8033 157.502 28.4209 157.473L29.0229 144.794L29.0182 144.696L29.0285 144.677L29.0852 143.48L23.472 133.912L29.1029 142.582L29.1159 142.836L29.5709 133.256L24.7653 123.37L29.6295 131.575L30.1031 111.714L30.105 111.646V111.711L30.0259 127.373L34.8101 121.164L30.0063 128.722L29.8798 137.3L34.3467 129.068L29.8612 138.562L29.7905 143.33L36.2755 131.873L29.7663 144.994L29.61 155.6Z" fill="#3F3D56"/>
<path d="M148.78 148.281C157.891 148.281 165.276 140.143 165.276 130.103C165.276 120.064 157.891 111.925 148.78 111.925C139.669 111.925 132.283 120.064 132.283 130.103C132.283 140.143 139.669 148.281 148.78 148.281Z" fill="#2F2E41"/>
<path d="M150.188 144.551L145.397 146.174L148.035 155.631L152.826 154.009L150.188 144.551Z" fill="#2F2E41"/>
<path d="M159.769 141.308L154.978 142.93L157.616 152.388L162.406 150.766L159.769 141.308Z" fill="#2F2E41"/>
<path d="M152.518 156.039C154.723 155.292 156.304 153.949 156.05 153.037C155.796 152.126 153.803 151.993 151.598 152.74C149.393 153.486 147.812 154.83 148.066 155.741C148.32 156.652 150.313 156.786 152.518 156.039Z" fill="#2F2E41"/>
<path d="M162.038 152.574C164.242 151.828 165.824 150.484 165.57 149.573C165.316 148.662 163.322 148.528 161.117 149.275C158.913 150.022 157.331 151.366 157.585 152.277C157.84 153.188 159.833 153.321 162.038 152.574Z" fill="#2F2E41"/>
<path d="M147.952 131.782C151.066 131.782 153.59 129 153.59 125.569C153.59 122.138 151.066 119.356 147.952 119.356C144.838 119.356 142.314 122.138 142.314 125.569C142.314 129 144.838 131.782 147.952 131.782Z" fill="white"/>
<path d="M147.952 127.64C148.99 127.64 149.832 126.713 149.832 125.569C149.832 124.425 148.99 123.498 147.952 123.498C146.914 123.498 146.073 124.425 146.073 125.569C146.073 126.713 146.914 127.64 147.952 127.64Z" fill="#3F3D56"/>
<path d="M128.977 119.124C125.951 113.272 128.25 105.544 134.112 101.864C139.975 98.1842 147.179 99.9451 150.205 105.797C153.231 111.65 149.706 115.38 143.844 119.06C137.982 122.74 132.002 124.976 128.977 119.124Z" fill="#FFB6C1"/>
<path d="M119.359 138.12C119.359 149.754 113.083 153.815 105.341 153.815C105.161 153.815 104.982 153.813 104.804 153.809C104.445 153.8 104.09 153.782 103.739 153.755C96.7514 153.21 91.3229 148.939 91.3229 138.12C91.3229 126.924 104.307 112.795 105.283 111.75L105.284 111.748C105.322 111.708 105.341 111.688 105.341 111.688C105.341 111.688 119.359 126.487 119.359 138.12Z" fill="#FFB6C1"/>
<path d="M104.83 152.036L109.957 144.142L104.817 152.903L104.804 153.809C104.445 153.8 104.09 153.782 103.739 153.755L104.291 142.116L104.287 142.026L104.296 142.009L104.348 140.91L99.1958 132.127L104.365 140.085L104.377 140.319L104.794 131.525L100.383 122.45L104.848 129.981L105.283 111.75L105.285 111.688V111.748L105.212 126.125L109.604 120.425L105.194 127.363L105.078 135.237L109.178 127.68L105.061 136.395L104.996 140.772L110.949 130.255L104.974 142.3L104.83 152.036Z" fill="#3F3D56"/>
<path d="M174.487 142.972C174.487 155.645 167.65 160.07 159.216 160.07C159.021 160.07 158.825 160.068 158.631 160.063C158.24 160.054 157.853 160.033 157.47 160.004C149.859 159.411 143.945 154.758 143.945 142.972C143.945 130.775 158.09 115.384 159.153 114.245L159.155 114.243C159.195 114.199 159.216 114.177 159.216 114.177C159.216 114.177 174.487 130.299 174.487 142.972Z" fill="#FFB6C1"/>
<path d="M158.66 158.131L164.245 149.532L158.646 159.076L158.631 160.063C158.24 160.054 157.853 160.033 157.47 160.004L158.072 147.325L158.068 147.227L158.078 147.208L158.135 146.011L152.522 136.443L158.152 145.113L158.166 145.367L158.62 135.787L153.815 125.901L158.679 134.106L159.153 114.245L159.155 114.177V114.243L159.075 129.904L163.86 123.695L159.056 131.254L158.929 139.831L163.396 131.599L158.911 141.093L158.84 145.861L165.325 134.404L158.816 147.525L158.66 158.131Z" fill="#3F3D56"/>
<path d="M149.828 140.985C150.44 139.561 147.601 136.663 143.485 134.512C139.369 132.361 135.535 131.771 134.922 133.195C134.31 134.619 137.149 137.517 141.265 139.668C145.381 141.819 149.215 142.409 149.828 140.985Z" fill="#2F2E41"/>
<path d="M22.8609 139.321C23.3929 137.858 20.3964 135.159 16.168 133.291C11.9396 131.424 8.08051 131.095 7.54845 132.558C7.0164 134.021 10.0129 136.721 14.2413 138.588C18.4697 140.456 22.3288 140.784 22.8609 139.321Z" fill="#2F2E41"/>
</g>
<defs>
<clipPath id="clip0">
<rect width="234" height="179" fill="white"/>
</clipPath>
</defs>
</svg>
