<svg width="130" height="90" viewBox="0 0 130 90" fill="none" xmlns="http://www.w3.org/2000/svg">
<g clip-path="url(#clip0)">
<path opacity="0.4" d="M109.719 34.6014C111.439 34.6014 112.834 33.3168 112.834 31.7322C112.834 30.1476 111.439 28.863 109.719 28.863C107.999 28.863 106.604 30.1476 106.604 31.7322C106.604 33.3168 107.999 34.6014 109.719 34.6014Z" fill="#FF4D85"/>
<path opacity="0.4" d="M44.0426 18.816C46.495 18.816 48.4831 16.9848 48.4831 14.7259C48.4831 12.4669 46.495 10.6357 44.0426 10.6357C41.5902 10.6357 39.6021 12.4669 39.6021 14.7259C39.6021 16.9848 41.5902 18.816 44.0426 18.816Z" fill="#FF4D85"/>
<path opacity="0.4" d="M35.8244 19.5485C37.5447 19.5485 38.9394 18.2639 38.9394 16.6793C38.9394 15.0947 37.5447 13.8101 35.8244 13.8101C34.104 13.8101 32.7094 15.0947 32.7094 16.6793C32.7094 18.2639 34.104 19.5485 35.8244 19.5485Z" fill="#FF4D85"/>
<path d="M112.328 63.8177C109.867 66.2998 109.777 69.9154 109.777 69.9154C109.777 69.9154 113.678 69.5068 116.14 67.0247C118.601 64.5427 118.69 60.9271 118.69 60.9271C118.69 60.9271 114.789 61.3357 112.328 63.8177Z" fill="#3F3D56"/>
<path d="M113.718 64.532C112.973 67.8228 109.843 70.0054 109.843 70.0054C109.843 70.0054 107.92 66.8524 108.664 63.5616C109.409 60.2707 112.54 58.0881 112.54 58.0881C112.54 58.0881 114.463 61.2411 113.718 64.532Z" fill="#FF4D85"/>
<path d="M110.522 30.5745V69.8048L96.3248 80.6074H23.6954V39.4819L44.8875 30.5745H110.522Z" fill="#3F3D56"/>
<path opacity="0.1" d="M110.522 30.5745V30.7317L105.425 33.874L96.3248 39.4819H23.6954L44.8875 30.5745H110.522Z" fill="black"/>
<path opacity="0.1" d="M110.522 30.5745V69.8048L96.3249 80.6074L96.4277 39.3872L105.425 33.874L110.439 30.5745H110.522Z" fill="black"/>
<path d="M91.3868 35.9758H47.1508L50.4428 34.2701H92.8272L91.3868 35.9758Z" fill="#2F2E41"/>
<path d="M129.566 82.7412C129.566 82.7412 130.423 86.0445 129.644 86.1882C128.864 86.3318 125.044 86.2854 124.108 86.429C123.173 86.5727 121.224 86.3318 121.224 85.6855C121.224 85.0392 123.251 84.6083 123.251 84.6083C123.251 84.6083 126.135 83.1721 126.213 83.1003C126.291 83.0285 129.566 82.7412 129.566 82.7412Z" fill="#2F2E41"/>
<path d="M128.864 63.2804C128.864 63.2804 128.63 65.722 128.63 65.9374C128.63 66.1528 128.864 69.5279 128.63 69.6716C128.396 69.8152 128.786 70.8205 128.786 71.1796C128.786 71.5386 130.034 77.499 129.722 79.7969C129.41 82.0949 130.189 81.8794 129.956 82.0949C129.722 82.3103 129.722 82.3103 129.722 82.7412C129.722 83.172 127.227 83.5311 127.227 83.5311L124.498 67.6609L125.902 62.9213L128.864 63.2804Z" fill="#575A89"/>
<path opacity="0.1" d="M128.864 63.2804C128.864 63.2804 128.63 65.722 128.63 65.9374C128.63 66.1528 128.864 69.5279 128.63 69.6716C128.396 69.8152 128.786 70.8205 128.786 71.1796C128.786 71.5386 130.034 77.499 129.722 79.7969C129.41 82.0949 130.189 81.8794 129.956 82.0949C129.722 82.3103 129.722 82.3103 129.722 82.7412C129.722 83.172 127.227 83.5311 127.227 83.5311L124.498 67.6609L125.902 62.9213L128.864 63.2804Z" fill="black"/>
<path d="M128.474 83.7465C128.474 83.7465 129.254 86.3317 128.474 86.4753C127.695 86.6189 123.875 86.3108 122.939 86.4544C122.003 86.598 120.054 86.619 120.054 85.9727C120.054 85.3264 122.081 84.8955 122.081 84.8955C122.081 84.8955 124.966 83.4593 125.044 83.3875C125.122 83.3157 128.474 83.7465 128.474 83.7465Z" fill="#2F2E41"/>
<path d="M129.566 60.408C129.566 60.408 130.501 62.4905 129.41 63.5676C128.318 64.6448 127.071 66.7991 127.071 66.9428C127.071 67.0864 129.254 81.3768 128.942 82.3103C128.63 83.2439 128.708 83.8183 128.786 83.962C128.864 84.1056 128.006 84.8955 127.071 84.8955C126.135 84.8955 124.732 84.2492 124.576 83.6747C124.42 83.1002 124.81 78.1453 124.732 77.2117C124.654 76.2782 124.264 74.9138 124.108 74.6265C123.953 74.3393 123.095 74.052 122.939 73.1903C122.783 72.3286 121.536 61.3415 121.926 60.9824C122.315 60.6234 129.566 60.408 129.566 60.408Z" fill="#575A89"/>
<path d="M123.641 43.8914C125.105 43.8914 126.291 42.7983 126.291 41.4499C126.291 40.1014 125.105 39.0083 123.641 39.0083C122.177 39.0083 120.99 40.1014 120.99 41.4499C120.99 42.7983 122.177 43.8914 123.641 43.8914Z" fill="#FFB9B9"/>
<path d="M125.278 42.6706C125.278 42.6706 124.732 45.3277 125.122 45.6149C125.512 45.9021 122.159 46.333 122.159 46.333C122.159 46.333 121.77 42.8143 121.692 42.4552C121.614 42.0962 125.278 42.6706 125.278 42.6706Z" fill="#FFB9B9"/>
<path d="M121.692 46.1175C121.692 46.1175 122.627 43.6041 126.447 44.3222C126.447 44.3222 127.149 44.5376 126.915 44.7531C126.681 44.9685 126.447 44.9685 126.759 45.1839C127.071 45.3994 127.461 45.1839 127.227 45.3994C126.993 45.6148 129.332 46.9074 129.176 49.349C129.02 51.7906 129.722 55.2375 129.176 55.812C128.63 56.3865 129.566 58.8999 129.41 59.4025C129.254 59.9052 130.345 60.5515 129.878 60.7669C129.41 60.9824 120.99 62.275 120.756 60.7669C120.522 59.2589 120.678 60.3361 120.444 59.977C120.21 59.618 120.132 58.9717 120.288 58.1817C120.444 57.3918 120.834 55.4529 120.678 54.7348C120.522 54.0167 120.678 47.9846 121.146 47.2665C121.614 46.5484 121.692 46.1175 121.692 46.1175Z" fill="#FF4D85"/>
<path d="M123.329 63.6395C123.329 63.6395 124.498 67.7327 123.017 67.7327C121.536 67.7327 121.614 63.4958 121.614 63.4958L123.329 63.6395Z" fill="#FFB9B9"/>
<path d="M122.471 41.4499C122.471 41.6582 122.799 41.7903 123.306 41.8205H123.307C123.522 41.8317 123.738 41.8279 123.953 41.809C124.277 41.7817 124.411 42.0625 124.466 42.433C124.557 43.0441 124.43 43.9008 124.576 44.0351C124.777 44.2204 126.244 44.0344 126.702 43.6143C126.774 43.5554 126.821 43.4759 126.837 43.3888C126.885 43.1323 127.023 42.8971 127.228 42.7188C127.499 42.4467 127.884 42.1451 128.318 41.6654C129.098 40.8036 128.318 40.7318 128.084 40.0855C127.851 39.4392 127.461 39.2238 127.461 38.7929C127.461 38.3621 125.668 38.003 124.186 38.0748C122.705 38.1466 123.017 39.8701 123.017 39.8701C123.017 39.8701 122.929 40.0783 122.824 40.3469C122.681 40.6839 122.566 41.03 122.477 41.3824C122.474 41.4048 122.472 41.4273 122.471 41.4499Z" fill="#2F2E41"/>
<path opacity="0.1" d="M122.783 47.1947C122.783 47.1947 125.434 47.0511 125.668 50.6416C125.901 54.2322 125.824 57.6073 125.824 57.6791C125.824 57.7509 124.732 64.5729 123.719 64.5729C122.705 64.5729 121.926 64.4293 121.692 64.0703C121.458 63.7112 122.315 58.5408 122.315 58.5408C122.315 58.5408 122.705 53.0832 122.081 51.3597C121.458 49.6363 121.38 47.4101 122.783 47.1947Z" fill="black"/>
<path d="M122.393 46.8356C122.393 46.8356 125.044 46.692 125.278 50.2825C125.512 53.8731 125.434 57.2482 125.434 57.32C125.434 57.3918 124.342 64.2139 123.329 64.2139C122.315 64.2139 121.536 64.0702 121.302 63.7112C121.068 63.3521 121.926 58.1817 121.926 58.1817C121.926 58.1817 122.315 52.7241 121.692 51.0007C121.068 49.2772 120.99 47.0511 122.393 46.8356Z" fill="#FF4D85"/>
<path d="M78.4393 11.7336C78.4393 11.7336 77.2841 8.71881 76.4498 9.66463C75.6155 10.6105 77.7334 12.2065 77.7334 12.2065L78.4393 11.7336Z" fill="#A0616A"/>
<path d="M83.8943 8.77783L83.1994 9.01506C83.1994 9.01506 82.8675 10.3739 82.9958 10.6104C83.1242 10.8468 83.1884 10.6695 82.9958 11.1424C82.8033 11.6153 82.2257 12.8567 82.1615 13.034C82.0973 13.2114 78.4393 11.9109 78.4393 11.2606C78.4393 11.2606 77.6692 12.0882 77.2841 12.2656C77.2841 12.2656 81.5198 15.103 82.0973 15.4577C82.6749 15.8124 82.9958 15.635 83.5092 15.2212C84.0226 14.8075 86.2046 11.3788 86.2046 11.3788L83.8943 8.77783Z" fill="#575A89"/>
<path d="M82.0332 29.7633C82.0332 29.7633 82.0974 30.4136 82.2257 30.4727C82.3541 30.5318 83.3167 32.0097 82.2257 32.3052C81.1347 32.6008 80.493 32.4826 80.2363 32.6008C79.9796 32.719 75.4872 32.9555 75.423 32.3052C75.3588 31.655 77.605 31.5367 77.605 31.5367C77.605 31.5367 79.6587 30.2953 79.9796 29.6451C80.3004 28.9948 82.0332 29.7633 82.0332 29.7633Z" fill="#2F2E41"/>
<path d="M95.061 30.9456C95.061 30.9456 96.6013 33.3693 96.2162 33.6649C95.8311 33.9604 92.0811 35.0376 91.5313 35.0836C90.8254 35.1427 90.312 34.6107 90.8895 34.3151C91.4671 34.0195 92.6865 32.7781 92.6865 32.3644V31.3003L95.061 30.9456Z" fill="#2F2E41"/>
<path d="M96.537 15.1031C96.537 15.1031 97.8847 16.6401 95.7669 19.1228L92.2372 23.2608C92.2372 23.2608 94.4192 26.453 94.4834 28.1081C94.5476 29.7633 94.9968 29.4086 95.1252 30.118C95.2535 30.8274 95.8311 30.4727 95.3819 31.0047C94.9326 31.5367 93.264 32.0097 92.7506 31.5959C92.574 31.4471 92.4361 31.2635 92.3472 31.0588C92.2583 30.8541 92.2207 30.6335 92.2372 30.4136C92.2372 30.1771 91.3388 28.8175 91.2746 28.4037C91.2104 27.9899 88.8359 24.6204 88.8359 24.6204C88.8359 24.6204 88.0658 22.6105 88.9642 21.4874C89.8627 20.3642 90.4564 18.7713 90.4564 18.7713C90.4564 18.7713 87.8091 21.7238 85.9479 22.4332C85.9479 22.4332 85.242 22.5514 85.3703 22.847C85.4987 23.1426 85.3704 23.3199 85.1778 23.6155C84.9853 23.9111 83.6376 27.3397 83.1884 28.2264C82.7391 29.1131 82.9317 29.6451 82.4182 29.9407C81.9048 30.2362 79.5945 29.9998 79.5945 29.7042C79.5945 29.4087 79.9154 28.6402 80.1079 28.2264C80.3004 27.8126 81.8407 23.0244 81.7123 22.1968C81.5839 21.3692 81.7765 20.246 82.7391 19.7731C83.7018 19.3002 88.5792 15.4578 88.8359 15.4578C89.0926 15.4578 96.537 15.1031 96.537 15.1031Z" fill="#2F2E41"/>
<path d="M83.6376 5.8222C85.1262 5.8222 86.333 4.71062 86.333 3.33941C86.333 1.96821 85.1262 0.856628 83.6376 0.856628C82.149 0.856628 80.9422 1.96821 80.9422 3.33941C80.9422 4.71062 82.149 5.8222 83.6376 5.8222Z" fill="#A0616A"/>
<path d="M85.8196 3.57581C85.8196 3.57581 86.6539 4.93543 87.6807 5.11277C88.7076 5.29012 84.9853 8.00935 84.9853 8.00935C84.9853 8.00935 84.0868 5.40834 83.3167 5.29012C82.5466 5.17189 85.8196 3.57581 85.8196 3.57581Z" fill="#A0616A"/>
<path d="M83.1884 9.13251C83.1884 9.90099 85.6912 12.0882 85.6912 12.0882L88.0658 13.9207C88.0658 13.9207 88.1299 14.571 88.3866 14.6301C88.6433 14.6892 88.9642 14.6892 88.7075 15.0439C88.4508 15.3986 87.8091 16.1671 88.3866 16.2853C88.5608 16.3097 88.7362 16.3251 88.9122 16.3314C89.0663 16.3397 89.2472 16.3474 89.4507 16.3545C89.9256 16.3698 90.5199 16.3799 91.1635 16.3757C91.3464 16.3751 91.5326 16.3732 91.7219 16.3698C94.1484 16.3255 96.9593 16.0683 96.7295 15.2212C96.3445 13.8025 96.6012 13.3296 95.7669 12.5611C94.9326 11.7926 93.5849 9.13251 93.5849 9.13251C93.5849 9.13251 90.8895 4.93542 88.6433 4.93542L88.1768 4.82251C87.96 4.7699 87.7307 4.78144 87.5215 4.8555C87.3122 4.92955 87.1335 5.06236 87.0107 5.23513C86.5602 5.86705 85.8498 6.81642 85.4345 7.12263C84.7928 7.59554 84.6926 7.25623 84.6926 7.25623C84.6926 7.25623 83.1884 8.36403 83.1884 9.13251Z" fill="#575A89"/>
<path d="M88.9001 18.1179C88.9001 18.1179 87.039 20.778 88.1941 21.2509C89.3493 21.7238 89.991 18.4725 89.991 18.4725L88.9001 18.1179Z" fill="#A0616A"/>
<path d="M85.3997 3.05897C85.2963 3.04695 85.2636 2.92672 85.2462 2.83202C85.1529 2.32493 84.7427 1.84407 84.1914 1.76221C83.9807 1.73639 83.7665 1.75229 83.563 1.80886C83.2715 1.88254 82.9978 2.0066 82.7566 2.17445C82.6386 2.27381 82.5021 2.35277 82.3537 2.40752C82.2525 2.43487 81.8231 2.61074 81.7227 2.6405C81.5021 2.70592 81.3195 2.91861 81.0923 2.8765C80.875 2.83621 80.7924 2.59443 80.7575 2.39274C80.6779 1.93326 80.9634 1.24768 81.2473 0.862805C81.4627 0.570744 81.8273 0.402659 82.1918 0.293308C82.6188 0.173917 83.0575 0.093614 83.5016 0.0535655C84.1012 -0.0116554 84.7221 -0.0462587 85.2967 0.124443C85.8713 0.295144 86.3944 0.712717 86.5017 1.25995C86.524 1.37395 86.5282 1.49071 86.5556 1.60377C86.6224 1.87957 86.8205 2.1114 86.9361 2.37317C87.0195 2.56541 87.0582 2.77162 87.0497 2.97849C87.0413 3.18536 86.9858 3.38831 86.887 3.57424C86.727 3.87067 86.4487 4.15553 86.5087 4.48194L86.0135 4.12224C85.9419 4.08478 85.8865 4.02585 85.8564 3.95528C85.8263 3.88471 85.8234 3.80676 85.8482 3.73446L85.9202 3.16327C85.9451 3.05979 85.9339 2.95169 85.8881 2.85445C85.668 2.50027 85.5722 3.07902 85.3997 3.05897Z" fill="#2F2E41"/>
<path opacity="0.1" d="M90.0553 14.0391L89.4507 16.3545C90.0604 16.3746 90.8671 16.3853 91.722 16.3699C91.9376 15.774 92.1436 15.1528 92.3015 14.5711C92.8791 12.443 91.9164 9.1917 91.403 7.65474C90.8896 6.11778 89.6061 5.70398 89.6061 5.70398C89.0798 5.87444 88.5828 6.11331 88.13 6.41335C87.2957 6.94537 90.0553 14.0391 90.0553 14.0391Z" fill="black"/>
<path opacity="0.1" d="M89.5418 13.9208L88.9123 16.3315C89.0663 16.3397 89.2473 16.3474 89.4507 16.3545C89.9256 16.3699 90.5199 16.3799 91.1636 16.3758C91.3952 15.7427 91.6192 15.0747 91.788 14.4528C92.3656 12.3247 91.403 9.07345 90.8896 7.53649C90.3761 5.99953 89.2531 7.68427 89.2531 7.68427C89.2531 7.68427 89.7023 6.67933 88.868 7.21136C88.0337 7.74338 89.5418 13.9208 89.5418 13.9208Z" fill="black"/>
<path d="M89.3493 5.58575C89.3493 5.58575 90.6328 5.99955 91.1462 7.53651C91.6596 9.07347 92.6223 12.3247 92.0447 14.4528C91.4671 16.5809 90.2478 19.2411 90.2478 19.2411C90.2478 19.2411 89.0284 18.4135 88.5792 18.5908L89.7985 13.9208C89.7985 13.9208 87.039 6.82715 87.8732 6.29512C88.326 5.99508 88.8231 5.75621 89.3493 5.58575Z" fill="#575A89"/>
<path d="M90.306 35.2367L72.5504 1.15552L42.8617 14.2786L53.7805 35.2367H90.306Z" fill="#F2F2F2"/>
<path d="M66.542 14.5332L50.7732 21.5034L51.2429 22.4049L67.0116 15.4347L66.542 14.5332Z" fill="#3F3D56"/>
<path d="M70.7169 22.5469L54.9482 29.5171L55.4178 30.4186L71.1866 23.4485L70.7169 22.5469Z" fill="#3F3D56"/>
<path d="M73.5848 9.818L69.6697 11.5485L71.5485 15.1547L75.4635 13.4242L73.5848 9.818Z" fill="#3F3D56"/>
<path d="M77.7597 17.8317L73.8447 19.5622L75.7234 23.1683L79.6384 21.4378L77.7597 17.8317Z" fill="#3F3D56"/>
<path d="M73.8545 7.32013L72.2422 11.5457L70.0687 10.842L69.7712 11.6215L72.7882 12.5981L74.7006 7.59409L73.8545 7.32013Z" fill="#57B894"/>
<path d="M78.0294 15.3338L76.4171 19.5593L74.2437 18.8558L73.9463 19.6351L76.963 20.6117L78.8756 15.6078L78.0294 15.3338Z" fill="#57B894"/>
<path d="M1.71355 74.462L9.73538 72.8837L8.02185 65.4947L2.6829e-05 67.073L1.71355 74.462Z" fill="#F2F2F2"/>
<path d="M9.51226 63.5204C9.51226 63.5204 6.56583 65.459 7.54797 66.2345C8.53012 67.0099 10.4944 63.9082 10.4944 63.9082L9.51226 63.5204Z" fill="#FFB9B9"/>
<path d="M23.122 66.493C23.122 66.493 22.5608 72.9549 22.4205 73.8595C22.2802 74.7642 22.1399 82.9062 21.8593 83.8109C21.5786 84.7156 21.298 86.9126 21.298 86.9126H19.6143C19.6143 86.9126 19.7547 82.9062 19.3337 81.3554C18.9128 79.8045 19.0531 75.5396 19.0531 75.5396C19.0531 75.5396 18.2113 67.9146 18.6322 66.8807C19.0531 65.8468 23.122 66.493 23.122 66.493Z" fill="#FFB9B9"/>
<path d="M20.8771 86.5249C20.8771 86.5249 21.5786 86.9126 21.5786 87.1711C21.5786 87.4296 21.4383 88.0758 21.5786 88.3342C21.7189 88.5927 22.7011 89.6266 22.1398 89.8851C21.5786 90.1436 19.0531 89.8851 19.0531 89.8851C19.0531 89.8851 19.1934 88.0758 19.3337 87.9465C19.474 87.8173 19.1934 86.5249 19.1934 86.5249H20.8771Z" fill="#2F2E41"/>
<path d="M12.3964 66.3347C12.3964 66.3347 12.2181 72.8151 12.2546 73.7284C12.291 74.6416 11.5027 82.7522 11.6787 83.679C11.8547 84.6058 11.8834 86.8179 11.8834 86.8179L13.5577 86.9807C13.5577 86.9807 13.8748 82.9828 14.4701 81.4812C15.0654 79.9796 15.4119 75.7248 15.4119 75.7248C15.4119 75.7248 17.118 68.2232 16.8172 67.1543C16.5164 66.0854 12.3964 66.3347 12.3964 66.3347Z" fill="#FFB9B9"/>
<path d="M12.3461 86.4729C12.3461 86.4729 11.6043 86.7906 11.5748 87.0477C11.5454 87.3047 11.6113 87.9609 11.4423 88.2044C11.2733 88.4479 10.1788 89.3811 10.7074 89.6924C11.2361 90.0037 13.7771 89.9908 13.7771 89.9908C13.7771 89.9908 13.8438 88.1779 13.719 88.0359C13.5942 87.8938 14.0205 86.6357 14.0205 86.6357L12.3461 86.4729Z" fill="#2F2E41"/>
<path d="M21.1577 56.8001C21.1577 56.8001 22.2801 56.9294 22.7011 59.1264C23.122 61.3235 24.6654 66.8807 23.4026 67.2684C22.1398 67.6561 18.3516 68.4316 18.2113 68.1731C18.071 67.9146 17.7903 67.2684 17.7903 67.2684C17.7903 67.2684 18.2113 68.4316 17.65 68.4316C17.0888 68.4316 11.6169 67.6561 11.7572 67.2684C11.8975 66.8807 12.1781 64.0375 12.1781 64.0375C12.1781 64.0375 13.0199 59.2556 13.8618 58.4802C14.1054 58.2647 14.2945 58.0025 14.4158 57.7122C14.537 57.4218 14.5874 57.1104 14.5633 56.8001H21.1577Z" fill="#2F2E41"/>
<path d="M23.2623 55.7661C23.2623 55.7661 21.4383 55.3784 21.1577 55.8953C20.8771 56.4123 21.8592 57.1877 22.2801 57.1877C22.7011 57.1877 23.4026 56.8 23.4026 56.8L23.2623 55.7661Z" fill="#FFB9B9"/>
<path d="M19.474 44.7809C20.8688 44.7809 21.9995 43.7394 21.9995 42.4546C21.9995 41.1698 20.8688 40.1283 19.474 40.1283C18.0792 40.1283 16.9485 41.1698 16.9485 42.4546C16.9485 43.7394 18.0792 44.7809 19.474 44.7809Z" fill="#FFB9B9"/>
<path d="M19.0531 44.1347C19.0531 44.1347 18.6322 45.944 18.9128 45.944C19.1934 45.944 16.8082 47.1072 16.8082 47.1072L14.9842 46.8487L14.423 46.0733C14.423 46.0733 17.3694 44.2639 17.3694 43.23C17.3694 42.1961 19.0531 44.1347 19.0531 44.1347Z" fill="#FFB9B9"/>
<path d="M17.7904 45.944C17.7904 45.944 18.2113 45.6855 18.3516 45.6855H19.474C19.6143 45.6855 21.4383 46.0732 21.4383 46.0732L22.5608 51.8889C22.5608 51.8889 20.5965 54.8614 21.9995 57.1877C21.9995 57.1877 21.5786 56.9293 19.6143 57.0585C17.65 57.1877 14.1424 57.5754 14.0021 57.5754C13.8618 57.5754 13.8618 56.5415 14.0021 56.2831C14.1424 56.0246 13.8618 56.1538 13.8618 55.5076C13.8618 54.8614 13.4409 53.6983 13.4409 53.6983L11.4766 47.1071C11.4766 47.1071 14.0021 45.8147 14.423 45.944C14.8439 46.0732 16.1067 46.4609 16.3873 46.3317C16.6679 46.2024 17.7904 45.944 17.7904 45.944Z" fill="#FF4D85"/>
<path d="M21.0174 46.2026L21.4383 46.0733C21.4383 46.0733 22.2801 45.9441 23.2623 46.7195C24.2444 47.4949 27.8924 49.8212 27.8924 49.8212C27.8924 49.8212 29.2955 50.8551 28.8746 52.0183C28.4536 53.1814 27.7521 56.0247 25.6475 55.8954C25.6475 55.8954 24.3847 57.4463 23.6832 57.1878C22.9817 56.9293 22.4205 55.8954 22.8414 55.7662C23.2623 55.6369 24.3847 54.3446 24.3847 54.3446L22.9817 51.889H22.5608L21.0174 51.1136L21.0174 46.2026Z" fill="#FF4D85"/>
<path d="M12.599 46.978L11.4765 47.1072C11.4765 47.1072 10.4944 47.4949 10.6347 49.175C10.775 50.8551 9.79286 58.4801 10.2138 59.3848C10.2138 59.3848 8.81072 63.7789 9.09134 63.9081C9.37195 64.0374 11.0556 64.8128 10.9153 64.2958C10.775 63.7789 12.4587 60.1602 12.4587 60.1602C12.4587 60.1602 14.423 58.2217 13.5811 55.5077V53.3106L12.599 46.978Z" fill="#FF4D85"/>
<path d="M21.5759 44.7037L19.7923 45.0616L19.563 44.2527L19.6512 45.09L16.7738 45.6674L16.6472 45.2208L16.6959 45.683L14.8529 46.0528L14.4586 42.5668C14.0533 41.1364 15.5326 39.6118 17.0856 39.2384L17.7745 39.0728C18.9151 38.7986 20.9884 39.0479 21.2861 40.0985C20.7651 41.9303 19.8769 43.9384 21.5759 44.7037Z" fill="#2F2E41"/>
</g>
<defs>
<clipPath id="clip0">
<rect width="130" height="90" fill="white"/>
</clipPath>
</defs>
</svg>
