<svg width="130" height="90" viewBox="0 0 130 90" fill="none" xmlns="http://www.w3.org/2000/svg">
<g clip-path="url(#clip0)">
<path d="M7.77142 85.1617C7.77142 85.1617 2.20744 84.8702 2.86295 88.2569C2.86295 88.2569 2.73132 88.8547 3.35656 89.1267C3.35656 89.1267 3.36709 88.8753 3.92783 88.961C4.12736 88.9902 4.33018 88.9986 4.53201 88.9862C4.80524 88.9699 5.06494 88.8769 5.27177 88.721C5.27177 88.721 6.83553 88.1598 7.44498 85.9401C7.44498 85.9401 7.89515 85.4554 7.87672 85.3308L6.9382 85.6737C6.9382 85.6737 7.25806 86.2624 7.00665 86.7505C7.00665 86.7505 6.97506 85.6955 6.79472 85.7218C6.75787 85.7275 6.3077 85.9263 6.3077 85.9263C6.3077 85.9263 6.85922 86.955 6.43933 87.6957C6.43933 87.6957 6.59728 86.4327 6.13131 85.9995L5.47317 86.3355C5.47317 86.3355 6.11947 87.394 5.68114 88.2569C5.68114 88.2569 5.79302 86.9322 5.33495 86.4167L4.73604 86.8225C4.73604 86.8225 5.34154 87.866 4.97166 88.5815C4.97166 88.5815 4.92427 87.0396 4.60572 86.923C4.60572 86.923 4.07921 87.3242 4.00155 87.4945C4.00155 87.4945 4.41749 88.2512 4.1595 88.6513C4.1595 88.6513 4.00155 87.6226 3.87255 87.6226C3.87255 87.6226 3.34603 88.3026 3.29601 88.7656C3.29601 88.7656 3.31839 88.0706 3.74487 87.5528C3.44383 87.602 3.16602 87.7268 2.94588 87.9117C2.94588 87.9117 3.02749 87.4305 3.87386 87.3882C3.87386 87.3882 4.30561 86.8728 4.42144 86.8407C4.42144 86.8407 3.57901 86.7802 3.06829 86.9768C3.06829 86.9768 3.51715 86.5196 4.57545 86.7287L5.16778 86.3092C5.16778 86.3092 4.05815 86.1778 3.58823 86.323C3.58823 86.323 4.12923 85.9218 5.32706 86.2144L5.97072 85.8806C5.97072 85.8806 5.02431 85.7035 4.46093 85.7663C4.46093 85.7663 5.0559 85.4874 6.15895 85.7892L6.61966 85.6097C6.61966 85.6097 5.92597 85.4954 5.72326 85.4726C5.52055 85.4497 5.51002 85.4051 5.51002 85.4051C5.949 85.3416 6.39967 85.3851 6.81184 85.5309C6.81184 85.5309 7.78853 85.2154 7.77142 85.1617Z" fill="#FF4D85"/>
<path opacity="0.1" d="M3.93836 90C6.11345 90 7.87671 89.741 7.87671 89.4216C7.87671 89.1022 6.11345 88.8433 3.93836 88.8433C1.76326 88.8433 0 89.1022 0 89.4216C0 89.741 1.76326 90 3.93836 90Z" fill="#FF4D85"/>
<path d="M129.941 77.4704C129.941 77.4704 126.803 77.3058 127.177 79.2146C127.157 79.3116 127.174 79.4114 127.224 79.4997C127.274 79.588 127.355 79.6602 127.456 79.7061C127.456 79.7061 127.456 79.5644 127.777 79.6124C127.889 79.6284 128.004 79.633 128.118 79.6261C128.272 79.6173 128.418 79.5651 128.535 79.4775C128.535 79.4775 129.417 79.1609 129.761 77.9093C129.761 77.9093 130.013 77.6361 130.004 77.5664L129.477 77.763C129.477 77.763 129.658 78.0945 129.516 78.3711C129.516 78.3711 129.499 77.7756 129.397 77.7893C129.376 77.7893 129.121 77.9036 129.121 77.9036C129.121 77.9036 129.433 78.4751 129.198 78.9003C129.198 78.9003 129.287 78.1894 129.025 77.9448L128.651 78.1333C128.651 78.1333 129.015 78.7311 128.768 79.218C128.768 79.218 128.832 78.4705 128.573 78.1802L128.235 78.4088C128.235 78.4088 128.577 78.9963 128.367 79.4009C128.367 79.4009 128.339 78.5311 128.16 78.466C128.032 78.5598 127.917 78.6669 127.819 78.7848C127.819 78.7848 128.053 79.2112 127.908 79.4375C127.908 79.4375 127.819 78.858 127.745 78.8557C127.745 78.8557 127.452 79.2386 127.421 79.5015C127.435 79.2576 127.522 79.0211 127.674 78.8157C127.504 78.8437 127.348 78.9145 127.224 79.0192C127.224 79.0192 127.27 78.7471 127.75 78.7231C127.75 78.7231 127.994 78.4328 128.06 78.4145C128.06 78.4145 127.585 78.3802 127.296 78.4911C127.296 78.4911 127.55 78.2351 128.147 78.3517L128.48 78.1151C128.48 78.1151 127.854 78.0408 127.59 78.1231C127.59 78.1231 127.895 77.8945 128.569 78.0613L128.933 77.8727C128.653 77.8197 128.368 77.7985 128.082 77.8099C128.082 77.8099 128.417 77.6521 129.039 77.8225L129.302 77.7207C129.302 77.7207 128.908 77.6544 128.798 77.6441C128.689 77.6339 128.677 77.6064 128.677 77.6064C128.925 77.5707 129.179 77.5952 129.412 77.6773C129.412 77.6773 129.95 77.5001 129.941 77.4704Z" fill="#FF4D85"/>
<path opacity="0.1" d="M127.779 80.1976C129.006 80.1976 130 80.0517 130 79.8718C130 79.6919 129.006 79.5461 127.779 79.5461C126.553 79.5461 125.559 79.6919 125.559 79.8718C125.559 80.0517 126.553 80.1976 127.779 80.1976Z" fill="#FF4D85"/>
<path d="M123.488 82.6676C123.488 82.6676 119.7 82.4699 120.153 84.7765C120.13 84.8936 120.15 85.014 120.21 85.1205C120.271 85.2271 120.369 85.3143 120.49 85.3697C120.49 85.3697 120.49 85.1982 120.885 85.2554C121.021 85.2754 121.159 85.2811 121.297 85.2725C121.482 85.2613 121.659 85.1979 121.8 85.0919C121.8 85.0919 122.864 84.7102 123.278 83.1991C123.278 83.1991 123.584 82.8688 123.573 82.7842L122.933 83.022C122.933 83.022 123.151 83.422 122.98 83.7546C122.98 83.7546 122.959 83.0357 122.837 83.0528C122.812 83.0528 122.504 83.1911 122.504 83.1911C122.504 83.1911 122.88 83.8895 122.596 84.3959C122.596 84.3959 122.704 83.5363 122.387 83.2426L121.936 83.4712C121.936 83.4712 122.376 84.1924 122.079 84.7799C122.079 84.7799 122.155 83.8781 121.842 83.5226L121.435 83.7981C121.435 83.7981 121.847 84.509 121.595 84.9959C121.595 84.9959 121.563 83.9467 121.345 83.8678C121.345 83.8678 120.989 84.1398 120.935 84.253C120.935 84.253 121.218 84.7685 121.043 85.0405C121.043 85.0405 120.935 84.341 120.846 84.3376C120.846 84.3376 120.491 84.8005 120.452 85.1182C120.469 84.8247 120.575 84.5402 120.758 84.293C120.553 84.3267 120.364 84.4117 120.213 84.5376C120.213 84.5376 120.269 84.2107 120.845 84.1821C120.845 84.1821 121.139 83.8301 121.218 83.8084C121.218 83.8084 120.644 83.7672 120.296 83.9009C120.296 83.9009 120.603 83.5923 121.323 83.7329L121.726 83.4472C121.726 83.4472 120.97 83.3569 120.65 83.4563C120.65 83.4563 121.019 83.1831 121.835 83.382L122.273 83.1534C122.273 83.1534 121.63 83.0334 121.247 83.0768C121.247 83.0768 121.651 82.8871 122.402 83.0928L122.716 82.9705C122.716 82.9705 122.243 82.8894 122.106 82.8768C121.969 82.8642 121.96 82.8311 121.96 82.8311C122.259 82.7879 122.566 82.8176 122.846 82.9168C122.846 82.9168 123.499 82.7042 123.488 82.6676Z" fill="#FF4D85"/>
<path opacity="0.1" d="M120.878 85.9606C122.359 85.9606 123.559 85.7846 123.559 85.5674C123.559 85.3503 122.359 85.1743 120.878 85.1743C119.397 85.1743 118.197 85.3503 118.197 85.5674C118.197 85.7846 119.397 85.9606 120.878 85.9606Z" fill="#FF4D85"/>
<path opacity="0.1" d="M106.026 84.677C112.738 84.677 118.18 83.9396 118.18 83.03C118.18 82.1203 112.738 81.3829 106.026 81.3829C99.3142 81.3829 93.8729 82.1203 93.8729 83.03C93.8729 83.9396 99.3142 84.677 106.026 84.677Z" fill="#FF4D85"/>
<path opacity="0.1" d="M67.5681 88.9633C75.1104 88.9633 81.2247 88.4306 81.2247 87.7734C81.2247 87.1163 75.1104 86.5836 67.5681 86.5836C60.0258 86.5836 53.9115 87.1163 53.9115 87.7734C53.9115 88.4306 60.0258 88.9633 67.5681 88.9633Z" fill="#FF4D85"/>
<path opacity="0.1" d="M26.193 87.7814C31.9179 87.7814 36.5588 87.5327 36.5588 87.2259C36.5588 86.9191 31.9179 86.6704 26.193 86.6704C20.4681 86.6704 15.8271 86.9191 15.8271 87.2259C15.8271 87.5327 20.4681 87.7814 26.193 87.7814Z" fill="#FF4D85"/>
<path opacity="0.1" d="M44.5974 3.91477C48.4423 0.942967 54.4789 0.333746 59.9718 0.570348C77.2271 1.31444 92.8028 8.5485 106.276 16.7312C111.155 19.6928 115.956 22.8852 119.122 26.9645C125.572 35.2673 123.655 46.7705 114.694 53.6114C111.644 55.9385 107.948 57.7262 104.153 59.3046C97.4059 62.1176 90.1255 64.375 82.4686 65.0197C77.0073 65.4769 71.4788 65.1054 66.0504 64.4653C50.8814 62.6776 35.9928 58.7274 23.5143 51.9723C18.0411 49.0005 12.8813 45.32 10.6251 40.5251C8.369 35.7302 9.81298 29.654 15.402 26.816C17.7134 25.6421 20.4776 25.1117 23.1826 24.6145C27.1657 23.8819 31.212 23.1595 34.8068 21.669C38.5188 20.1305 42.9139 17.1553 42.1781 13.7503C41.3909 10.0961 40.7578 6.88658 44.5974 3.91477Z" fill="#FF4D85"/>
<path opacity="0.9" d="M76.4584 44.7805V22.9561H79.8807V16.4409H55.3581V22.9561H58.7805V44.7805C54.0542 46.3392 49.9855 49.109 47.1141 52.7223C44.2427 56.3356 42.7044 60.6216 42.7033 65.0117C42.7033 76.9617 53.8602 86.6487 67.6221 86.6487C81.3839 86.6487 92.5395 76.9617 92.5395 65.0117C92.5383 60.6211 90.9995 56.3348 88.1274 52.7214C85.2552 49.108 81.1855 46.3386 76.4584 44.7805Z" fill="#96B7FE"/>
<path opacity="0.1" d="M76.4584 22.8886H58.7752V23.1824H76.4584V22.8886Z" fill="black"/>
<path d="M53.6799 64.431C53.6799 64.431 68.6856 64.2024 76.1885 60.9414C83.6914 57.6805 87.9786 60.5917 87.5758 62.5702C87.173 64.5488 85.0314 68.3858 76.457 68.8568C67.8827 69.3277 53.6799 64.431 53.6799 64.431Z" fill="#FF4D85"/>
<path opacity="0.1" d="M53.6799 64.431C53.6799 64.431 68.6856 64.2024 76.1885 60.9414C83.6914 57.6805 87.9786 60.5917 87.5758 62.5702C87.173 64.5488 85.0314 68.3858 76.457 68.8568C67.8827 69.3277 53.6799 64.431 53.6799 64.431Z" fill="#FFB6C1"/>
<path d="M47.2537 62.3394C47.2537 62.3394 45.6504 81.6504 66.6782 81.999C87.706 82.3476 87.577 62.568 87.577 62.568C87.577 62.568 79.8109 69.8957 61.4539 63.847C61.4539 63.8516 51.9423 61.641 47.2537 62.3394Z" fill="#FFB6C1"/>
<path opacity="0.1" d="M87.5087 62.6377C87.0888 67.0862 84.3654 81.0114 66.6862 80.7177C49.3558 80.4331 47.3932 67.2771 47.2392 62.6491C47.1431 65.1328 47.2287 81.6744 66.6822 81.9978C87.7153 82.3407 87.5811 62.5668 87.5811 62.5668C87.5811 62.5668 87.5547 62.5954 87.5087 62.6377Z" fill="black"/>
<path opacity="0.3" d="M66.806 56.3763C68.313 56.3763 69.5346 55.3154 69.5346 54.0068C69.5346 52.6982 68.313 51.6374 66.806 51.6374C65.2989 51.6374 64.0773 52.6982 64.0773 54.0068C64.0773 55.3154 65.2989 56.3763 66.806 56.3763Z" fill="#FF4D85"/>
<path opacity="0.3" d="M68.3645 45.9944C69.2972 45.9944 70.0533 45.3379 70.0533 44.528C70.0533 43.718 69.2972 43.0615 68.3645 43.0615C67.4318 43.0615 66.6757 43.718 66.6757 44.528C66.6757 45.3379 67.4318 45.9944 68.3645 45.9944Z" fill="#FF4D85"/>
<path opacity="0.3" d="M64.5959 37.5305C65.5287 37.5305 66.2848 36.8739 66.2848 36.064C66.2848 35.2541 65.5287 34.5975 64.5959 34.5975C63.6632 34.5975 62.9071 35.2541 62.9071 36.064C62.9071 36.8739 63.6632 37.5305 64.5959 37.5305Z" fill="#FF4D85"/>
<path opacity="0.2" d="M50.1259 55.8345C49.9811 56.8335 50.01 58.0839 51.038 58.5503C50.1759 58.1594 53.7101 53.7269 53.2086 52.8216C52.1358 50.89 50.2575 54.9064 50.1259 55.8345Z" fill="white"/>
<path opacity="0.3" d="M63.2309 12.0861C64.7379 12.0861 65.9596 11.0253 65.9596 9.71668C65.9596 8.40807 64.7379 7.34723 63.2309 7.34723C61.7239 7.34723 60.5022 8.40807 60.5022 9.71668C60.5022 11.0253 61.7239 12.0861 63.2309 12.0861Z" fill="#FF4D85"/>
<path opacity="0.3" d="M71.4169 7.4158C72.5372 7.4158 73.4453 6.62721 73.4453 5.65444C73.4453 4.68166 72.5372 3.89307 71.4169 3.89307C70.2967 3.89307 69.3885 4.68166 69.3885 5.65444C69.3885 6.62721 70.2967 7.4158 71.4169 7.4158Z" fill="#FF4D85"/>
<path opacity="0.3" d="M65.5699 1.83109C66.1523 1.83109 66.6243 1.42119 66.6243 0.915545C66.6243 0.409903 66.1523 0 65.5699 0C64.9876 0 64.5156 0.409903 64.5156 0.915545C64.5156 1.42119 64.9876 1.83109 65.5699 1.83109Z" fill="#FF4D85"/>
<path opacity="0.9" d="M37.3578 30.0815H15.3059V35.7611H18.6664V80.0707C18.6531 80.9524 18.8416 81.8275 19.2209 82.6453C19.6002 83.4632 20.1628 84.2074 20.8761 84.8349C21.5893 85.4625 22.439 85.9607 23.3758 86.3008C24.3125 86.6408 25.3178 86.816 26.3331 86.816C27.3485 86.816 28.3537 86.6408 29.2905 86.3008C30.2273 85.9607 31.077 85.4625 31.7902 84.8349C32.5035 84.2074 33.0661 83.4632 33.4454 82.6453C33.8247 81.8275 34.0132 80.9524 33.9999 80.0707V35.7611H37.3578V30.0815Z" fill="#96B7FE"/>
<path d="M23.7749 45.8001C23.7749 45.8001 29.2323 44.1073 30.7513 45.3109C30.7513 45.3109 28.5412 48.1318 26.5062 48.0186C24.4713 47.9055 23.7749 45.8001 23.7749 45.8001Z" fill="#FF4D85"/>
<path opacity="0.1" d="M23.7749 45.8001C23.7749 45.8001 29.2323 44.1073 30.7513 45.3109C30.7513 45.3109 28.5412 48.1318 26.5062 48.0186C24.4713 47.9055 23.7749 45.8001 23.7749 45.8001Z" fill="black"/>
<path d="M30.7487 45.3155V77.475C30.7487 78.0084 30.6277 78.5367 30.3926 79.0295C30.1575 79.5224 29.8129 79.9702 29.3785 80.3474C28.9441 80.7246 28.4284 81.0238 27.8608 81.228C27.2932 81.4321 26.6849 81.5372 26.0706 81.5372C24.8299 81.5372 23.64 81.1092 22.7626 80.3474C21.8853 79.5856 21.3925 78.5523 21.3925 77.475V45.3155C21.3925 45.3155 23.6446 44.7886 25.7665 45.9179C27.8884 47.0471 30.7487 45.3155 30.7487 45.3155Z" fill="#FFB6C1"/>
<path opacity="0.1" d="M33.9973 35.7257H18.6638V35.9874H33.9973V35.7257Z" fill="black"/>
<path opacity="0.1" d="M26.0706 79.5815C25.4561 79.5815 24.8477 79.4764 24.28 79.2722C23.7124 79.068 23.1966 78.7687 22.7622 78.3913C22.3278 78.014 21.9832 77.566 21.7482 77.0731C21.5132 76.5801 21.3923 76.0517 21.3925 75.5182V77.5493C21.3925 78.6266 21.8853 79.6599 22.7626 80.4217C23.64 81.1835 24.8299 81.6115 26.0706 81.6115C27.3113 81.6115 28.5012 81.1835 29.3785 80.4217C30.2558 79.6599 30.7487 78.6266 30.7487 77.5493V75.5182C30.7489 76.0517 30.628 76.5801 30.393 77.0731C30.1579 77.566 29.8134 78.014 29.379 78.3913C28.9445 78.7687 28.4288 79.068 27.8611 79.2722C27.2935 79.4764 26.685 79.5815 26.0706 79.5815Z" fill="black"/>
<path opacity="0.3" d="M26.0719 42.1573C26.5982 42.1573 27.0249 41.7869 27.0249 41.3298C27.0249 40.8728 26.5982 40.5023 26.0719 40.5023C25.5455 40.5023 25.1189 40.8728 25.1189 41.3298C25.1189 41.7869 25.5455 42.1573 26.0719 42.1573Z" fill="#FF4D85"/>
<path opacity="0.3" d="M29.1902 38.9227C29.5253 38.9227 29.797 38.6867 29.797 38.3957C29.797 38.1047 29.5253 37.8688 29.1902 37.8688C28.8551 37.8688 28.5834 38.1047 28.5834 38.3957C28.5834 38.6867 28.8551 38.9227 29.1902 38.9227Z" fill="#FF4D85"/>
<path opacity="0.3" d="M24.9451 37.8699C25.2803 37.8699 25.5519 37.634 25.5519 37.343C25.5519 37.052 25.2803 36.8161 24.9451 36.8161C24.61 36.8161 24.3383 37.052 24.3383 37.343C24.3383 37.634 24.61 37.8699 24.9451 37.8699Z" fill="#FF4D85"/>
<path opacity="0.2" d="M19.851 51.8854C19.7062 52.8844 19.7352 54.1349 20.7632 54.6012C19.8997 54.2103 23.4353 49.7789 22.9338 48.8725C21.8584 46.9431 19.9827 50.9585 19.851 51.8854Z" fill="white"/>
<path opacity="0.3" d="M28.0489 26.528C29.3277 26.528 30.3643 25.6278 30.3643 24.5174C30.3643 23.407 29.3277 22.5069 28.0489 22.5069C26.7702 22.5069 25.7336 23.407 25.7336 24.5174C25.7336 25.6278 26.7702 26.528 28.0489 26.528Z" fill="#FF4D85"/>
<path opacity="0.3" d="M21.1029 22.5652C22.0537 22.5652 22.8246 21.8958 22.8246 21.0701C22.8246 20.2444 22.0537 19.575 21.1029 19.575C20.152 19.575 19.3811 20.2444 19.3811 21.0701C19.3811 21.8958 20.152 22.5652 21.1029 22.5652Z" fill="#FF4D85"/>
<path opacity="0.3" d="M26.064 17.8263C26.5583 17.8263 26.959 17.4783 26.959 17.049C26.959 16.6198 26.5583 16.2718 26.064 16.2718C25.5696 16.2718 25.1689 16.6198 25.1689 17.049C25.1689 17.4783 25.5696 17.8263 26.064 17.8263Z" fill="#FF4D85"/>
<path d="M117.922 51.5859C117.922 51.5859 115.901 42.8603 116.674 41.7744C116.674 41.7744 116.701 40.7651 116.655 39.4793C116.655 39.4301 116.655 39.381 116.655 39.3307C116.791 39.4108 116.932 39.4827 117.079 39.5456C117.791 39.8645 118.61 39.9563 119.392 39.805L118.777 39.2129C118.631 39.0712 118.477 38.9192 118.446 38.7317C118.437 38.5514 118.482 38.3723 118.577 38.2117C119.158 36.9372 119.193 35.3336 118.069 34.3609C117.124 33.5425 116.892 32.4864 115.871 31.74C115.121 31.1925 114.709 30.3901 114.319 29.6163C113.99 28.9602 113.661 28.2996 113.47 27.6046C113.323 27.0617 113.265 26.5005 113.062 25.9701C112.859 25.4398 112.483 24.9243 111.892 24.6877C111.673 24.6212 111.46 24.5394 111.256 24.4431C111.003 24.2956 110.852 24.0556 110.67 23.8464C109.749 22.7823 106.642 23.4087 105.173 23.8407C104.774 23.9493 104.405 24.127 104.087 24.3631L104.101 24.3436L104.137 24.2968C103.977 24.4096 103.838 24.5439 103.727 24.6945C103.512 24.9894 103.423 25.3358 103.245 25.6467C103.029 26.0238 101.831 27.0765 102.346 27.5006C102.381 27.529 102.422 27.5522 102.466 27.5692C102.658 27.6373 102.869 27.6556 103.073 27.6218C103.065 27.6366 103.057 27.6515 103.05 27.6663C102.875 28.0406 102.786 28.4409 102.787 28.8448C102.796 29.6904 103.191 30.4983 103.885 31.091C104.58 31.6836 105.517 32.0125 106.491 32.0052C106.876 32.0057 107.259 31.9548 107.626 31.8543C107.635 31.8943 107.643 31.9343 107.651 31.9743C107.651 31.9915 107.651 32.0075 107.66 32.0235L107.595 32.1023L107.585 32.0875L105.664 34.4192C105.371 34.5975 103.679 35.6605 103.589 36.4572C103.488 37.3293 103.388 38.3511 103.388 38.3511L103.375 38.5694C103.291 38.6302 103.193 38.6746 103.088 38.6994C102.983 38.7243 102.872 38.7291 102.765 38.7135C102.166 38.6277 102.166 40.6291 102.166 40.6291C102.166 40.6291 101.771 40.948 101.493 40.6714C101.215 40.3948 100.495 41.3309 100.495 41.3309L95.9553 41.5012H95.8513L95.6065 40.8429C95.5797 40.7749 95.5236 40.7185 95.4499 40.6857C95.3763 40.6529 95.2909 40.6461 95.2116 40.6668C95.1924 40.6714 95.1738 40.6779 95.1563 40.6863L95.1405 40.6954C95.1293 40.701 95.1187 40.7075 95.1089 40.7148C95.1027 40.7184 95.0969 40.7226 95.0918 40.7274C95.0828 40.7341 95.0745 40.7413 95.0668 40.7491C95.0621 40.7539 95.0577 40.7588 95.0537 40.764L95.0458 40.7709C95.0175 40.8047 94.9987 40.8439 94.991 40.8851C94.9832 40.9264 94.9866 40.9687 95.001 41.0086L95.2116 41.5732C94.3363 41.7264 93.4399 42.1573 94.1704 43.346L90.469 42.7528L91.6668 43.6249L97.8534 44.7336C97.7718 44.8617 97.8258 45.0457 98.0811 45.3051C99.1802 46.4276 101.189 46.7316 101.996 46.8116C102.208 47.2244 102.473 47.6151 102.786 47.9763L102.714 49.0942C102.714 49.0942 100.672 57.6199 100.296 58.0531C100.482 57.8659 100.651 57.6673 100.803 57.4587C100.21 59.2109 99.3803 61.6089 99.1631 61.9678C98.813 62.5393 98.4892 64.8619 98.888 65.0116C99.0131 65.0574 99.3593 65.0356 99.8581 65.0025V65.1945L99.8358 72.4812C99.8358 72.4812 99.9358 76.9514 99.6607 77.3766C99.3856 77.8018 99.3119 78.6957 99.3119 78.6957C99.3119 78.6957 98.2088 80.4593 97.3374 81.168L97.3177 81.1828L97.29 81.016C97.29 81.016 96.237 82.1658 93.923 82.1018C93.923 82.1018 92.5264 82.8893 94.5969 82.9316C96.6674 82.9739 99.3105 82.8676 99.3105 82.8676C99.3105 82.8676 101.153 80.4205 102.703 80.7394V82.591H103.177V80.7234C103.396 80.5975 103.584 80.4343 103.729 80.2435C103.874 80.0527 103.972 79.8384 104.019 79.6135C104.06 79.3823 104.03 79.1458 103.934 78.9275C103.837 78.7092 103.676 78.5166 103.467 78.3688C103.373 78.2949 103.298 78.205 103.246 78.1047C103.194 78.0044 103.166 77.8959 103.165 77.7858L103.148 77.7984C103.148 77.7618 103.137 77.7241 103.13 77.6841C102.999 76.7263 102.826 74.7557 103.427 73.295C104.249 71.2936 104.499 68.5069 103.9 66.8462C103.708 66.316 103.549 65.7768 103.427 65.2311C103.412 65.1614 103.398 65.0962 103.386 65.0345C103.796 65.0831 104.202 65.1552 104.601 65.2505C105.991 65.582 109.027 65.6437 111.621 65.6266C111.627 65.6883 111.635 65.7523 111.643 65.8175C111.69 66.2666 111.788 66.7107 111.935 67.1433C112.259 67.996 112.409 71.7405 112.409 71.7405C112.409 71.7405 112.829 74.8209 112.6 76.0759C112.468 76.7731 112.358 77.4727 112.285 78.1756V78.1893C112.285 78.1893 111.598 79.8912 111.101 80.8182C111.087 80.8422 111.076 80.8651 111.062 80.8879C110.928 80.8986 110.795 80.9236 110.668 80.9622C110.668 80.9622 109.995 82.1327 109.321 82.3247C108.647 82.5167 108.872 83.1545 110.394 82.9202C111.915 82.6859 114.211 82.495 114.211 82.495L114.311 81.3029L114.778 80.7954L114.66 81.9841L115.159 81.8995L115.093 80.4525L115.858 79.6215C115.858 79.6215 116.779 78.9083 115.409 77.5047V77.5344C115.394 77.5138 115.38 77.4932 115.364 77.4738V77.4669C115.138 77.1606 114.956 76.5903 115.288 75.5776C115.887 73.7488 116.235 72.088 116.235 72.088C116.235 72.088 117.574 67.6405 115.964 65.5351H116.037C115.872 65.239 115.755 64.9243 115.689 64.6002C115.681 64.5613 115.675 64.5213 115.667 64.4859C116.851 64.4264 118.027 64.239 118.979 63.8366C118.968 63.8241 118.396 53.2673 117.922 51.5859ZM102.807 44.225V44.2456L102.56 44.2559L102.807 44.225ZM101.968 44.3256C101.928 44.3331 101.89 44.3487 101.858 44.3713C101.753 44.5007 101.687 44.6508 101.665 44.8079L101.284 44.7325C101.284 44.7325 101.02 44.6834 100.626 44.6285L100.443 44.4696C100.951 44.4285 101.472 44.3793 101.968 44.3256Z" fill="url(#paint0_linear)"/>
<path d="M114.598 80.4628L114.452 81.9693L114.94 81.8836L114.867 80.2513L114.598 80.4628Z" fill="#1D2366"/>
<path d="M103.461 73.3156C102.873 74.7706 103.041 76.7355 103.173 77.6899C103.221 78.0431 103.266 78.2614 103.266 78.2614C103.266 78.2614 102.387 80.001 102.313 80.065C102.239 80.129 99.7226 81.4618 99.7226 81.4618L97.964 82.3522C97.964 82.3522 96.1804 81.6732 97.0426 81.4378C97.2171 81.3768 97.3743 81.2836 97.5033 81.1646C98.3563 80.4582 99.437 78.7014 99.437 78.7014C99.437 78.7014 99.5094 77.811 99.7779 77.387C100.046 76.9629 99.949 72.5086 99.949 72.5086L99.9714 65.246V64.2996L103.317 64.3213C103.339 64.6428 103.387 64.9626 103.462 65.278C103.583 65.8216 103.738 66.3589 103.928 66.8874C104.51 68.5458 104.267 71.3211 103.461 73.3156Z" fill="#FFB0B1"/>
<path opacity="0.1" d="M103.265 78.2614C103.265 78.2614 102.385 80.001 102.312 80.065C102.238 80.129 99.7226 81.4618 99.7226 81.4618L97.964 82.3522C97.964 82.3522 96.1804 81.6732 97.0426 81.4378C97.2171 81.3767 97.3743 81.2835 97.5033 81.1646L97.5796 81.6286L98.1667 81.6069L103.173 77.6898C103.22 78.0419 103.265 78.2614 103.265 78.2614Z" fill="black"/>
<path d="M103.204 77.7904L98.1601 81.7361L97.5731 81.7567L97.452 81.0149C97.452 81.0149 96.4253 82.1579 94.1533 82.0962C94.1533 82.0962 92.7857 82.8814 94.8115 82.9237C96.8373 82.966 99.4291 82.8597 99.4291 82.8597C99.4291 82.8597 101.236 80.4205 102.75 80.7394V82.5842H103.215V80.7177C103.431 80.5913 103.615 80.4282 103.757 80.2382C103.899 80.0483 103.994 79.8354 104.039 79.6124C104.079 79.3827 104.051 79.1477 103.956 78.9303C103.862 78.7129 103.704 78.5203 103.499 78.3711C103.407 78.2969 103.333 78.2071 103.283 78.1072C103.232 78.0074 103.205 77.8996 103.204 77.7904Z" fill="#1D2366"/>
<path d="M115.063 75.5845C114.738 76.5937 114.915 77.1618 115.136 77.467V77.4739C115.424 77.8515 115.624 78.2744 115.725 78.7186L115.746 78.8146L113.45 81.7201L112.205 82.1442C112.205 82.1442 110.202 81.5509 110.568 81.3806C110.66 81.3383 110.803 81.1189 110.962 80.8091C111.453 79.8947 112.127 78.1962 112.127 78.1962V78.1814C112.197 77.4807 112.31 76.7835 112.435 76.0885C112.659 74.8392 112.248 71.7691 112.248 71.7691C112.248 71.7691 112.102 68.0372 111.784 67.188C111.641 66.7564 111.545 66.3139 111.498 65.8666C111.432 65.3329 111.418 64.8974 111.418 64.8974C111.418 64.8974 112.734 63.3063 115.155 65.0242C115.347 65.1622 115.517 65.3226 115.659 65.5009C117.329 67.5583 115.985 72.1086 115.985 72.1086C115.985 72.1086 115.648 73.7614 115.063 75.5845Z" fill="#FFB0B1"/>
<path opacity="0.1" d="M115.746 78.8089L113.45 81.7144L112.205 82.1384C112.205 82.1384 110.202 81.5452 110.568 81.3749C110.66 81.3326 110.803 81.1132 110.962 80.8034C111.81 80.8034 112.25 81.4984 112.25 81.4984L113.324 81.3509C113.324 81.3509 114.741 78.9323 115.059 78.7849C115.376 78.6374 115.107 77.6807 115.107 77.6807V77.4373L115.132 77.4635V77.4704C115.422 77.8489 115.623 78.2729 115.725 78.7186L115.746 78.8089Z" fill="black"/>
<path d="M112.326 81.5658C112.326 81.5658 111.715 80.5908 110.544 80.9509C110.544 80.9509 109.886 82.1179 109.228 82.3088C108.569 82.4996 108.788 83.1352 110.281 82.902C111.773 82.6688 114.018 82.4779 114.018 82.4779L114.115 81.2903L115.629 79.6147C115.629 79.6147 116.533 78.9037 115.189 77.5047V77.7482C115.189 77.7482 115.452 78.7026 115.14 78.8512C114.828 78.9998 113.407 81.4172 113.407 81.4172L112.326 81.5658Z" fill="#1D2366"/>
<path opacity="0.1" d="M103.313 64.3225C103.335 64.644 103.383 64.9637 103.458 65.2791C102.08 65.1031 100.802 65.1911 99.9648 65.2471V64.3008L103.313 64.3225Z" fill="black"/>
<path opacity="0.1" d="M115.795 65.765C115.795 65.765 113.836 65.8473 111.503 65.8644C111.438 65.3306 111.423 64.8951 111.423 64.8951C111.423 64.8951 112.739 63.304 115.16 65.022C115.353 65.1599 115.522 65.3203 115.664 65.4986C115.702 65.5893 115.746 65.6782 115.795 65.765Z" fill="black"/>
<path d="M115.795 65.574C115.795 65.574 107.221 65.9341 104.606 65.2986C101.991 64.6631 99.404 65.2128 99.0131 65.0642C98.6221 64.9157 98.9407 62.6045 99.2763 62.0319C99.612 61.4592 101.5 55.6688 101.5 55.6688L103.307 47.4814L105.213 47.0242L105.344 46.9922L108.663 46.1921L111.097 45.6092C111.097 45.6092 115.933 62.0044 115.517 63.2114C115.366 63.6746 115.342 64.1619 115.447 64.6345C115.512 64.9601 115.629 65.2763 115.795 65.574Z" fill="#1D2366"/>
<path d="M97.0123 41.8819C97.0123 41.8819 95.3011 43.473 96.5964 44.3634C97.8916 45.2538 98.7459 44.4491 98.7459 44.4491L97.0123 41.8819Z" fill="#C7DAF5"/>
<path opacity="0.1" d="M97.0123 41.8819C97.0123 41.8819 95.3011 43.473 96.5964 44.3634C97.8916 45.2538 98.7459 44.4491 98.7459 44.4491L97.0123 41.8819Z" fill="black"/>
<path d="M110.849 31.4051C110.849 31.4051 110.649 31.5697 110.346 31.8155C109.916 32.1641 109.279 32.675 108.713 33.1036C107.923 33.6957 107.285 34.1323 107.515 33.7586C107.745 33.3848 107.702 32.7424 107.587 32.1378L107.564 32.0178C107.468 31.5737 107.342 31.1351 107.185 30.7045C107.185 30.7045 108.45 29.2849 109.15 28.7248C109.413 28.5156 109.593 28.4265 109.603 28.5728C109.616 28.7717 109.788 29.206 109.998 29.6769C110.005 29.6906 110.012 29.7055 110.019 29.7192C110.161 30.0358 110.32 30.3661 110.461 30.6485C110.675 31.0817 110.849 31.4051 110.849 31.4051Z" fill="#FFB0B1"/>
<path opacity="0.1" d="M110.017 29.7192C109.898 30.2745 109.61 30.7919 109.182 31.2173C108.754 31.6428 108.202 31.9607 107.585 32.1378C107.488 31.6527 107.353 31.1738 107.182 30.7045C107.182 30.7045 109.563 28.0321 109.6 28.5728C109.622 28.7785 109.799 29.2334 110.017 29.7192Z" fill="black"/>
<path opacity="0.1" d="M107.35 32.8522L107.659 32.4761C107.659 32.4761 107.863 33.5574 108.614 33.0808C109.366 32.6042 109.404 36.6698 109.404 36.6698L108.596 47.1374L102.77 46.8345L102.934 41.7767L103.592 39.2313L105.223 35.5245L106.2 34.3004L107.35 32.8522Z" fill="black"/>
<path d="M109.401 36.7338L108.672 46.1979L108.596 47.2003L105.347 47.0323L105.215 47.0254L102.766 46.8985L102.93 41.8396L103.589 39.2953L105.219 35.5885L106.2 34.3632L107.354 32.9162L107.662 32.539C107.662 32.539 107.866 33.6214 108.618 33.1436L108.633 33.1345C109.366 32.7253 109.401 36.7338 109.401 36.7338Z" fill="#1D2366"/>
<path d="M103.679 38.4037C103.679 38.4037 103.387 38.9341 102.8 38.8495C102.213 38.7649 102.214 40.7583 102.214 40.7583C102.214 40.7583 101.819 41.0761 101.556 40.8006C101.293 40.5252 100.579 41.4579 100.579 41.4579L96.1343 41.6282C96.1343 41.6282 98.1088 42.4123 97.7218 44.7886C97.7218 44.7886 104.435 44.4274 104.659 43.8742C104.882 43.3209 103.679 38.4037 103.679 38.4037Z" fill="white"/>
<path opacity="0.03" d="M103.679 38.4037C103.679 38.4037 103.387 38.9341 102.8 38.8495C102.213 38.7649 102.214 40.7583 102.214 40.7583C102.214 40.7583 101.819 41.0761 101.556 40.8006C101.293 40.5252 100.579 41.4579 100.579 41.4579L96.1343 41.6282C96.1343 41.6282 98.1088 42.4123 97.7218 44.7886C97.7218 44.7886 104.435 44.4274 104.659 43.8742C104.882 43.3209 103.679 38.4037 103.679 38.4037Z" fill="black"/>
<path d="M90.7586 42.8786L91.9314 43.7484L101.58 45.5087L100.382 44.4491L90.7586 42.8786Z" fill="white"/>
<path d="M107.368 33.1859C107.208 33.394 106.75 34.4867 106.366 35.4365C106.047 36.2275 105.78 36.9224 105.78 36.9224C105.78 36.9224 105.158 40.444 104.84 41.0795C104.523 41.715 104.694 44.1999 104.694 44.1999L103.51 50.3298C103.51 50.3298 102.972 53.4902 102.143 55.3773C101.33 57.2301 100.408 58.1022 100.383 58.1285C100.751 57.6976 102.753 49.2005 102.753 49.2005L103.411 38.4883C103.411 38.4883 103.508 37.4711 103.607 36.6012C103.706 35.7314 105.683 34.5438 105.683 34.5438L107.594 32.1835C107.79 32.4156 107.661 32.8042 107.368 33.1859Z" fill="white"/>
<path d="M102.383 46.9511C102.383 46.9511 99.5738 46.8459 98.2062 45.424C96.8386 44.0022 101.357 44.8525 101.357 44.8525L102.529 45.0811L102.383 46.9511Z" fill="#FFB0B1"/>
<path opacity="0.1" d="M115.526 63.2194C115.375 63.6826 115.351 64.1699 115.456 64.6425C112.387 64.8322 109.102 64.1098 109.102 64.1098C108.492 64.5979 106.879 65.3191 106.879 65.3191L106 55.8585C105.439 54.5852 105.219 47.9044 105.219 47.9044C105.219 47.9044 105.269 47.5546 105.351 47.0311C105.351 47.0185 105.351 47.0048 105.358 46.9922C105.577 45.5292 106.016 42.7826 106.224 42.4111C106.517 41.9025 105.321 40.5457 105.321 40.5457L105.864 36.5132L105.93 36.0274C107.079 35.5817 107.959 34.1609 107.959 34.1609L108.633 33.1322C109.368 32.723 109.404 36.7315 109.404 36.7315L108.675 46.1956L111.108 45.6126C111.108 45.6126 115.941 62.0102 115.526 63.2194Z" fill="black"/>
<path d="M118.677 63.8767C115.331 65.3192 109.249 63.983 109.249 63.983C108.638 64.471 107.025 65.1923 107.025 65.1923L106.146 55.7317C105.585 54.4595 105.366 47.7786 105.366 47.7786C105.366 47.7786 106.074 42.794 106.366 42.2854C106.451 42.1368 106.411 41.9162 106.309 41.6784C105.81 40.5453 105.626 39.3257 105.774 38.1191L106.008 36.3875L106.074 35.9017C107.222 35.4559 108.101 34.034 108.101 34.034L108.713 33.1036L109.84 31.3891L110.373 30.5776L110.462 30.6485L111.155 31.1925C111.155 31.1925 111.448 31.4029 111.888 31.7263C112.846 32.427 114.502 33.6614 115.355 34.4158C116.106 35.0822 116.343 37.6688 116.408 39.6165C116.454 40.8978 116.426 41.9025 116.426 41.9025C115.668 42.9837 117.647 51.6809 117.647 51.6809C118.115 53.3565 118.677 63.8767 118.677 63.8767Z" fill="white"/>
<path opacity="0.03" d="M112.255 34.0135C112.255 34.0135 109.958 37.8105 110.228 39.2518C110.498 40.6931 111.253 42.3276 110.886 42.7094C110.76 42.8539 110.598 42.9713 110.411 43.0522C110.225 43.1331 110.019 43.1754 109.811 43.1757C109.445 43.1975 108.467 43.7907 108.467 43.8547C108.467 43.9187 107.564 43.9187 106.756 44.2159C105.947 44.513 104.752 44.6822 104.752 44.6822C104.752 44.6822 102.432 44.6182 102.212 44.8091C101.992 45 101.772 46.1452 102.237 47.0574C102.701 47.9695 103.213 48.6484 103.604 48.7719C103.995 48.8953 106.462 48.1786 108.464 48.0083C110.466 47.838 112.65 46.4641 112.65 46.4641C112.65 46.4641 115.043 45.7212 115.459 44.4696C115.875 43.218 114.945 36.3463 114.945 36.3463C114.945 36.3463 114.229 33.1436 112.255 34.0135Z" fill="black"/>
<path opacity="0.03" d="M111.96 33.6957C111.96 33.6957 109.665 37.4916 109.933 38.9341C110.202 40.3766 110.958 42.0099 110.591 42.3917C110.466 42.5362 110.303 42.6536 110.117 42.7345C109.93 42.8154 109.724 42.8577 109.516 42.858C109.15 42.8797 108.173 43.4729 108.173 43.537C108.173 43.601 107.269 43.5998 106.462 43.897C105.655 44.1942 104.459 44.3633 104.459 44.3633C104.459 44.3633 102.138 44.3005 101.918 44.4914C101.698 44.6822 101.479 45.8275 101.943 46.7396C102.408 47.6518 102.92 48.3307 103.311 48.4541C103.702 48.5776 106.168 47.8598 108.172 47.6906C110.175 47.5215 112.351 46.143 112.351 46.143C112.351 46.143 114.744 45.4012 115.16 44.1496C115.576 42.898 114.647 36.0263 114.647 36.0263C114.647 36.0263 113.939 32.8259 111.96 33.6957Z" fill="black"/>
<path d="M112.18 33.8226C112.18 33.8226 109.886 37.6196 110.149 39.0564C110.412 40.4931 111.174 42.1322 110.807 42.514C110.682 42.6587 110.519 42.7762 110.333 42.8571C110.146 42.938 109.94 42.9802 109.732 42.9803C109.366 43.002 108.389 43.5952 108.389 43.6592C108.389 43.7233 107.485 43.7233 106.678 44.0204C105.871 44.3176 104.674 44.4868 104.674 44.4868C104.674 44.4868 102.354 44.4228 102.134 44.6136C101.914 44.8045 101.694 45.9498 102.159 46.8619C102.624 47.774 103.136 48.453 103.527 48.5764C103.918 48.6999 106.384 47.9832 108.388 47.8129C110.391 47.6426 112.564 46.2653 112.564 46.2653C112.564 46.2653 114.957 45.5223 115.373 44.2707C115.789 43.0192 114.86 36.1474 114.86 36.1474C114.86 36.1474 114.158 32.9528 112.18 33.8226Z" fill="white"/>
<path opacity="0.1" d="M112.131 44.0033C112.131 44.0033 110.299 43.6855 110.935 44.2159C111.571 44.7462 111.569 45.2126 112.351 45.1909C113.133 45.1692 112.131 44.0033 112.131 44.0033Z" fill="black"/>
<path opacity="0.1" d="M115.234 55.4356C115.234 55.4356 114.403 55.9237 115.991 57.0472C117.578 58.1708 115.234 55.4356 115.234 55.4356Z" fill="black"/>
<path opacity="0.1" d="M113.645 59.4441C113.645 59.5081 113.353 61.777 114.452 62.3497C115.551 62.9223 113.645 59.4441 113.645 59.4441Z" fill="black"/>
<path d="M96.2054 41.6259C95.3209 41.6521 93.4057 41.8876 94.3981 43.4947C95.2761 44.9165 96.7503 43.9667 97.5757 43.2443C97.3743 42.5724 96.8839 41.9932 96.2054 41.6259Z" fill="#FFB0B1"/>
<path d="M97.5902 43.2318C97.6033 43.2215 97.6152 43.2101 97.627 43.1998C97.6152 43.2101 97.6033 43.2215 97.5902 43.2318Z" fill="#FFB0B1"/>
<path opacity="0.1" d="M111.888 31.7892C110.948 32.347 110.159 32.8179 110.007 32.9162C109.584 33.1859 108.779 34.777 108.265 35.5885C107.852 36.2423 106.513 36.4103 106.008 36.4515L106.068 35.9703C107.216 35.5256 108.096 34.1037 108.096 34.1037L110.367 30.6473L111.149 31.2622C111.149 31.2622 111.448 31.4668 111.888 31.7892Z" fill="black"/>
<path d="M111.888 31.7263C110.948 32.283 110.159 32.755 110.007 32.8522C109.584 33.1231 108.779 34.713 108.265 35.5245C107.852 36.1783 106.513 36.3463 106.008 36.3875L106.074 35.9017C107.221 35.4559 108.101 34.034 108.101 34.034L110.373 30.5776L111.155 31.1925C111.155 31.1925 111.448 31.3983 111.888 31.7263Z" fill="#DCE7FF"/>
<path d="M110.079 29.0186C110.08 29.2399 110.053 29.4606 109.999 29.6769C109.901 30.0811 109.711 30.4642 109.441 30.8039C108.949 31.4248 108.217 31.8722 107.378 32.0647C106.539 32.2573 105.649 32.1823 104.868 31.8534C104.087 31.5245 103.468 30.9634 103.123 30.272C102.778 29.5806 102.73 28.8047 102.987 28.0851C103.244 27.3654 103.79 26.7497 104.526 26.3497C105.261 25.9496 106.137 25.7917 106.995 25.9047C107.853 26.0176 108.636 26.3938 109.202 26.9652C109.768 27.5365 110.079 28.265 110.079 29.0186Z" fill="#FFB0B1"/>
<path opacity="0.1" d="M116.412 39.6164C115.915 39.3509 115.511 38.9732 115.242 38.5237C115.038 38.1728 114.902 37.7693 114.552 37.519C114.239 37.2973 113.815 37.2424 113.427 37.143C112.141 36.8126 111.057 35.7919 111.02 34.6284C111.002 34.0809 111.198 33.5334 111.109 32.9916C111.058 32.6841 110.917 32.3932 110.699 32.1469C110.593 32.0282 110.475 31.9177 110.346 31.8166C110.175 31.676 109.995 31.54 109.84 31.3902C109.739 31.2983 109.65 31.1967 109.576 31.0873C109.518 30.9977 109.471 30.9031 109.436 30.805C109.196 30.1558 109.413 29.3831 109.145 28.7259C109.145 28.7145 109.135 28.7019 109.13 28.6905C109.027 28.4562 108.821 28.223 108.535 28.2047C108.25 28.1864 108.001 28.3933 107.727 28.487C107.153 28.6802 106.533 28.351 106.055 28.015C105.577 27.6789 105.038 27.2949 104.428 27.3703C104.027 27.4195 103.708 27.6583 103.338 27.7818C103.253 27.809 103.165 27.8304 103.075 27.8458C103.389 27.1671 103.966 26.6046 104.706 26.2547C105.445 25.9048 106.302 25.7894 107.129 25.9282C107.956 26.0671 108.702 26.4515 109.238 27.0156C109.775 27.5796 110.068 28.2882 110.069 29.0197C110.069 29.241 110.043 29.4618 109.988 29.678C109.996 29.6917 110.003 29.7066 110.009 29.7203C110.152 30.0369 110.311 30.3673 110.452 30.6496L111.144 31.1936C111.144 31.1936 111.438 31.404 111.877 31.7274C112.836 32.4281 114.491 33.6625 115.344 34.4169C116.107 35.0821 116.343 37.6687 116.412 39.6164Z" fill="black"/>
<path d="M103.304 25.8422C103.479 25.5324 103.567 25.1861 103.775 24.8935C104.082 24.4649 104.619 24.1962 105.168 24.0317C106.605 23.6019 109.644 22.9767 110.55 24.0317C110.729 24.2408 110.877 24.4809 111.124 24.6283C111.324 24.7229 111.533 24.8039 111.747 24.8706C112.326 25.1072 112.696 25.6204 112.893 26.1485C113.091 26.6766 113.149 27.2366 113.288 27.7784C113.473 28.4711 113.798 29.1283 114.12 29.7821C114.501 30.5536 114.91 31.3526 115.639 31.8989C116.641 32.643 116.866 33.6957 117.791 34.5107C118.893 35.48 118.858 37.079 118.29 38.3478C118.196 38.5082 118.151 38.6868 118.159 38.8667C118.212 39.0504 118.325 39.217 118.484 39.3467L119.085 39.9365C118.367 40.0711 117.617 39.999 116.95 39.7309C116.283 39.4628 115.735 39.0134 115.388 38.4506C115.182 38.0997 115.047 37.6962 114.697 37.4471C114.383 37.2242 113.961 37.1705 113.571 37.0699C112.285 36.7396 111.202 35.7189 111.165 34.5553C111.147 34.0089 111.343 33.4603 111.255 32.9185C111.202 32.6149 111.061 32.3279 110.847 32.0841C110.508 31.7023 110.002 31.4429 109.728 31.0245C109.264 30.3147 109.616 29.3912 109.282 28.6242C109.179 28.3956 108.974 28.1568 108.687 28.1385C108.4 28.1202 108.152 28.3282 107.878 28.4208C107.304 28.614 106.686 28.2848 106.208 27.9487C105.73 27.6127 105.189 27.2298 104.581 27.3052C104.178 27.3544 103.861 27.5921 103.49 27.7156C103.216 27.807 102.661 27.8893 102.42 27.6881C101.916 27.2675 103.088 26.2182 103.304 25.8422Z" fill="#591D4B"/>
<path opacity="0.1" d="M115.73 38.0997C115.526 37.7488 115.39 37.3453 115.04 37.095C114.727 36.8721 114.303 36.8184 113.915 36.7189C112.629 36.3886 111.546 35.3679 111.509 34.2043C111.489 33.6568 111.686 33.1093 111.597 32.5675C111.546 32.2601 111.405 31.9691 111.188 31.7229C110.851 31.3411 110.342 31.0805 110.07 30.6621C109.605 29.9523 109.958 29.0288 109.624 28.2618C109.521 28.0332 109.316 27.7944 109.029 27.7761C108.742 27.7578 108.494 27.9647 108.221 28.0572C107.647 28.2516 107.027 27.9224 106.55 27.5863C106.074 27.2503 105.531 26.8674 104.922 26.9417C104.527 26.9908 104.203 27.2286 103.832 27.3532C103.558 27.4446 103.003 27.5269 102.762 27.3257C102.258 26.9028 103.431 25.8535 103.643 25.4786C103.818 25.1689 103.906 24.8225 104.114 24.5299L104.149 24.4819C103.994 24.5957 103.861 24.73 103.754 24.8797C103.544 25.1723 103.457 25.5186 103.283 25.8284C103.071 26.2044 101.898 27.2537 102.403 27.6755C102.642 27.8767 103.192 27.7898 103.473 27.7029C103.843 27.5795 104.16 27.3417 104.563 27.2914C105.171 27.2171 105.712 27.6 106.19 27.9361C106.667 28.2721 107.287 28.6013 107.86 28.4081C108.135 28.3156 108.375 28.1064 108.668 28.1258C108.962 28.1453 109.162 28.3773 109.264 28.6116C109.599 29.374 109.246 30.2975 109.709 31.0119C109.983 31.4291 110.491 31.6897 110.828 32.0715C111.046 32.3178 111.187 32.6087 111.238 32.9161C111.327 33.4579 111.13 34.0054 111.149 34.5529C111.19 35.7176 112.27 36.7384 113.556 37.0675C113.944 37.167 114.368 37.2207 114.681 37.4447C115.031 37.6939 115.165 38.0974 115.371 38.4483C115.718 39.011 116.266 39.4604 116.933 39.7285C117.6 39.9966 118.35 40.0688 119.068 39.9342L118.785 39.6553C117.543 39.6736 116.293 39.0632 115.73 38.0997Z" fill="black"/>
<path opacity="0.1" d="M107.295 33.25C107.135 33.458 106.677 34.5507 106.294 35.4994C105.935 35.3794 105.609 34.6067 105.609 34.6067L107.516 32.2464C107.716 32.4796 107.587 32.8682 107.295 33.25Z" fill="black"/>
<path d="M107.368 33.1859C107.208 33.394 106.75 34.4867 106.366 35.4365C106.008 35.3165 105.683 34.5438 105.683 34.5438L107.594 32.1835C107.79 32.4156 107.661 32.8042 107.368 33.1859Z" fill="#DCE7FF"/>
<path d="M96.2567 44.0399L95.1971 41.1424C95.1844 41.1083 95.1796 41.0724 95.1829 41.0367C95.1863 41.001 95.1977 40.9662 95.2165 40.9344C95.2353 40.9025 95.2612 40.8742 95.2927 40.851C95.3241 40.8279 95.3606 40.8104 95.3998 40.7995C95.4391 40.7881 95.4805 40.7837 95.5217 40.7864C95.5629 40.7892 95.6031 40.799 95.6399 40.8154C95.6767 40.8318 95.7093 40.8544 95.7359 40.8819C95.7625 40.9094 95.7825 40.9412 95.7947 40.9755L96.8543 43.8753L96.749 44.4822L96.2567 44.0399Z" fill="#BE8B87"/>
<path opacity="0.1" d="M95.2972 40.8852C95.3365 40.8742 95.3779 40.8701 95.4191 40.873C95.4603 40.876 95.5004 40.886 95.5371 40.9024C95.5738 40.9189 95.6064 40.9415 95.633 40.969C95.6596 40.9964 95.6797 41.0282 95.6921 41.0624L96.7517 43.9599L96.6714 44.4171L96.7491 44.4868L96.8544 43.8799L95.7947 40.9824C95.7825 40.9481 95.7625 40.9163 95.7359 40.8888C95.7093 40.8613 95.6767 40.8387 95.6399 40.8223C95.6031 40.8059 95.563 40.796 95.5217 40.7933C95.4805 40.7906 95.4391 40.795 95.3999 40.8063C95.3339 40.8241 95.2768 40.8608 95.2379 40.9104C95.2566 40.9001 95.2764 40.8917 95.2972 40.8852Z" fill="white"/>
<path d="M96.2568 44.0399L96.8517 43.8753L96.7649 44.3736L96.7464 44.4822L96.5727 44.3245L96.2568 44.0399Z" fill="#EFC8C4"/>
<path d="M96.5727 44.3245C96.5835 44.3136 96.5964 44.3043 96.6108 44.2971C96.6194 44.2925 96.6291 44.2901 96.6391 44.2901C96.6491 44.2901 96.6589 44.2925 96.6674 44.2971C96.6761 44.3056 96.6832 44.3153 96.6885 44.3256C96.6964 44.3377 96.7074 44.3479 96.7207 44.3557C96.7339 44.3634 96.749 44.3684 96.7648 44.3702L96.7464 44.4845L96.5727 44.3245Z" fill="#727A9C"/>
<path d="M95.1919 42.1688C95.1919 42.1688 97.3177 42.1585 96.8162 42.9426C96.3147 43.7267 95.5341 43.8227 95.5341 43.8227L95.1919 42.1688Z" fill="#FFB0B1"/>
</g>
<defs>
<linearGradient id="paint0_linear" x1="104.923" y1="82.9659" x2="104.923" y2="23.2601" gradientUnits="userSpaceOnUse">
<stop stop-color="#808080" stop-opacity="0.25"/>
<stop offset="0.54" stop-color="#808080" stop-opacity="0.12"/>
<stop offset="1" stop-color="#808080" stop-opacity="0.1"/>
</linearGradient>
<clipPath id="clip0">
<rect width="130" height="90" fill="white"/>
</clipPath>
</defs>
</svg>
