<svg width="130" height="90" viewBox="0 0 130 90" fill="none" xmlns="http://www.w3.org/2000/svg">
<g clip-path="url(#clip0)">
<path opacity="0.1" d="M75.7754 17.9501C68.1274 17.6673 60.8434 15.0988 53.8926 12.2942C46.9419 9.48961 40.0478 6.36903 32.583 4.88006C27.7818 3.92224 22.2904 3.78699 18.4227 6.46494C14.6992 9.04697 13.4962 13.4918 12.8498 17.6206C12.3629 20.7264 12.077 23.9945 13.4099 26.9024C14.3364 28.9213 15.9789 30.6181 17.1157 32.5521C21.0709 39.2802 18.275 47.5771 13.9901 54.1466C11.9813 57.2291 9.64739 60.1713 8.09582 63.4493C6.54425 66.7273 5.82695 70.4884 7.18473 73.8353C8.5295 77.155 11.7355 79.6436 15.2085 81.3957C22.2621 84.954 30.5706 85.9733 38.6782 86.5499C56.62 87.8274 74.6563 87.2742 92.6453 86.7209C99.3031 86.5155 105.989 86.3077 112.538 85.2368C116.175 84.6417 119.93 83.6974 122.571 81.4191C125.922 78.526 126.753 73.6262 124.506 69.9991C120.739 63.9141 110.326 62.403 107.69 55.8716C106.241 52.2777 107.729 48.2731 109.836 44.9398C114.354 37.7888 121.928 31.5144 122.326 23.3392C122.6 17.7251 118.959 12.1024 113.33 9.44535C107.43 6.66043 99.2463 7.01085 94.8953 11.6204C90.4072 16.3615 82.5288 18.1874 75.7754 17.9501Z" fill="#FF4D85"/>
<path d="M20.2378 90C25.0157 90 28.889 89.2249 28.889 88.2688C28.889 87.3127 25.0157 86.5376 20.2378 86.5376C15.4599 86.5376 11.5866 87.3127 11.5866 88.2688C11.5866 89.2249 15.4599 90 20.2378 90Z" fill="#FF4D85"/>
<path d="M20.0924 88.9057C20.6485 88.9057 21.0993 88.2914 21.0993 87.5335C21.0993 86.7757 20.6485 86.1614 20.0924 86.1614C19.5364 86.1614 19.0856 86.7757 19.0856 87.5335C19.0856 88.2914 19.5364 88.9057 20.0924 88.9057Z" fill="#3F3D56"/>
<path d="M20.0924 87.2286C20.6485 87.2286 21.0993 86.6143 21.0993 85.8564C21.0993 85.0986 20.6485 84.4843 20.0924 84.4843C19.5364 84.4843 19.0856 85.0986 19.0856 85.8564C19.0856 86.6143 19.5364 87.2286 20.0924 87.2286Z" fill="#3F3D56"/>
<path d="M20.0924 85.5515C20.6485 85.5515 21.0993 84.9372 21.0993 84.1794C21.0993 83.4215 20.6485 82.8072 20.0924 82.8072C19.5364 82.8072 19.0856 83.4215 19.0856 84.1794C19.0856 84.9372 19.5364 85.5515 20.0924 85.5515Z" fill="#3F3D56"/>
<path d="M20.0924 83.8757C20.6485 83.8757 21.0993 83.2613 21.0993 82.5035C21.0993 81.7457 20.6485 81.1313 20.0924 81.1313C19.5364 81.1313 19.0856 81.7457 19.0856 82.5035C19.0856 83.2613 19.5364 83.8757 20.0924 83.8757Z" fill="#3F3D56"/>
<path d="M20.0924 82.1986C20.6485 82.1986 21.0993 81.5842 21.0993 80.8264C21.0993 80.0686 20.6485 79.4542 20.0924 79.4542C19.5364 79.4542 19.0856 80.0686 19.0856 80.8264C19.0856 81.5842 19.5364 82.1986 20.0924 82.1986Z" fill="#3F3D56"/>
<path d="M20.0924 80.5215C20.6485 80.5215 21.0993 79.9071 21.0993 79.1493C21.0993 78.3914 20.6485 77.7771 20.0924 77.7771C19.5364 77.7771 19.0856 78.3914 19.0856 79.1493C19.0856 79.9071 19.5364 80.5215 20.0924 80.5215Z" fill="#3F3D56"/>
<path d="M20.0924 78.8444C20.6485 78.8444 21.0993 78.23 21.0993 77.4722C21.0993 76.7144 20.6485 76.1 20.0924 76.1C19.5364 76.1 19.0856 76.7144 19.0856 77.4722C19.0856 78.23 19.5364 78.8444 20.0924 78.8444Z" fill="#3F3D56"/>
<path d="M23.8633 65.9969C24.0012 65.8148 24.1268 65.623 24.239 65.4227L21.592 64.9702L24.4541 64.9923C24.7289 64.3708 24.8788 63.6974 24.8947 63.0135C24.9105 62.3295 24.792 61.6494 24.5463 61.0148L20.7069 63.0878L24.252 60.3828C23.9199 59.7869 23.4735 59.2684 22.9406 58.8597C22.4077 58.4511 21.7996 58.1609 21.1542 58.0072C20.5089 57.8536 19.84 57.8398 19.1893 57.9666C18.5386 58.0935 17.9199 58.3584 17.3718 58.7448C16.8237 59.1311 16.3579 59.6307 16.0034 60.2125C15.6488 60.7942 15.4131 61.4457 15.311 62.1263C15.2088 62.8069 15.2423 63.502 15.4095 64.1686C15.5767 64.8351 15.8739 65.4587 16.2826 66.0006C16.0682 66.2846 15.8836 66.5917 15.732 66.9166L19.1684 68.7732L15.5051 67.4945C15.2474 68.2855 15.1835 69.1309 15.3193 69.9541C15.4551 70.7773 15.7862 71.5522 16.2826 72.2085C15.7228 72.949 15.3745 73.8385 15.2776 74.7752C15.1806 75.712 15.339 76.6582 15.7346 77.5057C16.1302 78.3532 16.747 79.0678 17.5145 79.5677C18.282 80.0677 19.1692 80.3328 20.0747 80.3328C20.9802 80.3328 21.8674 80.0677 22.635 79.5677C23.4025 79.0678 24.0193 78.3532 24.4148 77.5057C24.8104 76.6582 24.9688 75.712 24.8719 74.7752C24.775 73.8385 24.4267 72.949 23.8668 72.2085C24.5358 71.3237 24.8996 70.2304 24.8996 69.1046C24.8996 67.9787 24.5358 66.8855 23.8668 66.0006L23.8633 65.9969Z" fill="#FF4D85"/>
<path opacity="0.1" d="M15.251 69.099C15.2496 70.225 15.6135 71.3185 16.2838 72.2024C15.7239 72.9429 15.3756 73.8323 15.2787 74.7691C15.1818 75.7058 15.3402 76.6521 15.7358 77.4996C16.1314 78.3471 16.7482 79.0616 17.5157 79.5616C18.2832 80.0615 19.1704 80.3266 20.0759 80.3266C20.9814 80.3266 21.8686 80.0615 22.6361 79.5616C23.4036 79.0616 24.0204 78.3471 24.416 77.4996C24.8116 76.6521 24.97 75.7058 24.8731 74.7691C24.7761 73.8323 24.4278 72.9429 23.868 72.2024C24.5108 71.3503 15.251 68.5371 15.251 69.099Z" fill="black"/>
<path d="M62.1515 67.3777C62.2248 68.3613 62.5887 69.3794 63.3545 69.9597C64.1202 70.5401 65.3386 70.529 65.9235 69.7495C66.1199 69.4568 66.2644 69.1299 66.3501 68.7843C66.8429 67.1637 67.1926 65.3907 66.6526 63.7862C65.4343 63.7038 64.0221 63.1075 63.1075 64.1551C62.3689 65.0084 62.0664 66.2404 62.1515 67.3777Z" fill="#3F3D56"/>
<path d="M67.8071 57.4639C67.6452 58.8939 67.3699 60.3177 67.3983 61.7575C67.4089 62.3132 67.4656 62.8641 67.4668 63.4223C67.4689 64.8717 67.1019 66.2959 66.4033 67.5498C66.3297 67.6973 66.2312 67.8297 66.1126 67.9408C65.8325 68.1769 65.4106 68.1572 65.0963 67.9765C64.7892 67.7777 64.5397 67.496 64.3743 67.1613C63.4939 65.5924 63.4691 63.6854 63.1205 61.9062C62.8534 60.5451 62.3855 59.2259 62.2165 57.8488C62.1066 56.9623 62.1231 56.0586 61.9483 55.1831C61.8951 54.9188 61.7462 54.5216 61.6481 54.1319C61.5583 53.7839 61.5087 53.4421 61.6008 53.2072C61.7887 52.7265 62.4044 52.9134 62.805 52.9429C64.2157 53.0517 65.6324 53.048 67.0426 52.9318C67.182 52.9208 67.3404 52.9146 67.4385 53.0179C67.4812 53.0701 67.5134 53.1307 67.533 53.1962C67.6453 53.5158 67.7311 53.8449 67.7894 54.1798C67.9844 55.2507 67.93 56.3733 67.8071 57.4639Z" fill="#FABDBD"/>
<g opacity="0.1">
<path opacity="0.1" d="M67.2636 52.9318C67.1909 52.9238 67.1176 52.9238 67.0449 52.9318C66.369 52.9884 65.6919 53.0166 65.016 53.0203C65.7652 53.022 66.5144 52.9925 67.2636 52.9318Z" fill="black"/>
<path opacity="0.1" d="M65.3351 67.9765C65.028 67.7777 64.7784 67.496 64.613 67.1613C63.7327 65.5924 63.7079 63.6854 63.3592 61.9062C63.0922 60.5451 62.6242 59.2258 62.4552 57.8488C62.3453 56.9623 62.3619 56.0585 62.187 55.1831C62.1338 54.9188 61.9849 54.5216 61.8868 54.1319C61.797 53.7839 61.7474 53.4421 61.8396 53.2072C61.8787 53.111 61.9446 53.0291 62.0289 52.9721C62.1131 52.9151 62.2118 52.8857 62.3122 52.8876C62.0133 52.8667 61.7214 52.9035 61.6032 53.2072C61.511 53.4421 61.5607 53.7839 61.6505 54.1319C61.7486 54.5216 61.8975 54.9188 61.9506 55.1831C62.1255 56.0585 62.109 56.9623 62.2189 57.8488C62.3879 59.2271 62.8558 60.5464 63.1229 61.9062C63.4715 63.6854 63.4963 65.5949 64.3767 67.1613C64.5421 67.496 64.7916 67.7777 65.0987 67.9765C65.2874 68.0851 65.5036 68.1306 65.718 68.1068C65.5837 68.0885 65.4538 68.0443 65.3351 67.9765Z" fill="black"/>
</g>
<path d="M72.2751 65.0047C71.5661 66.4801 71.6843 68.5703 71.6843 68.5703C71.8024 73.4885 69.9117 83.8167 69.9117 83.8167H68.2574C68.2574 83.8167 68.021 72.3819 68.2574 71.3983C68.4937 70.4146 68.1392 66.9719 67.7847 62.1767C67.5212 58.611 68.2385 55.3798 68.6237 53.9621C68.756 53.4703 68.8482 53.2011 68.8482 53.2011C68.8482 53.2011 71.5661 49.0206 73.1023 50.9879C73.4568 51.4453 73.6447 52.3686 73.7097 53.5343C73.92 57.3803 72.8187 63.8722 72.2751 65.0047Z" fill="#FABDBD"/>
<path opacity="0.1" d="M73.7097 53.5342C73.6447 52.3686 73.4592 51.444 73.1023 50.9878C72.7596 50.5501 72.3579 50.4173 71.9419 50.4751C72.2643 50.5308 72.5533 50.7146 72.7478 50.9878C73.1023 51.4452 73.2902 52.3686 73.3552 53.5342C73.5656 57.3802 72.4642 63.8722 71.9206 65.0046C71.2116 66.4801 71.3298 68.5703 71.3298 68.5703C71.4479 73.4885 69.5572 83.8166 69.5572 83.8166H69.9117C69.9117 83.8166 71.8025 73.4885 71.6843 68.5703C71.6843 68.5703 71.5661 66.4801 72.2751 65.0046C72.8187 63.8722 73.9201 57.3802 73.7097 53.5342Z" fill="black"/>
<path d="M67.3971 83.3678C67.2651 83.4756 67.1509 83.6052 67.0591 83.7515C66.8476 84.167 67.1478 84.6638 67.4692 84.9945C67.7906 85.3253 68.1782 85.6794 68.1782 86.1503C68.1782 86.529 67.9028 86.8536 67.5944 87.0552C67.429 87.1634 67.221 87.3012 67.2553 87.5053C67.2673 87.5569 67.2885 87.6057 67.3179 87.6491C67.5826 88.0708 68.0517 88.318 68.5268 88.4114C69.0018 88.5049 69.4922 88.4643 69.9755 88.4237C70.0479 88.4264 70.1186 88.401 70.174 88.3524C70.209 88.3034 70.2277 88.2438 70.2272 88.1827C70.2508 87.9221 70.2355 87.6467 70.3454 87.4118C70.499 87.0909 70.8523 86.9274 71.0544 86.6397C71.338 86.2462 71.299 85.6991 71.1914 85.2208C70.9551 84.1793 70.4293 82.9916 69.6399 82.2699C68.7253 81.4411 68.008 82.769 67.3971 83.3678Z" fill="#3F3D56"/>
<path d="M70.9776 21.3928C71.637 20.3674 71.4657 18.9337 70.7921 17.9132C70.1185 16.8927 69.0361 16.2509 67.9194 15.8365C66.4139 15.2783 64.7536 15.0877 63.2068 15.507C61.9754 15.8402 60.8694 16.5373 59.7089 17.0759C57.6559 18.029 55.4238 18.4911 53.1765 18.4284C50.6819 18.3558 47.9487 17.6906 45.8559 19.1095C42.0248 21.7026 43.7288 28.7602 40.1045 31.6509C39.1273 32.4304 37.8971 32.771 36.81 33.3722C35.7228 33.9735 34.6923 35.0198 34.7183 36.301C34.7302 36.9158 34.9901 37.5023 35.3092 38.0224C36.6682 40.2638 39.2088 41.6507 41.753 41.6249C44.2972 41.5991 46.78 40.1913 48.2464 38.0248C48.614 37.4826 48.9377 36.8789 49.4707 36.5174C50.5342 35.792 51.9357 36.2998 53.2049 36.408C56.0303 36.6477 58.8569 34.4407 59.4194 31.5451C59.6558 30.3094 59.6144 28.8328 60.5704 28.0569C61.342 27.4311 62.428 27.5651 63.4065 27.4581C65.1956 27.2651 66.6077 26.1056 67.5791 24.5908C68.0246 23.8961 68.0766 23.0662 68.6839 22.5191C69.3386 21.9178 70.3513 22.3617 70.9776 21.3928Z" fill="#3F3D56"/>
<g opacity="0.1">
<path opacity="0.1" d="M50.8131 18.6657C51.8493 18.6953 52.8857 18.6129 53.9056 18.4198C53.6244 18.4284 53.3408 18.4284 53.0583 18.4198C51.1002 18.3632 48.9956 17.9427 47.1687 18.4493C48.3741 18.4616 49.6208 18.6313 50.8131 18.6657Z" fill="black"/>
<path opacity="0.1" d="M47.1049 36.7621C46.572 37.1236 46.2482 37.7273 45.8807 38.2695C44.7511 39.9192 43.1002 41.1034 41.2165 41.6151C41.3548 41.6212 41.493 41.6249 41.6325 41.6237C44.179 41.5979 46.6594 40.1901 48.1259 38.0236C48.4934 37.4814 48.8172 36.8777 49.3502 36.5162L49.4423 36.4572C48.608 36.3379 47.7891 36.2961 47.1049 36.7621Z" fill="black"/>
<path opacity="0.1" d="M70.6728 17.9095C70.0004 16.8939 68.9168 16.2472 67.8001 15.8328C66.2946 15.2746 64.6343 15.084 63.0874 15.5033C63.052 15.5119 63.0177 15.523 62.9834 15.5328C63.8615 15.5838 64.7278 15.7677 65.5548 16.0787C66.6715 16.4931 67.7552 17.1398 68.4275 18.1554C69.0999 19.171 69.2725 20.6145 68.6131 21.635C67.9868 22.6076 66.974 22.1638 66.3111 22.7625C65.7037 23.3097 65.6517 24.1396 65.2062 24.8343C64.3708 26.1339 63.208 27.1704 61.7604 27.5639C62.2579 27.5024 62.7825 27.5098 63.2789 27.4557C65.068 27.2627 66.4801 26.1032 67.4515 24.5884C67.897 23.8937 67.949 23.0638 68.5563 22.5166C69.2193 21.9178 70.232 22.3617 70.8583 21.3891C71.5189 20.3637 71.3475 18.9251 70.6728 17.9095Z" fill="black"/>
<path opacity="0.1" d="M61.0348 27.7016C60.0623 27.8074 58.9763 27.6746 58.1987 28.3004C57.2427 29.0763 57.2888 30.553 57.0478 31.7886C56.633 33.9489 54.9479 35.7306 52.9473 36.3933L53.0879 36.4068C55.9133 36.6466 58.74 34.4395 59.3025 31.544C59.5388 30.3083 59.4974 28.8316 60.4534 28.0558C60.673 27.8849 60.9221 27.7597 61.1873 27.6869C61.1341 27.6881 61.0856 27.6967 61.0348 27.7016Z" fill="black"/>
</g>
<path d="M89.587 16.991C89.587 16.991 86.751 22.8928 85.8056 25.106C84.8602 27.3192 76.2338 30.639 75.0521 30.7619C74.7351 30.8071 74.4399 30.9551 74.2084 31.1849C73.5407 31.7996 73.1614 32.8521 73.1614 32.8521C73.1614 32.8521 73.6341 36.1719 73.0432 41.7048C73.0314 41.8118 73.0208 41.9188 73.0113 42.0221C72.4961 47.287 73.575 48.5288 73.575 48.5288C73.575 48.5288 62.1125 53.0781 62.467 47.1763C62.5781 45.3185 62.5616 43.961 62.4517 42.8262C62.3314 41.6644 62.1042 40.5173 61.7734 39.4007C61.4933 38.3814 61.1589 37.2637 60.8126 35.7416C60.646 34.9821 60.4264 34.2362 60.1556 33.5099C60.1473 33.4878 60.1391 33.4657 60.132 33.4448C59.5411 31.9189 58.9503 31.4259 58.6123 31.266C58.2932 31.1216 57.9891 30.9436 57.7048 30.7349C56.6129 29.9148 54.2696 28.0766 52.1827 25.9052C49.3466 22.9543 46.5105 15.9459 46.5105 15.9459C46.5105 15.9459 45.6833 11.8884 47.5741 8.56866C49.4648 5.24889 48.6376 15.0852 48.6376 15.0852C48.6376 15.0852 52.0645 19.8805 52.8917 22.0936C53.3171 23.2322 53.9931 23.815 54.5461 24.1175C55.4598 24.6123 56.3346 25.1813 57.1624 25.8191C57.7218 26.2591 58.3097 26.6584 58.9219 27.0143C60.2431 27.752 61.8254 28.5844 63.1441 28.8032C63.35 28.8386 63.5582 28.8571 63.7669 28.8586C63.8659 28.8619 63.9643 28.8414 64.0544 28.7987C64.1446 28.7561 64.2241 28.6924 64.2868 28.6127C64.6414 28.1786 64.6331 27.2442 64.5515 26.4757C64.508 26.0776 64.4433 25.6823 64.3577 25.2917C64.3577 25.2917 68.1983 22.7711 68.0801 25.845C68.0618 26.1846 68.092 26.5252 68.1699 26.8556C68.2328 27.1589 68.3719 27.4394 68.5731 27.6684C68.7743 27.8974 69.0303 28.0667 69.315 28.159C69.7761 28.2997 70.2641 28.3162 70.733 28.2069C70.8792 28.1809 71.0204 28.1307 71.1513 28.0581C71.5058 27.8122 75.0509 26.7056 76.1145 26.5827C77.178 26.4597 82.4957 23.7547 82.4957 23.7547L88.286 15.3939C88.286 15.3939 88.1678 10.4757 90.5312 8.50841C92.8946 6.54115 89.587 16.991 89.587 16.991Z" fill="#FABDBD"/>
<g opacity="0.1">
<path opacity="0.1" d="M73.0113 41.2843C72.9081 42.2724 72.8627 43.266 72.8754 44.2598C72.8873 43.6106 72.9286 42.8692 73.0113 42.022C73.0208 41.9188 73.0314 41.8118 73.0432 41.7048C73.2499 39.8113 73.3486 37.9067 73.3386 36.001C73.3204 37.6605 73.2218 39.3179 73.0432 40.9671C73.0361 41.0741 73.0208 41.181 73.0113 41.2843Z" fill="black"/>
<path opacity="0.1" d="M64.4807 25.213C64.4015 25.2609 64.3625 25.2904 64.3625 25.2904C64.4773 25.8164 64.5532 26.3508 64.5894 26.8889C64.6132 26.3278 64.5768 25.7657 64.4807 25.213Z" fill="black"/>
<path opacity="0.1" d="M48.6931 14.4176C48.751 13.5569 48.8372 12.0139 48.8207 10.6417C48.8006 12.4762 48.6435 14.3475 48.6435 14.3475L48.6931 14.4176Z" fill="black"/>
<path opacity="0.1" d="M62.4753 47.0323C62.4753 47.0803 62.4753 47.1283 62.467 47.1762C62.1125 53.078 73.575 48.5287 73.575 48.5287C73.441 48.3403 73.3398 48.1289 73.2761 47.9041C71.5496 48.5435 62.8735 51.5165 62.4753 47.0323Z" fill="black"/>
<path opacity="0.1" d="M89.5871 16.2533C89.5871 16.2533 86.751 22.1551 85.8056 24.3683C84.8603 26.5815 76.2338 29.9012 75.0521 30.0242C74.7352 30.0694 74.4399 30.2174 74.2084 30.4472C73.5407 31.0619 73.1614 32.1144 73.1614 32.1144C73.1614 32.1144 73.1898 32.3148 73.224 32.696C73.3564 32.38 73.6967 31.6546 74.2084 31.1849C74.4399 30.9551 74.7352 30.8071 75.0521 30.7619C76.2338 30.639 84.8603 27.3192 85.8056 25.106C86.751 22.8928 89.5871 16.991 89.5871 16.991C89.5871 16.991 91.5854 10.6773 91.3656 8.78876C91.1836 11.2085 89.5871 16.2533 89.5871 16.2533Z" fill="black"/>
<path opacity="0.1" d="M62.4517 42.0885C62.3314 40.9267 62.1042 39.7796 61.7734 38.663C61.4933 37.6437 61.1589 36.526 60.8126 35.0038C60.646 34.2444 60.4264 33.4985 60.1556 32.7722C60.1473 32.7501 60.1391 32.728 60.132 32.7071C59.5411 31.1812 58.9503 30.6882 58.6123 30.5283C58.2932 30.3839 57.9891 30.2059 57.7048 29.9972C56.6129 29.1771 54.2696 27.3389 52.1827 25.1675C49.3466 22.2166 46.5105 15.2082 46.5105 15.2082C46.4057 14.6166 46.3472 14.0171 46.3356 13.4156C46.3068 14.2631 46.3654 15.1114 46.5105 15.946C46.5105 15.946 49.3466 22.9543 52.1827 25.9052C54.2696 28.0766 56.6129 29.9148 57.7048 30.7349C57.9914 30.9441 58.2978 31.1221 58.6194 31.266C58.9562 31.4259 59.5459 31.9189 60.1391 33.4448C60.1462 33.4657 60.1544 33.4878 60.1627 33.51C60.4323 34.2363 60.6507 34.9822 60.8162 35.7416C61.1624 37.2637 61.4968 38.3814 61.7769 39.4007C62.1078 40.5173 62.3349 41.6644 62.4552 42.8262C62.5048 43.3401 62.5344 43.8996 62.5426 44.5291C62.557 43.7144 62.5266 42.8995 62.4517 42.0885Z" fill="black"/>
</g>
<path d="M74.1553 36.7473C73.9749 37.0577 73.8169 37.3815 73.6826 37.7162C73.5041 38.2326 73.503 38.7945 73.4699 39.3417C73.4227 40.1095 73.3104 40.8715 73.1343 41.6188C73.1058 41.7564 73.0663 41.8913 73.0161 42.0221C72.9808 42.1101 72.9343 42.1928 72.8778 42.268C72.8148 42.3482 72.7408 42.4182 72.658 42.4758C72.5312 42.5638 72.3972 42.6399 72.2574 42.7033C70.6125 43.5025 68.8187 44.2082 67.0237 43.9328C66.2648 43.7948 65.5305 43.5377 64.8458 43.1705C64.1959 42.8422 63.4609 42.4524 62.7873 42.7254C62.6839 42.78 62.5725 42.8161 62.4576 42.8324C62.4354 42.8328 62.4132 42.8307 62.3914 42.8262C62.1692 42.7819 62.1692 42.0024 62.1184 41.7725C61.9246 40.8897 61.8951 40.1741 61.7793 39.4069C61.7177 38.9826 61.6225 38.5643 61.4945 38.1564C61.0218 36.6687 60.8788 35.0825 60.8788 33.5235C60.8788 33.446 60.3471 33.5235 60.1698 33.5161C60.1249 33.5161 60.1001 33.5087 60.1107 33.4927C60.121 33.4775 60.1329 33.4634 60.1462 33.4509C60.2081 33.3987 60.2803 33.3613 60.3577 33.3415L60.4971 33.2985C61.2274 33.0833 62.0334 32.9936 62.5793 32.4587C63.1465 31.9066 63.2883 31.0251 63.2635 30.2185C63.2564 29.959 63.1347 29.3295 63.1548 28.807C63.3607 28.8424 63.5689 28.8609 63.7775 28.8623C63.8765 28.8656 63.9749 28.8451 64.0651 28.8025C64.1553 28.7598 64.2348 28.6961 64.2975 28.6164C64.4946 29.0135 64.6652 29.4243 64.808 29.8459C65.0089 30.3599 65.1625 30.9009 65.4567 31.3656C65.9294 32.123 66.8015 32.621 67.6689 32.5448C68.5363 32.4685 69.3434 31.7751 69.4982 30.8849C69.6341 30.1041 69.3185 28.9803 69.3256 28.1688C69.7868 28.3096 70.2747 28.3261 70.7437 28.2168C70.7636 28.2669 70.7806 28.3182 70.7945 28.3705C71.0604 29.3197 71.4149 30.4091 72.3071 30.7459C72.8837 30.9623 73.5656 30.8 74.0985 31.1148C74.1395 31.1393 74.179 31.1664 74.2167 31.196C74.3397 31.2911 74.4457 31.4081 74.5299 31.5415C74.7488 31.9175 74.8788 32.3423 74.9092 32.7808C75.0456 34.1517 74.783 35.5337 74.1553 36.7473Z" fill="#FF4D85"/>
<path opacity="0.1" d="M68.1699 26.8544C67.5804 27.0908 66.9457 27.1796 66.3171 27.1136C65.6886 27.0476 65.0837 26.8287 64.5515 26.4745C64.508 26.0764 64.4433 25.6811 64.3577 25.2904C64.3577 25.2904 68.1983 22.7699 68.0801 25.8437C68.0618 26.1834 68.092 26.524 68.1699 26.8544Z" fill="black"/>
<path d="M66.72 26.8889C68.9389 26.8889 70.7377 25.0172 70.7377 22.7084C70.7377 20.3996 68.9389 18.528 66.72 18.528C64.501 18.528 62.7022 20.3996 62.7022 22.7084C62.7022 25.0172 64.501 26.8889 66.72 26.8889Z" fill="#FABDBD"/>
<path d="M59.69 33.0981C59.69 33.0981 67.4892 27.934 91.7141 33.4669C115.939 38.9999 130.001 34.5735 130.001 34.5735V40.3524C130.001 40.3524 102.822 43.4262 92.4231 40.3524C82.0241 37.2785 67.221 35.5055 62.0369 40.2651L59.69 33.0981Z" fill="#F86D70"/>
<path opacity="0.1" d="M59.69 33.0981C59.69 33.0981 67.4892 27.934 91.7141 33.4669C115.939 38.9999 130.001 34.5735 130.001 34.5735V40.3524C130.001 40.3524 102.822 43.4262 92.4231 40.3524C82.0241 37.2785 67.221 35.5055 62.0369 40.2651L59.69 33.0981Z" fill="black"/>
<path d="M59.9263 33.344C59.9263 33.344 67.4892 28.1799 91.7141 33.7129C115.939 39.2458 129.765 34.8194 129.765 34.8194L129.883 40.1065C129.883 40.1065 102.94 43.1803 92.5413 40.1065C82.1423 37.0326 67.4573 34.8908 62.2732 39.6503L59.9263 33.344Z" fill="#F86D70"/>
<path d="M57.0832 41.2868C57.0832 41.2868 49.284 46.4509 25.0591 40.918C0.834289 35.385 2.01599 39.8114 2.01599 39.8114V34.0325C2.01599 34.0325 13.9512 30.9587 24.3501 34.0325C34.7491 37.1064 49.5522 38.8794 54.7364 34.1198L57.0832 41.2868Z" fill="#F86D70"/>
<path opacity="0.1" d="M57.0832 41.2868C57.0832 41.2868 49.284 46.4509 25.0591 40.918C0.834289 35.385 2.01599 39.8114 2.01599 39.8114V34.0325C2.01599 34.0325 13.9512 30.9587 24.3501 34.0325C34.7491 37.1064 49.5522 38.8794 54.7364 34.1198L57.0832 41.2868Z" fill="black"/>
<path d="M56.8469 41.0409C56.8469 41.0409 49.284 46.205 25.0591 40.6721C0.834285 35.1391 2.25233 39.5655 2.25233 39.5655L2.13416 34.2785C2.13416 34.2785 13.833 31.2046 24.2319 34.2785C34.6309 37.3523 49.3159 39.4942 54.5 34.7346L56.8469 41.0409Z" fill="#F86D70"/>
<path d="M63.2647 23.4007C63.1465 22.6334 62.9645 21.667 63.5814 21.2281C63.8014 21.0893 64.0557 21.0208 64.3128 21.0313C65.5902 21.0178 66.8109 21.9436 68.0635 21.6732C68.4622 21.5862 68.8282 21.3813 69.1176 21.0831C69.407 20.7849 69.6074 20.4061 69.6948 19.9921C69.7821 19.5782 69.7527 19.1469 69.6101 18.7499C69.4675 18.353 69.2176 18.0073 68.8907 17.7546C68.3979 17.3734 67.7752 17.2357 67.1725 17.1066C65.5879 16.7673 63.9335 16.4291 62.3689 16.8607C60.8044 17.2923 59.3745 18.7518 59.4998 20.4264C59.5589 21.2281 59.9512 21.9559 60.3612 22.6396C60.6732 23.1584 61.888 25.5905 62.4777 25.6274C63.3096 25.6778 63.3462 23.9023 63.2647 23.4007Z" fill="#3F3D56"/>
<path d="M73.2205 46.4385C73.2205 46.4385 65.0668 48.5288 62.3489 46.4385C62.3489 46.4385 61.1672 51.2338 61.5217 53.6928C61.5217 53.6928 67.312 54.0617 67.9028 54.4306C67.9028 54.4306 68.021 53.4469 68.6118 53.9387C68.6118 53.9387 70.6207 51.4797 74.284 53.6928C74.284 53.6928 74.993 47.914 73.2205 46.4385Z" fill="#FF4D85"/>
<path opacity="0.1" d="M68.893 17.7546C68.809 17.6912 68.7209 17.6337 68.6295 17.5825C68.8734 17.8709 69.0402 18.2209 69.1133 18.5974C69.1864 18.974 69.1632 19.3639 69.0461 19.7282C68.929 20.0925 68.7221 20.4184 68.4459 20.6734C68.1698 20.9284 67.8342 21.1036 67.4727 21.1813C66.2201 21.4518 64.9994 20.526 63.722 20.5395C63.4649 20.529 63.2105 20.5974 62.9905 20.7362C62.3737 21.1752 62.5545 22.1416 62.6726 22.9088C62.7506 23.4105 62.7187 25.1859 61.8892 25.138H61.875C62.1031 25.4269 62.3158 25.6224 62.48 25.6298C63.3072 25.6778 63.3415 23.9084 63.2635 23.4006C63.1453 22.6334 62.9645 21.667 63.5814 21.228C63.8014 21.0892 64.0557 21.0208 64.3128 21.0313C65.5902 21.0178 66.8109 21.9436 68.0635 21.6731C68.4621 21.5862 68.8282 21.3813 69.1175 21.0831C69.4069 20.7849 69.6074 20.4061 69.6947 19.9921C69.7821 19.5782 69.7527 19.1469 69.6101 18.7499C69.4674 18.353 69.2176 18.0073 68.8907 17.7546H68.893Z" fill="black"/>
</g>
<defs>
<clipPath id="clip0">
<rect width="130" height="90" fill="white"/>
</clipPath>
</defs>
</svg>
