<svg width="130" height="100" viewBox="0 0 130 100" fill="none" xmlns="http://www.w3.org/2000/svg">
<g clip-path="url(#clip0)">
<path d="M62.8954 88.4137C34.9145 86.2562 1.54606 64.289 3.2449 41.6702C4.94374 19.0514 37.2614 -2.00489 65.2423 0.152604C93.2231 2.31009 109.33 44.5809 107.631 67.1997C105.932 89.8186 90.8762 90.5712 62.8954 88.4137Z" fill="#F2F2F2"/>
<path d="M65.242 92.0468C97.5005 92.0468 123.651 90.4235 123.651 88.4211C123.651 86.4186 97.5005 84.7953 65.242 84.7953C32.9835 84.7953 6.83289 86.4186 6.83289 88.4211C6.83289 90.4235 32.9835 92.0468 65.242 92.0468Z" fill="#3F3D56"/>
<path opacity="0.1" d="M65.2421 90.7602C92.7191 90.7602 114.994 89.6868 114.994 88.3626C114.994 87.0384 92.7191 85.9649 65.2421 85.9649C37.765 85.9649 15.4904 87.0384 15.4904 88.3626C15.4904 89.6868 37.765 90.7602 65.2421 90.7602Z" fill="black"/>
<path d="M24.4942 100C38.0219 100 48.9883 99.0313 48.9883 97.8363C48.9883 96.6413 38.0219 95.6725 24.4942 95.6725C10.9664 95.6725 0 96.6413 0 97.8363C0 99.0313 10.9664 100 24.4942 100Z" fill="#3F3D56"/>
<path opacity="0.1" d="M24.4941 99.2322C36.0168 99.2322 45.3577 98.5916 45.3577 97.8013C45.3577 97.0111 36.0168 96.3705 24.4941 96.3705C12.9715 96.3705 3.63055 97.0111 3.63055 97.8013C3.63055 98.5916 12.9715 99.2322 24.4941 99.2322Z" fill="black"/>
<path d="M109.453 18.9474H22.6472V87.9532H109.453V18.9474Z" fill="#3F3D56"/>
<path d="M65.0625 28.3777H43.6476C43.6134 28.3778 43.5796 28.371 43.548 28.3578C43.5164 28.3446 43.4877 28.3252 43.4635 28.3008C43.4393 28.2763 43.4201 28.2472 43.407 28.2153C43.3939 28.1833 43.3872 28.149 43.3872 28.1144C43.3872 28.0797 43.3939 28.0454 43.407 28.0135C43.4201 27.9815 43.4393 27.9524 43.4635 27.928C43.4877 27.9035 43.5164 27.8841 43.548 27.8709C43.5796 27.8577 43.6134 27.851 43.6476 27.851H65.0625C65.1313 27.8512 65.1973 27.879 65.2459 27.9284C65.2945 27.9777 65.3218 28.0446 65.3218 28.1144C65.3218 28.1841 65.2945 28.251 65.2459 28.3004C65.1973 28.3497 65.1313 28.3775 65.0625 28.3777Z" fill="#F2F2F2"/>
<path d="M88.5044 31.2743H54.8228C54.7539 31.2743 54.6878 31.2465 54.639 31.1971C54.5903 31.1477 54.5629 31.0808 54.5629 31.0109C54.5629 30.9411 54.5903 30.8741 54.639 30.8247C54.6878 30.7753 54.7539 30.7476 54.8228 30.7476H88.5044C88.5386 30.7476 88.5724 30.7544 88.6039 30.7676C88.6354 30.7809 88.6641 30.8003 88.6882 30.8247C88.7123 30.8492 88.7315 30.8782 88.7445 30.9102C88.7576 30.9421 88.7643 30.9763 88.7643 31.0109C88.7643 31.0455 88.7576 31.0798 88.7445 31.1117C88.7315 31.1436 88.7123 31.1727 88.6882 31.1971C88.6641 31.2216 88.6354 31.241 88.6039 31.2542C88.5724 31.2674 88.5386 31.2743 88.5044 31.2743Z" fill="#F2F2F2"/>
<path d="M65.1664 34.1708H43.7516C43.6826 34.1708 43.6165 34.1431 43.5678 34.0937C43.519 34.0443 43.4917 33.9773 43.4917 33.9075C43.4917 33.8377 43.519 33.7707 43.5678 33.7213C43.6165 33.6719 43.6826 33.6442 43.7516 33.6442H65.1664C65.2353 33.6442 65.3015 33.6719 65.3502 33.7213C65.3989 33.7707 65.4263 33.8377 65.4263 33.9075C65.4263 33.9773 65.3989 34.0443 65.3502 34.0937C65.3015 34.1431 65.2353 34.1708 65.1664 34.1708Z" fill="#F2F2F2"/>
<path d="M88.5045 34.2235H67.0896C67.0207 34.2235 66.9546 34.1957 66.9059 34.1464C66.8571 34.097 66.8297 34.03 66.8297 33.9602C66.8297 33.8903 66.8571 33.8233 66.9059 33.774C66.9546 33.7246 67.0207 33.6968 67.0896 33.6968H88.5045C88.5734 33.6968 88.6395 33.7246 88.6883 33.774C88.737 33.8233 88.7644 33.8903 88.7644 33.9602C88.7644 34.03 88.737 34.097 88.6883 34.1464C88.6395 34.1957 88.5734 34.2235 88.5045 34.2235Z" fill="#F2F2F2"/>
<path d="M65.2185 37.0674H43.8035C43.7346 37.0674 43.6685 37.0397 43.6198 36.9903C43.571 36.9409 43.5436 36.8739 43.5436 36.8041C43.5436 36.7342 43.571 36.6673 43.6198 36.6179C43.6685 36.5685 43.7346 36.5408 43.8035 36.5408H65.2185C65.2874 36.5408 65.3535 36.5685 65.4022 36.6179C65.451 36.6673 65.4783 36.7342 65.4783 36.8041C65.4783 36.8739 65.451 36.9409 65.4022 36.9903C65.3535 37.0397 65.2874 37.0674 65.2185 37.0674Z" fill="#F2F2F2"/>
<path d="M65.2704 39.964H43.8555C43.7866 39.964 43.7205 39.9362 43.6717 39.8869C43.623 39.8375 43.5956 39.7705 43.5956 39.7007C43.5956 39.6308 43.623 39.5638 43.6717 39.5145C43.7205 39.4651 43.7866 39.4373 43.8555 39.4373H65.2704C65.3393 39.4373 65.4054 39.4651 65.4541 39.5145C65.5029 39.5638 65.5303 39.6308 65.5303 39.7007C65.5303 39.7705 65.5029 39.8375 65.4541 39.8869C65.4054 39.9362 65.3393 39.964 65.2704 39.964Z" fill="#F2F2F2"/>
<path d="M74.9903 28.4303H68.8569C68.7879 28.4303 68.7218 28.4026 68.6731 28.3532C68.6244 28.3038 68.597 28.2369 68.597 28.167C68.597 28.0972 68.6244 28.0302 68.6731 27.9808C68.7218 27.9314 68.7879 27.9037 68.8569 27.9037H74.9903C75.0592 27.9037 75.1253 27.9314 75.174 27.9808C75.2228 28.0302 75.2502 28.0972 75.2502 28.167C75.2502 28.2369 75.2228 28.3038 75.174 28.3532C75.1253 28.4026 75.0592 28.4303 74.9903 28.4303Z" fill="#F2F2F2"/>
<path d="M74.9903 37.0674H68.8569C68.7879 37.0674 68.7218 37.0397 68.6731 36.9903C68.6244 36.9409 68.597 36.8739 68.597 36.8041C68.597 36.7342 68.6244 36.6673 68.6731 36.6179C68.7218 36.5685 68.7879 36.5408 68.8569 36.5408H74.9903C75.0592 36.5408 75.1253 36.5685 75.174 36.6179C75.2228 36.6673 75.2502 36.7342 75.2502 36.8041C75.2502 36.8739 75.2228 36.9409 75.174 36.9903C75.1253 37.0397 75.0592 37.0674 74.9903 37.0674Z" fill="#F2F2F2"/>
<path d="M74.9903 39.9113H68.8569C68.8227 39.9114 68.7888 39.9046 68.7572 39.8914C68.7257 39.8782 68.6969 39.8588 68.6728 39.8344C68.6486 39.8099 68.6294 39.7809 68.6163 39.7489C68.6032 39.7169 68.5964 39.6826 68.5964 39.648C68.5964 39.6134 68.6032 39.5791 68.6163 39.5471C68.6294 39.5151 68.6486 39.486 68.6728 39.4616C68.6969 39.4371 68.7257 39.4177 68.7572 39.4045C68.7888 39.3913 68.8227 39.3846 68.8569 39.3847H74.9903C75.0244 39.3846 75.0583 39.3913 75.0899 39.4045C75.1215 39.4177 75.1502 39.4371 75.1744 39.4616C75.1986 39.486 75.2178 39.5151 75.2309 39.5471C75.244 39.5791 75.2507 39.6134 75.2507 39.648C75.2507 39.6826 75.244 39.7169 75.2309 39.7489C75.2178 39.7809 75.1986 39.8099 75.1744 39.8344C75.1502 39.8588 75.1215 39.8782 75.0899 39.8914C75.0583 39.9046 75.0244 39.9114 74.9903 39.9113Z" fill="#F2F2F2"/>
<path d="M85.2818 39.9113H79.1485C79.0796 39.9112 79.0137 39.8833 78.9651 39.834C78.9164 39.7846 78.8891 39.7177 78.8891 39.648C78.8891 39.5782 78.9164 39.5113 78.9651 39.462C79.0137 39.4126 79.0796 39.3848 79.1485 39.3847H85.2818C85.316 39.3846 85.3499 39.3913 85.3814 39.4045C85.413 39.4177 85.4418 39.4371 85.4659 39.4616C85.4901 39.486 85.5093 39.5151 85.5224 39.5471C85.5355 39.5791 85.5423 39.6134 85.5423 39.648C85.5423 39.6826 85.5355 39.7169 85.5224 39.7489C85.5093 39.7809 85.4901 39.8099 85.4659 39.8344C85.4418 39.8588 85.413 39.8782 85.3814 39.8914C85.3499 39.9046 85.316 39.9114 85.2818 39.9113Z" fill="#F2F2F2"/>
<path d="M49.729 31.2743H43.5956C43.5267 31.2743 43.4606 31.2465 43.4118 31.1971C43.3631 31.1477 43.3357 31.0808 43.3357 31.0109C43.3357 30.9411 43.3631 30.8741 43.4118 30.8247C43.4606 30.7753 43.5267 30.7476 43.5956 30.7476H49.729C49.7979 30.7476 49.864 30.7753 49.9128 30.8247C49.9615 30.8741 49.9889 30.9411 49.9889 31.0109C49.9889 31.0808 49.9615 31.1477 49.9128 31.1971C49.864 31.2465 49.7979 31.2743 49.729 31.2743Z" fill="#F2F2F2"/>
<path d="M65.0884 71.0363H43.6736C43.6047 71.0363 43.5386 71.0086 43.4898 70.9592C43.4411 70.9098 43.4137 70.8428 43.4137 70.773C43.4137 70.7032 43.4411 70.6362 43.4898 70.5868C43.5386 70.5374 43.6047 70.5097 43.6736 70.5097H65.0884C65.1574 70.5097 65.2235 70.5374 65.2722 70.5868C65.3209 70.6362 65.3483 70.7032 65.3483 70.773C65.3483 70.8428 65.3209 70.9098 65.2722 70.9592C65.2235 71.0086 65.1574 71.0363 65.0884 71.0363Z" fill="#F2F2F2"/>
<path d="M64.9845 76.8295H43.5696C43.5007 76.8295 43.4346 76.8017 43.3859 76.7523C43.3371 76.703 43.3098 76.636 43.3098 76.5661C43.3098 76.4963 43.3371 76.4293 43.3859 76.38C43.4346 76.3306 43.5007 76.3028 43.5696 76.3028H64.9845C65.0534 76.3028 65.1195 76.3306 65.1683 76.38C65.217 76.4293 65.2444 76.4963 65.2444 76.5661C65.2444 76.636 65.217 76.703 65.1683 76.7523C65.1195 76.8017 65.0534 76.8295 64.9845 76.8295Z" fill="#F2F2F2"/>
<path d="M65.0365 79.7261H43.6216C43.5874 79.7261 43.5536 79.7194 43.522 79.7062C43.4904 79.693 43.4617 79.6736 43.4375 79.6491C43.4133 79.6247 43.3941 79.5956 43.381 79.5636C43.3679 79.5316 43.3612 79.4974 43.3612 79.4627C43.3612 79.4281 43.3679 79.3938 43.381 79.3618C43.3941 79.3298 43.4133 79.3008 43.4375 79.2763C43.4617 79.2519 43.4904 79.2325 43.522 79.2193C43.5536 79.2061 43.5874 79.1993 43.6216 79.1994H65.0365C65.0707 79.1993 65.1045 79.2061 65.1361 79.2193C65.1677 79.2325 65.1964 79.2519 65.2206 79.2763C65.2448 79.3008 65.264 79.3298 65.2771 79.3618C65.2902 79.3938 65.297 79.4281 65.297 79.4627C65.297 79.4974 65.2902 79.5316 65.2771 79.5636C65.264 79.5956 65.2448 79.6247 65.2206 79.6491C65.1964 79.6736 65.1677 79.693 65.1361 79.7062C65.1045 79.7194 65.0707 79.7261 65.0365 79.7261Z" fill="#F2F2F2"/>
<path d="M74.1846 76.8821H68.0512C67.9823 76.8821 67.9162 76.8544 67.8674 76.805C67.8187 76.7556 67.7913 76.6887 67.7913 76.6188C67.7913 76.549 67.8187 76.482 67.8674 76.4326C67.9162 76.3832 67.9823 76.3555 68.0512 76.3555H74.1846C74.2535 76.3555 74.3196 76.3832 74.3684 76.4326C74.4171 76.482 74.4445 76.549 74.4445 76.6188C74.4445 76.6887 74.4171 76.7556 74.3684 76.805C74.3196 76.8544 74.2535 76.8821 74.1846 76.8821Z" fill="#F2F2F2"/>
<path d="M74.1846 79.7261H68.0512C67.9823 79.7261 67.9162 79.6983 67.8674 79.6489C67.8187 79.5995 67.7913 79.5326 67.7913 79.4627C67.7913 79.3929 67.8187 79.3259 67.8674 79.2765C67.9162 79.2271 67.9823 79.1994 68.0512 79.1994H74.1846C74.2535 79.1994 74.3196 79.2271 74.3684 79.2765C74.4171 79.3259 74.4445 79.3929 74.4445 79.4627C74.4445 79.5326 74.4171 79.5995 74.3684 79.6489C74.3196 79.6983 74.2535 79.7261 74.1846 79.7261Z" fill="#F2F2F2"/>
<path d="M84.4762 76.8821H78.3428C78.2739 76.8821 78.2078 76.8544 78.1591 76.805C78.1103 76.7556 78.0829 76.6887 78.0829 76.6188C78.0829 76.549 78.1103 76.482 78.1591 76.4326C78.2078 76.3832 78.2739 76.3555 78.3428 76.3555H84.4762C84.5452 76.3555 84.6113 76.3832 84.66 76.4326C84.7087 76.482 84.7361 76.549 84.7361 76.6188C84.7361 76.6887 84.7087 76.7556 84.66 76.805C84.6113 76.8544 84.5452 76.8821 84.4762 76.8821Z" fill="#F2F2F2"/>
<path d="M88.5305 73.9329H54.8488C54.7799 73.9329 54.7138 73.9052 54.6651 73.8558C54.6163 73.8064 54.589 73.7394 54.589 73.6696C54.589 73.5997 54.6163 73.5328 54.6651 73.4834C54.7138 73.434 54.7799 73.4062 54.8488 73.4062H88.5305C88.5994 73.4062 88.6655 73.434 88.7143 73.4834C88.763 73.5328 88.7904 73.5997 88.7904 73.6696C88.7904 73.7394 88.763 73.8064 88.7143 73.8558C88.6655 73.9052 88.5994 73.9329 88.5305 73.9329Z" fill="#F2F2F2"/>
<path d="M49.755 73.9329H43.6216C43.5527 73.9329 43.4866 73.9052 43.4378 73.8558C43.3891 73.8064 43.3617 73.7394 43.3617 73.6696C43.3617 73.5997 43.3891 73.5328 43.4378 73.4834C43.4866 73.434 43.5527 73.4062 43.6216 73.4062H49.755C49.8239 73.4062 49.89 73.434 49.9388 73.4834C49.9875 73.5328 50.0149 73.5997 50.0149 73.6696C50.0149 73.7394 49.9875 73.8064 49.9388 73.8558C49.89 73.9052 49.8239 73.9329 49.755 73.9329Z" fill="#F2F2F2"/>
<path d="M88.5305 82.6753H54.8488C54.8147 82.6754 54.7808 82.6686 54.7492 82.6554C54.7176 82.6422 54.6889 82.6228 54.6647 82.5984C54.6405 82.5739 54.6213 82.5449 54.6082 82.5129C54.5952 82.4809 54.5884 82.4466 54.5884 82.412C54.5884 82.3773 54.5952 82.343 54.6082 82.3111C54.6213 82.2791 54.6405 82.25 54.6647 82.2256C54.6889 82.2011 54.7176 82.1817 54.7492 82.1685C54.7808 82.1553 54.8147 82.1486 54.8488 82.1486H88.5305C88.5994 82.1486 88.6655 82.1764 88.7143 82.2258C88.763 82.2751 88.7904 82.3421 88.7904 82.412C88.7904 82.4818 88.763 82.5488 88.7143 82.5982C88.6655 82.6475 88.5994 82.6753 88.5305 82.6753Z" fill="#F2F2F2"/>
<path d="M49.755 82.6753H43.6216C43.5874 82.6754 43.5536 82.6686 43.522 82.6554C43.4904 82.6422 43.4617 82.6228 43.4375 82.5984C43.4133 82.5739 43.3941 82.5449 43.381 82.5129C43.3679 82.4809 43.3612 82.4466 43.3612 82.412C43.3612 82.3773 43.3679 82.343 43.381 82.3111C43.3941 82.2791 43.4133 82.25 43.4375 82.2256C43.4617 82.2011 43.4904 82.1817 43.522 82.1685C43.5536 82.1553 43.5874 82.1486 43.6216 82.1486H49.755C49.7892 82.1486 49.823 82.1553 49.8546 82.1685C49.8862 82.1817 49.9149 82.2011 49.9391 82.2256C49.9633 82.25 49.9825 82.2791 49.9956 82.3111C50.0087 82.343 50.0154 82.3773 50.0154 82.412C50.0154 82.4466 50.0087 82.4809 49.9956 82.5129C49.9825 82.5449 49.9633 82.5739 49.9391 82.5984C49.9149 82.6228 49.8862 82.6422 49.8546 82.6554C49.823 82.6686 49.7892 82.6754 49.755 82.6753Z" fill="#F2F2F2"/>
<path d="M59.9167 46.9158L51.6002 55.2368L59.9167 63.5579L61.7878 61.662L55.4986 55.2895L61.8398 48.8643L59.9167 46.9158Z" fill="#FF4D85"/>
<path d="M72.1834 46.9158L80.4999 55.2368L72.1834 63.5579L70.3123 61.662L76.6016 55.2895L70.2603 48.8643L72.1834 46.9158Z" fill="#FF4D85"/>
<path d="M24.9559 21.7544C25.5297 21.7544 25.9948 21.2831 25.9948 20.7018C25.9948 20.1204 25.5297 19.6491 24.9559 19.6491C24.3821 19.6491 23.917 20.1204 23.917 20.7018C23.917 21.2831 24.3821 21.7544 24.9559 21.7544Z" fill="#FF4D85"/>
<path d="M27.7263 21.7544C28.3 21.7544 28.7652 21.2831 28.7652 20.7018C28.7652 20.1204 28.3 19.6491 27.7263 19.6491C27.1525 19.6491 26.6874 20.1204 26.6874 20.7018C26.6874 21.2831 27.1525 21.7544 27.7263 21.7544Z" fill="#FF4D85"/>
<path d="M30.4967 21.7544C31.0704 21.7544 31.5356 21.2831 31.5356 20.7018C31.5356 20.1204 31.0704 19.6491 30.4967 19.6491C29.9229 19.6491 29.4578 20.1204 29.4578 20.7018C29.4578 21.2831 29.9229 21.7544 30.4967 21.7544Z" fill="#FF4D85"/>
<path opacity="0.1" d="M109.453 22.4561H22.6472V22.807H109.453V22.4561Z" fill="black"/>
<path d="M130 71.0472C130 78.5058 125.624 81.1101 120.226 81.1101C114.827 81.1101 110.451 78.5058 110.451 71.0472C110.451 63.5886 120.226 54.1001 120.226 54.1001C120.226 54.1001 130 63.5886 130 71.0472Z" fill="#F2F2F2"/>
<path d="M119.87 79.9691L119.97 73.7269L124.136 66.0044L119.985 72.7477L120.03 69.9409L122.901 64.3539L120.042 69.1982L120.123 64.1502L123.198 59.7021L120.136 63.3564L120.186 54.1001L119.869 66.3538L119.895 65.8483L116.769 61.0002L119.845 66.8187L119.553 72.4565L119.545 72.3068L115.941 67.2049L119.534 72.8354L119.497 73.5405L119.491 73.5511L119.494 73.609L118.755 87.9126H119.742L119.86 80.5246L123.445 74.9077L119.87 79.9691Z" fill="#3F3D56"/>
<path d="M14.1546 87.847C13.8547 88.0161 13.5383 88.1534 13.2106 88.2566C12.6243 88.4189 11.9977 88.3593 11.4055 88.4979C11.1631 88.5546 10.8992 88.6732 10.8221 88.9129C10.7655 89.0887 10.8271 89.2786 10.886 89.4536C11.5403 91.3975 11.9347 93.4614 12.9782 95.2221C13.4168 95.9616 13.9611 96.6312 14.5934 97.209C14.8307 97.4256 15.0995 97.6375 15.4171 97.6715C15.5635 97.6872 15.7113 97.6635 15.8457 97.6027C15.9802 97.542 16.0964 97.4464 16.1827 97.3256C16.269 97.2048 16.3223 97.0631 16.3373 96.9147C16.3522 96.7664 16.3283 96.6166 16.2679 96.4806C16.1743 96.27 16.0004 96.1068 15.8883 95.9057C15.7666 95.6495 15.6953 95.3718 15.6782 95.0881C15.5751 94.2567 15.4758 93.3878 15.7601 92.6009C15.9508 92.0732 16.3006 91.6233 16.592 91.1451C16.8834 90.6669 17.1255 90.1191 17.0606 89.561C17.0164 89.1801 16.833 88.8315 16.6393 88.5021C16.4452 88.1719 16.0616 87.2847 15.6716 87.1745C15.2669 87.0602 14.5076 87.6636 14.1546 87.847Z" fill="#2F2E41"/>
<path d="M24.8246 94.5614C24.8308 94.7495 24.8049 94.9372 24.7481 95.1164C24.626 95.443 24.3232 95.6668 24.1667 95.978C23.9491 96.4109 24.0478 96.934 24.1919 97.3973C24.2823 97.6877 24.4008 97.9899 24.6436 98.1695C24.8511 98.2999 25.0871 98.3765 25.3308 98.3926C27.4128 98.6845 29.5277 98.517 31.6287 98.5782C32.0116 98.5894 32.417 98.6029 32.7513 98.4133C33.0856 98.2237 33.2922 97.747 33.0649 97.4346C32.8607 97.1541 32.4571 97.1567 32.1135 97.1402C31.2187 97.0941 30.3666 96.7385 29.6994 96.1326C29.5678 96.0187 29.4537 95.8856 29.3608 95.7377C29.2893 95.6064 29.2301 95.4687 29.1837 95.3263C28.8892 94.5179 28.5388 93.7316 28.1351 92.9732C28.0222 92.761 27.8942 92.5399 27.6843 92.4263C27.5306 92.3555 27.3638 92.3186 27.1949 92.318C26.6713 92.2837 25.3153 92.1031 24.9104 92.5157C24.5362 92.8969 24.8329 94.0772 24.8246 94.5614Z" fill="#2F2E41"/>
<path d="M28.0468 47.4497C29.894 47.4497 31.3915 45.9325 31.3915 44.0609C31.3915 42.1892 29.894 40.672 28.0468 40.672C26.1996 40.672 24.7022 42.1892 24.7022 44.0609C24.7022 45.9325 26.1996 47.4497 28.0468 47.4497Z" fill="#FBBEBE"/>
<path d="M25.0265 46.8592C24.8276 47.3988 24.4902 47.9056 23.9991 48.196L28.6251 49.1521C28.4573 48.468 28.4352 47.7556 28.5602 47.0622C28.6061 46.8943 28.6156 46.7184 28.5879 46.5465C28.5009 46.2064 28.1231 46.0427 27.7851 45.9647C26.9408 45.7697 26.1942 45.6651 25.4096 45.2873C25.1698 45.7032 25.2034 46.3796 25.0265 46.8592Z" fill="#FBBEBE"/>
<path d="M23.9605 46.9271C24.4582 46.6989 25.0003 46.5879 25.5464 46.6024C26.0924 46.6168 26.6281 46.7564 27.1133 47.0106C27.7064 47.3273 28.1975 47.8052 28.68 48.2768C29.1247 48.7115 29.5991 49.2093 29.6306 49.8346C29.6459 50.1375 29.5526 50.4337 29.5055 50.7333C29.4208 51.3527 29.5285 51.9836 29.8135 52.5383C30.0985 53.093 30.5468 53.5441 31.0962 53.8291C31.4637 54.4494 31.5395 55.2009 31.5451 55.9243C31.5665 58.6654 30.713 61.4402 31.3223 64.1109C31.4654 64.738 31.6873 65.3453 31.8109 65.9766C31.9709 66.7942 31.963 67.635 32.0468 68.4643C32.1376 69.3623 32.3358 70.2458 32.637 71.0953C32.4357 71.4197 32.0167 71.5441 31.6394 71.5178C31.2621 71.4916 30.9093 71.3257 30.5726 71.1511C28.9423 70.3058 27.4491 69.1912 25.7605 68.4728C24.6434 67.9975 23.4533 67.7015 22.3696 67.1525C21.2859 66.6036 20.278 65.7324 19.9466 64.5516C19.8033 64.041 19.7945 63.503 19.7867 62.9723C19.7537 60.7368 19.7231 58.4768 20.2034 56.2946C20.6269 54.3702 21.4433 52.5293 21.6214 50.5659C21.6794 49.9268 21.6806 49.2426 22.033 48.7094C22.5312 47.9556 23.6067 47.7604 23.9605 46.9271Z" fill="#2F2E41"/>
<path d="M26.1446 44.1087C26.3417 43.8483 26.7218 43.8127 27.0367 43.8898C27.3515 43.9668 27.6418 44.1312 27.9598 44.1937C28.0321 44.2145 28.1079 44.2198 28.1823 44.2092C28.2567 44.1986 28.3281 44.1724 28.3919 44.1322C28.5031 44.0213 28.5696 43.8725 28.5784 43.7146C28.6898 43.0432 28.7158 42.36 28.6558 41.6818C28.6393 41.5867 28.6456 41.4889 28.6742 41.3967C28.7529 41.2045 28.9931 41.1588 29.1892 41.0971C29.5129 40.9863 29.7909 40.7694 29.9793 40.4806C30.1677 40.1919 30.2558 39.8477 30.2296 39.5026C30.2247 39.3371 30.1561 39.18 30.0384 39.0651C29.9027 38.9531 29.7129 38.9462 29.5379 38.9448C28.6388 38.9375 27.7397 38.9377 26.8406 38.9455C26.5078 38.9483 26.1583 38.9566 25.8699 39.1247C25.6566 39.249 25.498 39.4491 25.3065 39.6056C24.8071 40.0139 24.1316 40.097 23.5241 40.3063C23.2275 40.3919 22.9582 40.5546 22.7429 40.7783C22.5408 41.0122 22.4437 41.3599 22.5706 41.6429C22.6357 41.7609 22.7085 41.8743 22.7884 41.9826C23.1468 42.5632 22.9082 43.3163 22.9617 43.9989C23.0285 44.8513 24.2736 46.2342 25.1178 46.4359C26.4808 46.7616 25.6934 44.6683 26.1446 44.1087Z" fill="#2F2E41"/>
<path d="M24.2564 81.4834C24.3424 82.1058 24.4527 82.7303 24.4233 83.3581C24.3821 84.2346 24.0701 85.079 24.0125 85.9545C23.9694 86.6084 24.069 87.2694 23.9794 87.9184C23.922 88.334 23.7882 88.7346 23.7054 89.1458C23.5743 89.8158 23.578 90.5058 23.7163 91.1743C23.8546 91.8428 24.1247 92.4762 24.5104 93.0365C24.567 93.1324 24.6476 93.2115 24.7439 93.2658C24.8364 93.3005 24.9353 93.3138 25.0334 93.3046C26.0069 93.2846 26.9778 93.1952 27.9389 93.0371C28.0093 93.0342 28.0759 93.0044 28.1255 92.9537C28.1471 92.9201 28.161 92.8819 28.166 92.8421C28.3442 91.9139 27.9378 90.9832 27.8345 90.0435C27.7241 89.04 27.9618 88.0344 28.1976 87.0534C28.3046 86.5695 28.4382 86.0921 28.5979 85.6233C28.7119 85.3078 28.8496 85.001 28.9484 84.6803C29.0884 84.1765 29.1736 83.6587 29.2026 83.1361C29.2712 82.3115 29.3076 81.4851 29.3116 80.6567C29.335 79.8717 29.2705 79.0866 29.1194 78.3164C28.9027 77.3412 28.4587 76.4356 28.0187 75.5409C27.7834 75.598 27.5625 75.7044 27.3702 75.8532C26.8031 76.2253 26.2111 76.5567 25.5983 76.8451C25.1866 77.0388 24.3837 77.1765 24.1224 77.5802C23.8647 77.9784 24.031 78.7909 24.0507 79.23C24.0845 79.9838 24.1531 80.7349 24.2564 81.4834Z" fill="#2F2E41"/>
<path opacity="0.1" d="M24.2564 81.4834C24.3424 82.1058 24.4527 82.7303 24.4233 83.3581C24.3821 84.2346 24.0701 85.079 24.0125 85.9545C23.9694 86.6084 24.069 87.2694 23.9794 87.9184C23.922 88.334 23.7882 88.7346 23.7054 89.1458C23.5743 89.8158 23.578 90.5058 23.7163 91.1743C23.8546 91.8428 24.1247 92.4762 24.5104 93.0365C24.567 93.1324 24.6476 93.2115 24.7439 93.2658C24.8364 93.3005 24.9353 93.3138 25.0334 93.3046C26.0069 93.2846 26.9778 93.1952 27.9389 93.0371C28.0093 93.0342 28.0759 93.0044 28.1255 92.9537C28.1471 92.9201 28.161 92.8819 28.166 92.8421C28.3442 91.9139 27.9378 90.9832 27.8345 90.0435C27.7241 89.04 27.9618 88.0344 28.1976 87.0534C28.3046 86.5695 28.4382 86.0921 28.5979 85.6233C28.7119 85.3078 28.8496 85.001 28.9484 84.6803C29.0884 84.1765 29.1736 83.6587 29.2026 83.1361C29.2712 82.3115 29.3076 81.4851 29.3116 80.6567C29.335 79.8717 29.2705 79.0866 29.1194 78.3164C28.9027 77.3412 28.4587 76.4356 28.0187 75.5409C27.7834 75.598 27.5625 75.7044 27.3702 75.8532C26.8031 76.2253 26.2111 76.5567 25.5983 76.8451C25.1866 77.0388 24.3837 77.1765 24.1224 77.5802C23.8647 77.9784 24.031 78.7909 24.0507 79.23C24.0845 79.9838 24.1531 80.7349 24.2564 81.4834Z" fill="black"/>
<path d="M19.7346 68.1892C19.2904 69.4009 19.9433 70.7101 20.5105 71.8678C21.9079 74.72 22.8783 77.7635 23.8436 80.7938C23.9159 81.0208 23.9881 81.2685 23.9075 81.4926C23.8379 81.6518 23.7249 81.7876 23.5818 81.884C22.9163 82.3962 22.0688 82.5786 21.276 82.8466C20.5099 83.1057 19.7761 83.4542 19.0894 83.8852C18.515 84.2459 17.9768 84.6622 17.4397 85.0779L15.7299 86.401C15.6192 86.4768 15.5225 86.5716 15.4441 86.6813C15.2792 86.9434 15.3467 87.2856 15.4288 87.5852C15.6463 88.3783 15.9262 89.1524 16.266 89.9C16.3219 90.0639 16.4283 90.2052 16.5696 90.3031C16.8364 90.4484 17.1629 90.2558 17.3666 90.0286C17.5704 89.8015 17.7467 89.5188 18.034 89.4213C18.3209 89.3239 18.6367 89.4418 18.9364 89.3992C19.4211 89.3303 19.7428 88.8779 20.0922 88.5306C21.5196 87.1118 23.9026 87.2147 25.4728 85.9602C25.6998 85.7544 25.9401 85.5642 26.1921 85.3909C26.4575 85.2319 26.7585 85.1446 27.0339 85.0041C27.8716 84.5767 28.3982 83.6932 28.6803 82.7869C28.9624 81.8807 29.0428 80.924 29.2456 79.9962C29.3504 79.5166 29.4883 79.0421 29.5349 78.5531C29.5649 78.0983 29.5551 77.6417 29.5057 77.1887L28.9391 70.0875C28.893 69.5093 28.8468 68.9305 28.7573 68.3575C27.0746 68.4185 25.3932 68.4871 23.7096 68.5073C22.37 68.5233 21.0057 68.6182 19.7346 68.1892Z" fill="#2F2E41"/>
<path d="M19.116 69.8504C19.3443 70.2224 19.8998 70.2147 20.2824 70.0107C20.6649 69.8068 20.9621 69.4642 21.3456 69.2621C21.8609 68.9904 22.4706 69.0006 23.0513 69.0172C23.9705 69.0435 24.9011 69.0715 25.7855 69.3268C26.7003 69.5908 27.5908 70.0991 28.5367 69.9977C28.7013 69.9801 28.8813 69.9322 28.9709 69.7912C29.0234 69.689 29.0481 69.5746 29.0424 69.4595L29.0734 68.6222C29.0923 68.4774 29.0695 68.3301 29.0076 68.1982C28.9282 68.0884 28.8194 68.004 28.6941 67.955C27.3477 67.2946 25.8123 67.1717 24.3174 67.1198C23.5575 67.0934 22.7973 67.0826 22.0367 67.0872C21.3913 67.0912 20.6165 66.9966 19.9891 67.1713C19.147 67.4058 18.6888 69.1542 19.116 69.8504Z" fill="#2F2E41"/>
<path d="M27.5699 47.9211C25.8059 47.9053 24.2073 46.7255 22.4433 46.6968C22.2302 46.6818 22.0167 46.7191 21.8209 46.8056C21.5751 46.931 21.4135 47.1736 21.2268 47.3785C20.7052 47.9507 19.9499 48.2563 19.4141 48.8149C18.9117 49.3386 18.6323 50.1189 18.8306 50.8211C19.029 51.5232 19.7776 52.0618 20.4789 51.893C20.7615 50.9663 21.3446 50.1635 22.1339 49.6147C22.5445 49.3478 22.9773 49.1176 23.4273 48.9268C24.2201 48.5628 25.1066 48.1919 25.9343 48.4647C26.2395 48.5815 26.5273 48.7405 26.7895 48.9373L28.1694 49.8765C28.0086 49.2339 27.8641 48.5132 27.5699 47.9211Z" fill="#FF4D85"/>
<path d="M20.2757 51.2718C20.0415 51.5679 20.3789 51.9969 20.3273 52.3728C20.293 52.6225 20.0901 52.8132 20.0057 53.0503C19.9182 53.296 19.9646 53.5681 19.9314 53.8271C19.8981 54.0154 19.8489 54.2005 19.7842 54.3803C19.6356 54.9173 19.5319 55.466 19.4741 56.0207L19.1653 58.357C19.1118 58.7086 19.0791 59.0632 19.0677 59.4188C19.0832 59.6845 19.0657 59.9512 19.0155 60.2125C18.9471 60.4679 18.7957 60.6912 18.6939 60.9348C18.592 61.1784 18.5448 61.4731 18.6824 61.6979C18.2217 62.0867 18.0847 62.8504 18.4068 63.3628C18.4682 63.4426 18.5161 63.5321 18.5488 63.6277C18.5666 63.7614 18.5449 63.8973 18.4863 64.0184L18.1741 64.8613C18.0942 65.0771 18.0689 65.4055 18.2911 65.4548C18.107 65.6484 17.9637 65.8779 17.8696 66.1293C17.824 66.2555 17.8103 66.3913 17.8299 66.5242C17.8496 66.6572 17.9018 66.783 17.9818 66.8902C18.0594 66.9591 18.1255 67.0403 18.1774 67.1307C18.208 67.2565 18.2001 67.3888 18.1548 67.51C18.1081 67.6941 18.0991 67.8859 18.1284 68.0736C18.1576 68.2613 18.2245 68.441 18.3249 68.6016C18.4289 68.76 18.5761 68.8843 18.7487 68.9592C18.9213 69.0342 19.1117 69.0566 19.2966 69.0236C19.9212 68.8809 20.4824 68.6556 21.1121 68.7727C22.468 69.0248 23.8282 69.2779 25.1414 69.7028C26.6402 70.1876 28.0914 70.8986 29.6578 71.0478C29.7609 71.0692 29.8681 71.0523 29.9599 71.0002C30.0397 70.9236 30.0893 70.8202 30.0996 70.7093C30.2609 69.9426 30.4223 69.176 30.5837 68.4093C30.7788 67.5595 30.9274 66.6994 31.0287 65.833C31.0838 65.2738 31.0995 64.7114 31.1152 64.1497L31.24 59.6782C31.2984 59.0192 31.2117 58.3553 30.986 57.7344L30.2683 55.4129C29.8587 54.0882 28.9192 52.9134 28.5846 51.5671C28.3729 50.7151 28.2165 49.8007 27.6487 49.1366C26.8393 48.1898 25.4388 48.0426 24.213 48.2054C23.6592 48.2789 23.1007 48.4058 22.6217 48.6968C22.0679 49.0333 21.6598 49.5633 21.2651 50.0811C20.9397 50.5079 20.6086 50.851 20.2757 51.2718Z" fill="#FF4D85"/>
<path d="M23.1379 64.4238C23.2389 64.865 23.451 65.2719 23.5808 65.7053C23.7983 66.4315 23.7798 67.2136 23.9969 67.9399C24.0881 68.2447 24.2201 68.5374 24.2855 68.849C24.4379 69.5753 24.2153 70.3268 23.9388 71.0145C23.6622 71.7023 23.3254 72.3804 23.2356 73.1174C23.1724 73.6365 23.2632 74.2227 23.6581 74.5596C24.0681 74.9093 24.6639 74.8857 25.1979 74.8391C25.3896 74.8337 25.5788 74.7938 25.7567 74.7212C26.1651 74.5255 26.3371 74.0359 26.4326 73.5885C26.7525 72.0892 26.6611 70.5351 26.5681 69.0041L26.325 65.0001C26.2782 64.2292 26.228 63.4424 25.9936 62.7022C25.9083 62.433 25.7597 61.8889 25.517 61.717C25.2766 61.5467 24.59 61.5391 24.2924 61.525C22.8959 61.4585 22.9115 63.4335 23.1379 64.4238Z" fill="#FBBEBE"/>
<path d="M24.6852 49.6402C24.4 49.4889 24.0406 49.5541 23.765 49.7226C23.4988 49.9072 23.2657 50.1366 23.0756 50.4007C22.4593 51.1629 21.8069 52.0375 21.8983 53.0185C21.9326 53.3863 22.0716 53.7344 22.1658 54.0913C22.579 55.6561 22.1221 57.3112 22.1745 58.9302C22.2048 59.8657 22.4057 60.7859 22.6058 61.6997C22.6467 61.8862 22.7121 62.1021 22.8901 62.1649C23.0239 62.2121 23.1683 62.1514 23.3007 62.1004C23.7939 61.9158 24.3237 61.8542 24.8454 61.9208C25.367 61.9874 25.8652 62.1803 26.2977 62.4832C26.6284 62.3044 26.5045 61.739 26.4304 61.3667C26.2101 60.2605 26.5091 59.1194 26.8723 58.0526C27.2355 56.9858 27.67 55.9204 27.7302 54.7936C27.7984 53.5169 27.3806 52.2707 26.9683 51.0623C26.8784 50.7985 26.78 50.5219 26.5714 50.3397C26.3928 50.2051 26.1881 50.1103 25.9708 50.0616C25.533 49.9305 25.0897 49.8548 24.6852 49.6402Z" fill="#2F2E41"/>
</g>
<defs>
<clipPath id="clip0">
<rect width="130" height="100" fill="white"/>
</clipPath>
</defs>
</svg>
